<svg width="312" height="312" viewBox="0 0 312 312" fill="none" xmlns="http://www.w3.org/2000/svg">
<path d="M154.878 295.322C154.86 295.592 154.781 295.778 154.642 295.879C154.502 295.979 154.341 296.024 154.158 296.011C153.968 295.998 153.811 295.932 153.687 295.813C153.555 295.694 153.499 295.499 153.517 295.228C153.535 294.965 153.618 294.78 153.765 294.672C153.905 294.564 154.07 294.517 154.26 294.53C154.443 294.542 154.596 294.611 154.72 294.737C154.843 294.863 154.896 295.058 154.878 295.322Z" fill="#0C2717"/>
<path d="M116.173 287.398L115.887 287.317L116.261 285.983L122.034 287.6L121.951 287.897L121.94 287.894C121.437 287.936 121.021 288.322 120.881 288.819L119.759 292.823C119.623 293.31 119.778 293.857 120.186 294.154C120.183 294.164 120.194 294.167 120.194 294.167L120.114 294.453L114.479 292.874L114.559 292.588L114.85 291.55L115.136 291.631C115.285 292.484 115.96 292.97 115.999 292.992L118.16 293.598C118.213 293.612 118.267 293.582 118.282 293.529L119.03 290.86C119.045 290.807 119.017 290.742 118.964 290.727L117.916 290.433C117.799 290.401 116.982 290.217 116.409 290.879L116.123 290.799L116.657 288.892L116.943 288.973C117.078 289.753 117.805 290.094 117.975 290.141L119.045 290.441C119.098 290.456 119.152 290.425 119.167 290.372L119.986 287.449C120.001 287.396 119.97 287.342 119.917 287.327L117.619 286.683C117.608 286.68 116.75 286.725 116.173 287.398Z" fill="#0C2717"/>
<path d="M107.551 283.902C107.489 283.681 107.334 283.264 107.049 283.081L107.148 282.801L109.916 283.785L109.816 284.065C109.277 284.072 108.884 284.586 109.027 285.103L109.53 286.94C109.556 287.031 109.659 287.068 109.727 287.01L111.261 285.944C111.681 285.65 111.784 285.033 111.408 284.677C111.374 284.642 111.336 284.617 111.298 284.592L111.398 284.312L113.45 285.041L113.351 285.321C112.875 285.28 112.303 285.707 112.303 285.707L109.921 287.383C109.79 287.488 109.721 287.65 109.766 287.818L110.515 290.606C110.587 290.83 110.74 291.222 111.014 291.402L110.915 291.682L108.147 290.698L108.247 290.418C108.257 290.422 108.261 290.412 108.271 290.415C108.811 290.408 109.19 289.866 109.058 289.352L108.813 288.366C108.797 288.279 108.693 288.242 108.616 288.296L107.772 288.895C107.277 289.303 107.264 289.8 107.64 290.156C107.674 290.191 107.712 290.216 107.749 290.241L107.65 290.521L105.598 289.792L105.697 289.512C106.183 289.556 106.741 289.136 106.741 289.136L108.421 287.958C108.548 287.863 108.603 287.708 108.561 287.564L107.597 284.035C107.597 284.035 107.59 284.021 107.584 284.007L107.551 283.902Z" fill="#0C2717"/>
<path d="M98.5073 286.812C97.004 286.159 96.35 284.904 96.8759 283.693C97.4018 282.482 98.7947 282.092 100.278 282.736L101.509 283.271C101.65 283.332 101.819 283.274 101.881 283.133L102.253 282.275C102.428 281.871 102.392 281.376 102.112 281.026C102.07 280.984 102.028 280.942 101.987 280.9L102.105 280.628L104.668 281.741L104.549 282.013C104.549 282.013 104.549 282.013 104.539 282.009C104.035 281.982 103.57 282.307 103.369 282.772L101.703 286.605C101.502 287.07 101.586 287.622 101.949 287.972C101.955 287.986 101.955 287.986 101.955 287.986L101.837 288.259L98.5073 286.812ZM100.668 283.218C99.8612 282.867 98.5402 283.037 98.0362 284.197C97.4446 285.559 98.3229 286.408 99.1301 286.759L99.8565 287.075C99.9978 287.136 100.167 287.078 100.228 286.936L101.543 283.909C101.604 283.768 101.536 283.595 101.395 283.533L100.668 283.218Z" fill="#0C2717"/>
<path d="M91.4551 276.964L91.1914 276.827L91.824 275.607L96.7952 278.182L96.6586 278.446L96.6488 278.441C96.1577 278.385 95.6818 278.634 95.4591 279.064L93.4753 282.892C93.2526 283.322 93.3237 283.854 93.6579 284.213L93.6627 284.228L93.526 284.492L91.0453 283.206L91.1819 282.943L91.1967 282.938C91.7074 283.004 92.184 282.706 92.4168 282.257L94.3855 278.458C94.6537 277.94 94.4513 277.302 93.9337 277.034L93.0058 276.553C92.9617 276.543 92.1515 276.433 91.4551 276.964Z" fill="#0C2717"/>
<path d="M80.0292 272.735C81.1037 270.968 83.5098 270.526 85.5023 271.737C87.476 272.938 88.1715 275.266 87.097 277.033C86.0225 278.8 83.6352 279.253 81.6615 278.053C79.669 276.841 78.9547 274.502 80.0292 272.735ZM81.1289 273.403C80.3116 274.747 80.205 276.807 81.8028 277.779C83.4381 278.773 85.1894 277.714 86.0068 276.37C86.8241 275.026 86.9098 272.979 85.312 272.008C83.6861 271.019 81.9462 272.059 81.1289 273.403Z" fill="#0C2717"/>
<path d="M75.8218 268.774L75.65 265.26L78.0225 266.934L77.8512 267.177C77.727 267.143 77.6054 267.125 77.4955 267.128C77.108 267.123 76.8183 267.458 76.8357 267.833L76.9119 269.099C76.9156 269.304 77.0266 269.49 77.1973 269.61L77.9792 270.162C78.105 270.251 78.2826 270.228 78.3714 270.102L78.9296 269.311C79.2214 268.898 79.2209 268.346 78.9296 267.938L79.1009 267.695L81.3835 269.307L81.2123 269.549C80.7397 269.418 80.219 269.602 79.9272 270.016L77.4532 273.52C77.1741 273.916 77.172 274.453 77.4543 274.854L77.4569 274.869L77.2856 275.112L74.32 273.019C72.981 272.074 72.5962 270.711 73.3574 269.633C73.9029 268.86 74.7889 268.597 75.7404 268.851C75.7801 268.852 75.8234 268.829 75.8218 268.774ZM77.1672 269.939C76.4483 269.431 75.1204 269.329 74.3909 270.362C73.5345 271.576 74.2217 272.586 74.9406 273.093L75.5877 273.55C75.7135 273.639 75.8911 273.616 75.9799 273.49L77.883 270.794C77.9718 270.668 77.9401 270.484 77.8142 270.396L77.1672 269.939Z" fill="#0C2717"/>
<path d="M67.4593 260.462L67.2289 260.275L68.1036 259.199L72.754 262.983L72.5596 263.222L72.5511 263.215C72.0731 263.053 71.5373 263.241 71.211 263.642L68.587 266.867C68.2676 267.26 68.1926 267.823 68.4484 268.258C68.4415 268.266 68.45 268.273 68.45 268.273L68.2626 268.504L63.7231 264.81L63.9105 264.58L64.5909 263.744L64.8212 263.931C64.6185 264.773 65.0438 265.488 65.071 265.524L66.8117 266.94C66.8544 266.975 66.9163 266.969 66.951 266.926L68.7003 264.776C68.7351 264.733 68.7356 264.663 68.693 264.628L67.8482 263.941C67.7544 263.864 67.0781 263.371 66.2882 263.749L66.0578 263.562L67.3073 262.026L67.5377 262.213C67.351 262.983 67.8821 263.585 68.0186 263.696L68.8804 264.398C68.9231 264.432 68.985 264.426 69.0197 264.383L70.9357 262.028C70.9704 261.985 70.964 261.924 70.9213 261.889L69.0697 260.382C69.0612 260.376 68.2562 260.075 67.4593 260.462Z" fill="#0C2717"/>
<path d="M61.3161 256.727L61.6244 253.222L63.7468 255.204L63.5441 255.421C63.4256 255.371 63.3077 255.336 63.1983 255.324C62.815 255.267 62.4825 255.559 62.4486 255.934L62.3517 257.198C62.3275 257.401 62.4122 257.6 62.5649 257.743L63.2643 258.396C63.3769 258.501 63.5559 258.503 63.6611 258.39L64.3218 257.683C64.6671 257.313 64.7418 256.766 64.5088 256.322L64.7115 256.105L66.7535 258.012L66.5507 258.229C66.1005 258.035 65.5595 258.147 65.2141 258.516L62.286 261.652C61.9556 262.005 61.8804 262.537 62.1054 262.973L62.1059 262.989L61.9032 263.206L59.2503 260.728C58.0525 259.609 57.8567 258.207 58.7577 257.243C59.4034 256.551 60.3169 256.411 61.225 256.793C61.2641 256.799 61.3102 256.782 61.3161 256.727ZM62.4903 258.065C61.8472 257.464 60.5456 257.182 59.6822 258.106C58.6686 259.191 59.2118 260.286 59.855 260.886L60.4338 261.427C60.5463 261.532 60.7254 261.534 60.8305 261.421L63.0829 259.009C63.1881 258.897 63.1817 258.71 63.0691 258.605L62.4903 258.065Z" fill="#0C2717"/>
<path d="M48.3794 244.324C48.1689 244.495 47.9794 244.565 47.8108 244.532C47.6421 244.499 47.5 244.411 47.3843 244.269C47.2639 244.121 47.2048 243.961 47.2068 243.789C47.2042 243.612 47.3081 243.437 47.5186 243.266C47.7234 243.1 47.9153 243.033 48.0942 243.067C48.2685 243.096 48.4159 243.184 48.5362 243.332C48.6519 243.474 48.7059 243.633 48.6982 243.81C48.6905 243.986 48.5842 244.158 48.3794 244.324Z" fill="#0C2717"/>
<path d="M37.7631 224.675C37.7591 224.626 37.8097 224.583 37.8551 224.594C39.0443 224.707 40.1408 225.431 40.8438 226.587C42.0498 228.57 41.6018 230.967 39.8349 232.041C38.068 233.116 35.7339 232.411 34.5223 230.418C33.8193 229.262 33.6834 227.98 34.1332 226.857C34.1537 226.806 34.2064 226.787 34.248 226.813L35.0294 227.188C35.0804 227.208 35.0959 227.276 35.0547 227.314C34.4604 227.946 34.1436 229.245 34.7666 230.27C35.7154 231.83 37.8373 231.763 39.1813 230.945C40.5159 230.134 41.5997 228.38 40.5938 226.726C39.9079 225.598 38.4708 225.352 37.8497 225.601C37.797 225.62 37.7345 225.581 37.7342 225.517L37.7631 224.675Z" fill="#0C2717"/>
<path d="M34.0397 217.372L33.9031 217.108L35.1239 216.476L37.6998 221.447L37.4361 221.584L37.4311 221.574C37.0623 221.245 36.5299 221.174 36.1002 221.396L32.2716 223.38C31.8419 223.603 31.5929 224.079 31.6589 224.565L31.6542 224.58L31.3905 224.716L30.1051 222.236L30.3688 222.099L30.3836 222.104C30.7626 222.452 31.3239 222.484 31.7732 222.251L35.5724 220.282C36.0901 220.014 36.2924 219.376 36.0242 218.859L35.5434 217.931C35.5134 217.897 34.915 217.34 34.0397 217.372Z" fill="#0C2717"/>
<path d="M25.6621 212.089C25.6621 212.089 25.6665 212.099 25.681 212.105C26.0308 212.468 26.5887 212.538 27.0528 212.336L30.8666 210.68C31.3408 210.474 31.6708 210.019 31.6438 209.515C31.6394 209.504 31.635 209.494 31.635 209.494L31.9175 209.372L33.0306 211.934L32.7481 212.057L32.7438 212.047C32.3939 211.683 31.8316 211.604 31.3574 211.81L27.5437 213.466C27.0796 213.668 26.7539 214.133 26.781 214.637C26.7709 214.641 26.7753 214.651 26.7753 214.651L26.5028 214.77L25.3897 212.207L25.6621 212.089Z" fill="#0C2717"/>
<path d="M26.4355 198.975C26.8605 198.824 27.1874 198.462 27.2517 198.019C27.2577 197.971 27.26 197.911 27.2586 197.842L27.5385 197.742L28.4778 200.385L28.198 200.485C28.1943 200.474 28.1906 200.464 28.1802 200.468C27.856 200.081 27.3108 199.96 26.8341 200.129L23.196 201.422C23.1442 201.44 23.1492 201.52 23.2017 201.537L27.4609 202.451L27.5751 202.773L25.1504 207.02C25.12 207.066 25.1732 207.117 25.2146 207.102L28.8564 205.819C29.3332 205.65 29.6898 205.208 29.6972 204.703L29.6935 204.693L29.9734 204.594L30.6033 206.366L30.3234 206.465C30.2843 206.421 30.2451 206.376 30.1956 206.336C29.8764 206.029 29.3845 205.959 28.9699 206.106L24.5959 207.66C24.5722 207.692 24.1824 208.041 24.1874 208.646L23.9076 208.746L23.4655 207.502L23.4324 207.408L26.0937 202.809C26.1678 202.689 26.1022 202.537 25.9624 202.505L21.3216 201.469L20.8464 200.132L21.1263 200.033C21.4756 200.457 21.9432 200.525 22.0408 200.537L26.4355 198.975Z" fill="#0C2717"/>
<path d="M22.1313 192.075C22.1313 192.075 22.2049 190.992 23.4229 190.65C24.6622 190.303 25.7123 191.197 26.0773 192.5L27.2051 196.525L26.9085 196.608L26.9056 196.597C26.6085 196.189 26.0517 196.037 25.5645 196.173L21.5606 197.295C21.0734 197.432 20.6875 197.848 20.6456 198.351C20.635 198.354 20.638 198.365 20.638 198.365L20.352 198.445L19.3074 194.716C18.8622 193.128 19.3408 192.023 20.4953 191.699C21.3215 191.468 22.1313 192.075 22.1313 192.075ZM20.3034 196.436L22.7925 195.739C22.8984 195.709 22.9594 195.601 22.9297 195.495L22.541 194.107C22.2383 193.027 21.4454 192.644 20.6404 192.869C20.0049 193.047 19.4064 193.969 19.6705 194.912L20.0593 196.299C20.089 196.405 20.1974 196.466 20.3034 196.436ZM25.9381 193.144C25.7244 192.382 24.8268 191.502 23.8735 191.769C22.9414 192.03 22.5361 192.989 22.8566 194.133L23.2157 195.415C23.2454 195.521 23.3539 195.582 23.4492 195.555L26.2032 194.783C26.2985 194.757 26.3595 194.648 26.3298 194.542L25.9381 193.144Z" fill="#0C2717"/>
<path d="M21.9868 180.921L21.9263 180.63L23.2833 180.348L24.5031 186.218L24.2015 186.28L24.1993 186.269C23.9307 185.842 23.3964 185.65 22.8902 185.755L18.8192 186.601C18.3238 186.704 17.9103 187.093 17.8342 187.592C17.8235 187.594 17.8257 187.605 17.8257 187.605L17.5349 187.666L16.3443 181.936L16.6351 181.876L17.6905 181.656L17.751 181.947C17.0624 182.472 16.9413 183.295 16.9394 183.34L17.396 185.537C17.4072 185.591 17.4592 185.625 17.5131 185.614L20.2271 185.05C20.2809 185.039 20.3258 184.985 20.3147 184.931L20.0931 183.865C20.0685 183.746 19.8553 182.937 19.0038 182.732L18.9433 182.441L20.8819 182.038L20.9424 182.329C20.3117 182.808 20.3436 183.61 20.3794 183.783L20.6054 184.87C20.6166 184.924 20.6687 184.958 20.7225 184.947L23.695 184.33C23.7489 184.318 23.783 184.266 23.7718 184.212L23.2861 181.875C23.2839 181.865 22.849 181.124 21.9868 180.921Z" fill="#0C2717"/>
<path d="M19.5783 174.147L22.0294 171.622L22.4248 174.499L22.1306 174.54C22.0705 174.426 22.001 174.324 21.9237 174.246C21.6623 173.96 21.2204 173.977 20.9576 174.246L20.0847 175.165C19.9377 175.308 19.8775 175.516 19.9059 175.723L20.0362 176.671C20.0572 176.823 20.1951 176.938 20.3476 176.917L21.3066 176.785C21.8079 176.716 22.2113 176.339 22.3103 175.848L22.6045 175.807L22.985 178.575L22.6908 178.616C22.4644 178.18 21.9741 177.926 21.4729 177.995L17.2228 178.579C16.7433 178.645 16.3494 179.01 16.2488 179.49L16.2394 179.502L15.9452 179.543L15.4509 175.947C15.2277 174.323 15.9606 173.112 17.2683 172.932C18.2055 172.803 19.0027 173.271 19.4663 174.14C19.4926 174.17 19.5392 174.185 19.5783 174.147ZM19.6451 175.925C19.5252 175.053 18.6938 174.013 17.4406 174.185C15.9694 174.387 15.7002 175.579 15.82 176.451L15.9279 177.236C15.9488 177.388 16.0867 177.502 16.2392 177.481L19.5085 177.032C19.6611 177.011 19.7739 176.862 19.7529 176.71L19.6451 175.925Z" fill="#0C2717"/>
<path d="M17.117 156.087C16.8457 156.087 16.655 156.021 16.545 155.889C16.435 155.757 16.38 155.6 16.38 155.416C16.38 155.226 16.435 155.064 16.545 154.932C16.655 154.793 16.8457 154.723 17.117 154.723C17.381 154.723 17.5717 154.793 17.689 154.932C17.8063 155.064 17.865 155.226 17.865 155.416C17.865 155.6 17.8063 155.757 17.689 155.889C17.5717 156.021 17.381 156.087 17.117 156.087Z" fill="#0C2717"/>
<path d="M15.221 139.161L16.0178 133.364L16.3121 133.404L16.3106 133.415L17.3785 133.562L17.3381 133.856C16.5149 134.109 16.1253 134.844 16.1084 134.886L15.8028 137.109C15.7953 137.164 15.8329 137.214 15.8874 137.221L18.6336 137.598C18.6881 137.606 18.7486 137.57 18.7561 137.515L18.9028 136.447C18.9208 136.317 18.9911 135.482 18.2574 135.004L18.2978 134.71L20.2594 134.979L20.2189 135.274C19.4641 135.514 19.2255 136.281 19.2016 136.455L19.0503 137.556C19.0428 137.61 19.0804 137.66 19.1349 137.667L21.5323 137.997C21.5665 137.99 22.073 137.86 22.347 137.321L22.6522 137.362L22.2717 140.13L21.9666 140.088L21.9681 140.078C21.8581 139.585 21.4191 139.225 20.9069 139.154L16.7876 138.588C16.2863 138.519 15.7664 138.748 15.5276 139.192C15.5167 139.191 15.5152 139.202 15.5152 139.202L15.221 139.161Z" fill="#0C2717"/>
<path d="M17.7701 124.638L18.1595 122.764L18.4503 122.824C18.4606 122.883 18.471 122.941 18.4813 122.999C18.6054 123.43 18.9914 123.734 19.433 123.826L22.1255 124.386C23.9025 124.755 24.8316 126.285 24.4355 128.191C24.0394 130.098 22.5776 131.131 20.8006 130.762L18.1188 130.204C17.6234 130.101 17.0891 130.294 16.8206 130.721C16.8098 130.719 16.8076 130.729 16.8076 130.729L16.5168 130.669L17.0852 127.933L17.376 127.994C17.3738 128.005 17.3738 128.005 17.3823 128.018C17.4584 128.517 17.8741 128.895 18.3695 128.998L21.8266 129.716C22.9898 129.958 23.8941 129.337 24.1447 128.131C24.5207 126.322 23.2731 124.972 22.1099 124.731L19.3744 124.162C18.879 124.059 18.3447 124.252 18.0761 124.679C18.0631 124.688 18.0631 124.688 18.0609 124.698L17.7701 124.638Z" fill="#0C2717"/>
<path d="M25.6359 117.374L25.716 117.088L27.04 117.459L25.5294 122.85L25.2434 122.77L25.2464 122.76C25.2016 122.267 24.861 121.852 24.3949 121.721L20.2428 120.558C19.7768 120.427 19.27 120.605 18.9865 121.006L18.9729 121.013L18.6869 120.933L19.4407 118.243L19.7267 118.323L19.7343 118.336C19.7732 118.85 20.1621 119.256 20.6494 119.392L24.7697 120.547C25.3311 120.704 25.9141 120.376 26.0714 119.815L26.3534 118.809C26.3546 118.763 26.2976 117.948 25.6359 117.374Z" fill="#0C2717"/>
<path d="M28.6262 108.526L28.7256 108.247L30.0212 108.707L28.1463 113.983L27.8664 113.883L27.8701 113.873C27.859 113.379 27.5475 112.941 27.0915 112.779L23.0284 111.335C22.5724 111.173 22.0546 111.316 21.7444 111.696L21.7304 111.703L21.4505 111.603L22.3862 108.97L22.666 109.07L22.6727 109.084C22.6765 109.599 23.0368 110.031 23.5135 110.2L27.5455 111.633C28.0948 111.828 28.6989 111.541 28.8941 110.992L29.2441 110.007C29.2485 109.962 29.2472 109.144 28.6262 108.526Z" fill="#0C2717"/>
<path d="M31.7883 99.5568C32.9082 100.043 33.2398 101.351 32.6087 102.803C32.1573 103.843 31.3203 104.582 30.334 104.838C30.266 104.856 30.1796 104.806 30.1655 104.728L30.0416 104.075C30.0276 103.997 30.0872 103.915 30.171 103.915C30.8021 103.926 31.9068 103.674 32.3363 102.685C32.6781 101.898 32.1765 101.093 31.5813 100.834C30.986 100.575 30.3462 100.861 29.8209 101.353L29.133 102.025C28.1114 102.997 27.3475 103.264 26.5908 102.936C25.5516 102.484 25.2371 101.22 25.8199 99.8786C26.21 98.9807 26.8817 98.373 27.693 98.1617C27.7711 98.1476 27.8474 98.1928 27.8615 98.2709L28.0056 98.9331C28.0196 99.0112 27.9644 99.0831 27.8863 99.0972C27.2679 99.1404 26.4237 99.2894 26.1125 100.006C25.8101 100.702 26.1924 101.396 26.7271 101.628C27.2921 101.873 28.0605 101.595 28.4871 101.193L29.2026 100.484C30.2461 99.4626 30.971 99.2018 31.7883 99.5568Z" fill="#0C2717"/>
<path d="M29.113 93.1143L32.0786 87.391L33.2994 88.0236L33.1628 88.2873C32.3121 88.2554 31.8716 88.436 31.6439 88.8755C31.5022 89.1489 31.4015 89.9888 32.134 90.3683L35.9235 92.3319C36.3728 92.5647 36.92 92.4889 37.2841 92.1449L37.5478 92.2815L36.2573 94.772L35.9936 94.6354C36.0843 94.1496 35.8501 93.669 35.4204 93.4464L31.543 91.4373C30.8105 91.0577 30.2168 91.6297 30.0751 91.9032C29.8423 92.3524 29.9538 92.8067 30.4705 93.4832L30.3339 93.7469L29.113 93.1143Z" fill="#0C2717"/>
<path d="M41.8064 83.2541C41.9837 83.2589 42.3612 83.231 42.7006 82.9481L42.9543 83.1024L41.5312 85.4427L41.2774 85.2884C41.3182 85.0943 41.3022 84.9301 41.269 84.794C41.2007 84.5465 40.9792 84.3603 40.7096 84.338L40.5437 84.3143C40.4947 84.3103 40.4436 84.3307 40.415 84.3777L38.3575 87.7612C38.3346 87.7988 38.34 87.8535 38.3661 87.8952L38.4373 87.99C38.5869 88.2097 38.8635 88.3264 39.1261 88.2544C39.2773 88.2176 39.4513 88.1431 39.6257 88.0046L39.8794 88.1589L38.9707 89.6533L38.7169 89.4989C38.7809 89.2031 38.6562 88.9213 38.5573 88.7453L38.4469 88.588L38.4375 88.5823L35.0933 83.7292C34.996 83.5928 34.855 83.507 34.6948 83.474L34.4366 83.4329L34.8481 82.7562C34.9739 82.5494 35.1953 82.4394 35.4347 82.4691L41.8064 83.2541ZM40.1041 84.3174C40.1156 84.2986 40.1025 84.2778 40.078 84.2757L35.3734 83.5648C35.3546 83.5534 35.3375 83.5816 35.3506 83.6024L38.0947 87.537C38.1078 87.5579 38.1323 87.5599 38.1437 87.5411L40.1041 84.3174Z" fill="#0C2717"/>
<path d="M46.9397 74.7689C46.983 74.7457 47.0433 74.7748 47.0512 74.8207C47.4208 75.9568 47.194 77.2508 46.4137 78.3562C45.0753 80.2524 42.6985 80.7964 41.0091 79.6038C39.3196 78.4112 39.0362 75.9896 40.381 74.0844C41.1613 72.979 42.283 72.3436 43.4925 72.3087C43.5475 72.3071 43.5861 72.3478 43.5787 72.3965L43.5464 73.2624C43.548 73.3173 43.492 73.3586 43.4407 73.3358C42.6245 73.0425 41.3061 73.2698 40.6147 74.2493C39.5617 75.7411 40.4688 77.6605 41.7539 78.5677C43.03 79.4684 45.07 79.7639 46.1864 78.1823C46.9476 77.1039 46.6009 75.6877 46.1251 75.2172C46.0865 75.1765 46.0976 75.1036 46.1563 75.0777L46.9397 74.7689Z" fill="#0C2717"/>
<path d="M52.5649 68.5156C52.5649 68.5156 53.4608 68.4078 53.8068 68.122L54.0371 68.3095L51.9615 70.8608L51.7311 70.6734L51.7381 70.6648C51.9123 70.1543 51.5301 69.6306 50.9922 69.6468L48.3958 69.7183C48.3494 69.723 48.3216 69.7572 48.3178 69.7966L48.449 70.7684C48.4522 70.7993 48.4623 70.8217 48.4794 70.8356L49.4878 71.6703C49.8649 71.9912 50.416 72.0283 50.8356 71.7741L51.066 71.9615L49.3027 74.1289L49.0723 73.9414C49.2359 73.4789 49.0874 72.9469 48.6949 72.6275L45.3671 69.9202C44.9916 69.6147 44.4559 69.5759 44.0364 69.8302L44.0209 69.8318L43.7905 69.6444L45.5538 67.477L45.7842 67.6645C45.7842 67.6645 45.7772 67.673 45.7788 67.6885C45.6168 68.1664 45.8118 68.6937 46.1974 69.0216L47.921 70.4239C47.9637 70.4586 48.0378 70.4197 48.0384 70.3493L47.7016 67.2249C47.6491 66.7143 47.0864 66.4124 46.6343 66.6544C46.6204 66.6715 46.598 66.6816 46.5756 66.6917L46.3452 66.5043L47.9488 64.5332L48.1791 64.7206C48.13 64.8508 48.0909 65.0034 48.0674 65.1544C47.9566 65.674 47.9418 66.215 48.0114 66.7396L48.206 68.5571C48.2178 68.595 48.2519 68.6227 48.2828 68.6196L52.5649 68.5156Z" fill="#0C2717"/>
<path d="M58.9792 52.9602C60.8363 51.2259 63.0509 51.0992 64.4925 52.6427C65.934 54.1862 65.6544 56.4492 63.8295 58.1535L61.4579 60.3684L61.2552 60.1514L61.2632 60.1439C61.4813 59.6843 61.368 59.1279 61.0226 58.7581L58.1845 55.7193C57.8392 55.3495 57.2917 55.1985 56.8259 55.3927C56.8184 55.3847 56.8104 55.3922 56.8104 55.3922L56.6077 55.1751L58.9792 52.9602ZM63.6107 57.9515C64.921 56.7277 64.6336 54.6632 63.5599 53.5136C62.4863 52.364 60.4923 51.9535 59.1659 53.1923L58.4021 53.9056C58.3298 53.9731 58.3341 54.0745 58.3942 54.1388L62.6137 58.6568C62.6813 58.7292 62.7746 58.7323 62.8469 58.6648L63.6107 57.9515Z" fill="#0C2717"/>
<path d="M73.1939 48.3078L73.4243 48.1204L74.299 49.1955L69.6486 52.9789L69.4542 52.74L69.4627 52.733C69.7186 52.298 69.6435 51.7351 69.3172 51.3341L66.6932 48.1087C66.3739 47.7162 65.838 47.5281 65.36 47.6901C65.3531 47.6816 65.3446 47.6885 65.3446 47.6885L65.1571 47.4581L69.6966 43.765L69.884 43.9954L70.5643 44.8316L70.334 45.0191C69.551 44.6493 68.7646 44.9203 68.7236 44.9395L66.9829 46.3557C66.9402 46.3904 66.9338 46.4523 66.9685 46.4949L68.7179 48.6452C68.7526 48.6879 68.8215 48.7028 68.8641 48.6681L69.7089 47.9808C69.8028 47.9045 70.4235 47.3427 70.2138 46.4923L70.4442 46.3049L71.6937 47.8408L71.4633 48.0283C70.7476 47.6888 70.0499 48.0862 69.9134 48.1973L69.0516 48.8985C69.0089 48.9332 69.0025 48.9951 69.0373 49.0377L70.9532 51.3928C70.9879 51.4355 71.0498 51.4418 71.0925 51.4071L72.9441 49.9007C72.9527 49.8938 73.4105 49.1667 73.1939 48.3078Z" fill="#0C2717"/>
<path d="M76.0597 39.1884L77.6234 38.0847L77.7947 38.3273C77.533 38.7005 77.6149 39.5987 77.6911 39.9354L78.7198 46.0088L78.3872 46.2435L72.3641 42.8608C72.1881 42.7831 71.8561 42.6943 71.4591 42.7995L71.2878 42.5568L73.6783 40.8695L73.8495 41.1121C73.8316 41.1248 73.8289 41.1401 73.8199 41.1465C73.5297 41.5937 73.6952 42.1905 74.145 42.4654L77.6895 44.5683C77.8692 44.6703 78.1002 44.5207 78.0579 44.3082L77.3702 40.1484C77.2861 39.6288 76.7612 39.2857 76.2463 39.4337L76.231 39.4311L76.0597 39.1884Z" fill="#0C2717"/>
<path d="M84.5758 37.5494C84.4348 37.3175 84.3921 37.1203 84.4478 36.9578C84.5034 36.7952 84.6095 36.6663 84.7662 36.571C84.9291 36.472 85.0955 36.4351 85.2655 36.4605C85.4417 36.4821 85.6002 36.6088 85.7412 36.8407C85.8784 37.0662 85.9179 37.2653 85.8599 37.438C85.808 37.6068 85.7007 37.7408 85.5378 37.8398C85.3811 37.9351 85.2159 37.9669 85.0422 37.9352C84.8684 37.9036 84.713 37.7749 84.5758 37.5494Z" fill="#0C2717"/>
<path d="M101.219 25.4452C102.722 24.7922 104.086 25.1712 104.612 26.382C105.138 27.5927 104.472 28.8771 102.989 29.5213L101.758 30.056C101.617 30.1173 101.544 30.2809 101.605 30.4221L101.978 31.2797C102.153 31.6833 102.54 31.9949 102.987 32.0288C103.046 32.027 103.105 32.0253 103.164 32.0236L103.283 32.296L100.72 33.4091L100.602 33.1367C100.602 33.1367 100.602 33.1367 100.612 33.1323C100.976 32.7825 101.055 32.2202 100.854 31.7561L99.1882 27.9222C98.9866 27.458 98.5258 27.1425 98.0218 27.1695C98.0074 27.1638 98.0074 27.1638 98.0074 27.1638L97.889 26.8914L101.219 25.4452ZM102.371 29.4781C103.178 29.1275 103.955 28.0462 103.451 26.8859C102.86 25.5239 101.64 25.5862 100.832 25.9368L100.106 26.2523C99.9647 26.3136 99.8918 26.4772 99.9532 26.6185L101.268 29.6453C101.329 29.7865 101.503 29.855 101.644 29.7936L102.371 29.4781Z" fill="#0C2717"/>
<path d="M113.799 21.0439L113.792 21.058C113.412 21.3682 113.269 21.8859 113.431 22.342L114.875 26.405C115.037 26.8611 115.475 27.1725 115.969 27.1836L115.98 27.1799L116.079 27.4598L113.446 28.3955L113.347 28.1156C113.737 27.8017 113.876 27.2736 113.707 26.7968L113.044 24.9312C113.018 24.8586 112.948 24.8252 112.875 24.851L109.289 26.1255C109.217 26.1513 109.183 26.2216 109.209 26.2941L109.879 28.1805C110.041 28.6366 110.469 28.9517 110.963 28.9628L110.984 28.9555L111.083 29.2353L108.45 30.171L108.351 29.8911C108.731 29.5809 108.881 29.0492 108.711 28.5724L107.275 24.5301C107.112 24.074 106.675 23.7626 106.184 23.7618L106.17 23.7551L106.071 23.4753L108.703 22.5396L108.803 22.8195L108.786 22.8372C108.406 23.1474 108.273 23.6615 108.435 24.1175L109.017 25.7552C109.043 25.8277 109.117 25.8715 109.19 25.8457L112.776 24.5711C112.848 24.5454 112.878 24.4647 112.852 24.3922L112.278 22.7753C112.108 22.2985 111.671 21.987 111.166 21.9796L111.067 21.6997L113.699 20.7641L113.799 21.0439Z" fill="#0C2717"/>
<path d="M124.119 21.5495C124.677 23.5408 123.358 25.601 121.112 26.2302C118.888 26.8534 116.712 25.7725 116.154 23.7812C115.596 21.7899 116.894 19.7356 119.118 19.1123C121.364 18.4832 123.561 19.5581 124.119 21.5495ZM122.88 21.8967C122.455 20.382 121.023 18.8984 119.222 19.403C117.379 19.9194 116.958 21.9223 117.382 23.437C117.807 24.9516 119.244 26.411 121.045 25.9065C122.877 25.3931 123.304 23.4113 122.88 21.8967Z" fill="#0C2717"/>
<path d="M125.492 17.6644L131.803 16.353L132.083 17.6992L131.792 17.7596C131.28 17.0796 130.862 16.8519 130.377 16.9526C130.076 17.0153 129.361 17.4672 129.529 18.2749L130.397 22.4537C130.5 22.9491 130.904 23.3257 131.401 23.3911L131.461 23.6818L128.715 24.2525L128.654 23.9618C129.089 23.7255 129.314 23.2406 129.215 22.7667L128.327 18.491C128.159 17.6833 127.34 17.5837 127.039 17.6464C126.543 17.7493 126.261 18.1225 126.063 18.9503L125.772 19.0107L125.492 17.6644Z" fill="#0C2717"/>
<path d="M142.827 18.382C143.109 20.4307 141.522 22.2922 139.211 22.6097C136.923 22.9243 134.914 21.5571 134.632 19.5084C134.351 17.4596 135.916 15.6011 138.205 15.2866C140.515 14.969 142.546 16.3332 142.827 18.382ZM141.552 18.5572C141.338 16.9989 140.121 15.3341 138.268 15.5887C136.372 15.8493 135.682 17.7763 135.896 19.3346C136.111 20.893 137.336 22.5344 139.188 22.2798C141.073 22.0207 141.766 20.1156 141.552 18.5572Z" fill="#0C2717"/>
<path d="M148.733 21.7113C148.722 21.7121 148.7 21.7136 148.689 21.7143C146.362 21.8735 144.429 20.3739 144.288 18.3107C144.145 16.2146 145.814 14.5017 148.184 14.3396C149.402 14.2563 150.487 14.6341 151.3 15.3944C151.359 15.4565 151.354 15.5451 151.291 15.5935L150.739 16.0722C150.677 16.1316 150.576 16.1055 150.538 16.0309C150.209 15.4029 149.333 14.5256 148.169 14.6052C146.49 14.7201 145.452 16.6324 145.561 18.2236C145.699 20.2429 147.003 21.576 148.748 21.4567C149.648 21.3951 150.28 20.966 150.645 20.5C150.97 20.0919 151.015 19.6147 150.983 19.1538C150.944 18.5721 150.439 18.1325 149.858 18.1723L149.254 18.2136L149.228 17.8295L152.103 17.6328L152.108 17.6987C152.247 19.7289 150.761 21.5505 148.733 21.7113Z" fill="#0C2717"/>
<path d="M158.895 18.2277L161.062 20.9997H158.158V20.7027C158.279 20.6587 158.389 20.6037 158.477 20.5377C158.796 20.3177 158.84 19.8777 158.609 19.5807L157.817 18.5907C157.696 18.4257 157.498 18.3377 157.289 18.3377L156.332 18.3377C156.178 18.3377 156.046 18.4587 156.046 18.6127V19.5807C156.046 20.0867 156.365 20.5377 156.838 20.7027V20.9997H154.044V20.7027C154.506 20.5377 154.825 20.0867 154.825 19.5807V15.2907C154.825 14.8067 154.517 14.3667 154.055 14.2017L154.044 14.1907V13.8937H157.674C159.313 13.8937 160.413 14.7847 160.413 16.1047C160.413 17.0507 159.841 17.7767 158.917 18.1177C158.884 18.1397 158.862 18.1837 158.895 18.2277ZM157.124 18.0517C158.004 18.0517 159.148 17.3697 159.148 16.1047C159.148 14.6197 158.004 14.1907 157.124 14.1907H156.332C156.178 14.1907 156.046 14.3117 156.046 14.4657V17.7657C156.046 17.9197 156.178 18.0517 156.332 18.0517H157.124Z" fill="#0C2717"/>
<path d="M169.029 20.9723C169.106 21.132 169.305 21.4543 169.712 21.6255L169.692 21.9218L166.959 21.7349L166.98 21.4386C167.171 21.3855 167.309 21.2957 167.415 21.2037C167.603 21.0291 167.666 20.7468 167.562 20.4971L167.507 20.339C167.488 20.2936 167.446 20.2577 167.391 20.2539L163.441 19.9837C163.397 19.9807 163.35 20.0106 163.326 20.053L163.274 20.1597C163.148 20.3936 163.172 20.693 163.356 20.893C163.459 21.0103 163.605 21.1305 163.808 21.2216L163.788 21.5179L162.043 21.3986L162.063 21.1023C162.355 21.023 162.548 20.7826 162.659 20.6138L162.748 20.4434L162.748 20.4325L165.519 15.2304C165.595 15.0813 165.606 14.9167 165.562 14.7593L165.48 14.5111L166.27 14.5651C166.511 14.5816 166.711 14.7276 166.795 14.9538L169.029 20.9723ZM167.302 19.9501C167.324 19.9516 167.336 19.9304 167.327 19.9077L165.794 15.4036C165.795 15.3816 165.762 15.3794 165.75 15.4006L163.519 19.6472C163.506 19.6684 163.516 19.6911 163.538 19.6926L167.302 19.9501Z" fill="#0C2717"/>
<path d="M177.492 15.7668C179.116 15.9899 180.084 17.0224 179.904 18.3301C179.725 19.6378 178.489 20.3896 176.887 20.1694L175.557 19.9866C175.405 19.9657 175.257 20.0676 175.237 20.2201L175.109 21.1464C175.049 21.5823 175.218 22.0497 175.582 22.3107C175.634 22.3399 175.685 22.3692 175.737 22.3985L175.696 22.6927L172.928 22.3123L172.969 22.0181C172.969 22.0181 172.969 22.0181 172.979 22.0196C173.472 21.9096 173.832 21.4706 173.901 20.9693L174.47 16.8282C174.539 16.3269 174.309 15.8179 173.865 15.5791C173.855 15.5667 173.855 15.5667 173.855 15.5667L173.896 15.2725L177.492 15.7668ZM176.381 19.8111C177.253 19.931 178.479 19.4111 178.651 18.1579C178.853 16.6867 177.778 16.1059 176.907 15.9861L176.122 15.8783C175.969 15.8573 175.822 15.9592 175.801 16.1118L175.352 19.381C175.331 19.5336 175.444 19.6823 175.596 19.7033L176.381 19.8111Z" fill="#0C2717"/>
<path d="M190.528 18.5427L190.515 18.5512C190.029 18.6188 189.638 18.9869 189.539 19.4608L188.662 23.6826C188.563 24.1565 188.775 24.65 189.192 24.9163L189.203 24.9185L189.142 25.2093L186.407 24.6408L186.467 24.3501C186.964 24.2847 187.357 23.9058 187.46 23.4104L187.863 21.4718C187.879 21.3964 187.836 21.3314 187.761 21.3157L184.034 20.5414C183.959 20.5257 183.894 20.5684 183.878 20.6438L183.471 22.6039C183.372 23.0778 183.573 23.569 183.99 23.8353L184.012 23.8398L183.951 24.1306L181.216 23.5621L181.276 23.2713C181.762 23.2038 182.166 22.8271 182.269 22.3317L183.142 18.1314C183.24 17.6575 183.028 17.1641 182.609 16.9085L182.601 16.8955L182.661 16.6047L185.397 17.1732L185.336 17.464L185.313 17.4703C184.827 17.5378 184.446 17.9082 184.348 18.3821L183.994 20.0837C183.979 20.1591 184.019 20.2349 184.095 20.2506L187.821 21.0249C187.896 21.0406 187.964 20.9872 187.979 20.9118L188.328 19.2317C188.431 18.7363 188.219 18.2428 187.792 17.9743L187.852 17.6835L190.588 18.2519L190.528 18.5427Z" fill="#0C2717"/>
<path d="M197.08 26.0377L197.366 26.1179L196.992 27.4525L191.22 25.835L191.303 25.5384L191.313 25.5414C191.816 25.4996 192.233 25.1136 192.372 24.6158L193.494 20.612C193.631 20.1248 193.475 19.5786 193.067 19.2815C193.07 19.2709 193.06 19.2679 193.06 19.2679L193.14 18.9819L198.775 20.5608L198.695 20.8468L198.404 21.8848L198.118 21.8047C197.968 20.9517 197.294 20.4656 197.254 20.4432L195.093 19.8377C195.04 19.8229 194.986 19.8534 194.971 19.9064L194.223 22.5756C194.209 22.6285 194.236 22.6934 194.289 22.7082L195.338 23.002C195.454 23.0346 196.271 23.2178 196.845 22.5561L197.131 22.6362L196.597 24.5428L196.311 24.4627C196.175 23.6822 195.448 23.3414 195.279 23.2939L194.209 22.9942C194.156 22.9793 194.102 23.0098 194.087 23.0628L193.268 25.9862C193.253 26.0392 193.283 26.0934 193.336 26.1083L195.635 26.7523C195.646 26.7552 196.504 26.71 197.08 26.0377Z" fill="#0C2717"/>
<path d="M204.203 27.0158L205.316 30.3535L202.58 29.381L202.68 29.1011C202.808 29.1002 202.93 29.0852 203.035 29.0525C203.41 28.952 203.598 28.5521 203.48 28.1949L203.066 26.9969C203.007 26.8009 202.85 26.6516 202.653 26.5817L201.751 26.2612C201.606 26.2096 201.441 26.2794 201.389 26.4245L201.065 27.3366C200.896 27.8134 201.045 28.3452 201.436 28.6591L201.336 28.9389L198.704 28.0033L198.803 27.7234C199.294 27.7227 199.745 27.4045 199.915 26.9277L201.351 22.8854C201.513 22.4294 201.371 21.9117 200.991 21.6015L200.984 21.5874L201.083 21.3076L204.504 22.5232C206.048 23.072 206.786 24.28 206.344 25.5238C206.027 26.4151 205.245 26.9077 204.26 26.9195C204.222 26.9292 204.186 26.9633 204.203 27.0158ZM202.593 26.2569C203.422 26.5516 204.729 26.2921 205.152 25.1001C205.649 23.7009 204.715 22.9135 203.886 22.6188L203.14 22.3536C202.995 22.302 202.83 22.3719 202.778 22.517L201.673 25.6264C201.621 25.7715 201.702 25.9401 201.847 25.9917L202.593 26.2569Z" fill="#0C2717"/>
<path d="M221.01 33.2379C221.135 32.997 221.281 32.858 221.449 32.8211C221.617 32.7842 221.782 32.8079 221.945 32.8922C222.114 32.9799 222.232 33.103 222.299 33.2614C222.372 33.4231 222.346 33.6245 222.221 33.8654C222.1 34.0998 221.95 34.237 221.772 34.2771C221.601 34.3206 221.431 34.2984 221.262 34.2107C221.099 34.1264 220.986 34.0017 220.923 33.8368C220.859 33.6719 220.888 33.4723 221.01 33.2379Z" fill="#0C2717"/>
<path d="M238.575 47.0305C238.599 47.0738 238.57 47.1341 238.524 47.142C237.388 47.5115 236.094 47.2848 234.988 46.5045C233.092 45.166 232.548 42.7893 233.741 41.0998C234.933 39.4104 237.355 39.127 239.26 40.4718C240.365 41.2521 241.001 42.3738 241.036 43.5833C241.037 43.6383 240.997 43.6769 240.948 43.6695L240.082 43.6372C240.027 43.6388 239.986 43.5828 240.009 43.5315C240.302 42.7153 240.075 41.3969 239.095 40.7055C237.603 39.6525 235.684 40.5596 234.777 41.8447C233.876 43.1208 233.58 45.1608 235.162 46.2772C236.24 47.0384 237.657 46.6916 238.127 46.2159C238.168 46.1773 238.241 46.1884 238.267 46.2471L238.575 47.0305Z" fill="#0C2717"/>
<path d="M244.89 50.4369L244.822 53.9547L242.569 52.1221L242.757 51.8917C242.878 51.9339 242.998 51.9607 243.108 51.965C243.495 51.9957 243.806 51.6821 243.815 51.306L243.825 50.0382C243.835 49.8338 243.737 49.6406 243.575 49.5087L242.833 48.9048C242.713 48.8076 242.535 48.8181 242.437 48.9376L241.826 49.6885C241.507 50.081 241.47 50.6321 241.733 51.0586L241.545 51.289L239.378 49.5258L239.565 49.2954C240.028 49.459 240.56 49.3104 240.879 48.9179L243.587 45.5901C243.892 45.2147 243.931 44.679 243.677 44.2594L243.675 44.244L243.862 44.0136L246.678 46.3044C247.95 47.3388 248.241 48.7241 247.408 49.7481C246.811 50.4819 245.909 50.6841 244.977 50.3655C244.937 50.3617 244.893 50.382 244.89 50.4369ZM243.628 49.1827C244.31 49.7381 245.628 49.931 246.426 48.9497C247.364 47.7978 246.747 46.7431 246.064 46.1877L245.45 45.6879C245.33 45.5907 245.152 45.6013 245.054 45.7207L242.972 48.2806C242.875 48.4 242.894 48.5857 243.013 48.6829L243.628 49.1827Z" fill="#0C2717"/>
<path d="M252.666 59.3001L252.883 59.5028L251.937 60.5157L247.556 56.4238L247.766 56.1987L247.774 56.2062C248.24 56.4004 248.787 56.2494 249.14 55.8716L251.978 52.8328C252.324 52.463 252.437 51.9065 252.211 51.455C252.219 51.447 252.211 51.4395 252.211 51.4395L252.414 51.2224L256.69 55.2167L256.488 55.4338L255.752 56.2216L255.535 56.0189C255.795 55.1929 255.419 54.4508 255.394 54.4127L253.754 52.8811C253.714 52.8435 253.652 52.8456 253.614 52.8858L251.722 54.9117C251.685 54.9519 251.679 55.0221 251.72 55.0597L252.516 55.803C252.604 55.8856 253.245 56.424 254.059 56.1005L254.276 56.3032L252.924 57.7502L252.707 57.5475C252.946 56.7922 252.457 56.1552 252.329 56.035L251.517 55.2767C251.477 55.2392 251.415 55.2413 251.377 55.2815L249.305 57.5003C249.267 57.5405 249.269 57.6027 249.31 57.6403L251.054 59.2695C251.062 59.277 251.845 59.6316 252.666 59.3001Z" fill="#0C2717"/>
<path d="M258.344 65.9753C258.292 66.1447 258.217 66.5157 258.398 66.9188L258.181 67.1215L256.311 65.1198L256.528 64.9171C256.704 65.0087 256.866 65.0376 257.006 65.0424C257.263 65.0433 257.502 64.8803 257.596 64.6267L257.664 64.4733C257.681 64.4272 257.675 64.3725 257.638 64.3323L254.935 61.4382C254.905 61.4061 254.851 61.3964 254.803 61.4104L254.693 61.4533C254.441 61.5381 254.254 61.773 254.252 62.0453C254.247 62.2008 254.272 62.3884 254.358 62.5937L254.141 62.7965L252.947 61.5182L253.164 61.3155C253.432 61.4569 253.737 61.4129 253.933 61.3651L254.114 61.3013L254.122 61.2937L259.698 59.3829C259.856 59.326 259.976 59.2134 260.051 59.0681L260.16 58.8305L260.701 59.4094C260.866 59.5862 260.912 59.8291 260.819 60.0516L258.344 65.9753ZM257.78 64.0492C257.795 64.0653 257.818 64.0583 257.827 64.0353L259.781 59.697C259.797 59.682 259.774 59.6579 259.751 59.6649L255.222 61.2457C255.198 61.2527 255.189 61.2757 255.204 61.2918L257.78 64.0492Z" fill="#0C2717"/>
<path d="M265.766 65.1001L269.834 70.1003L268.767 70.9681L268.58 70.7377C268.948 69.9702 268.958 69.4942 268.646 69.1102C268.451 68.8713 267.721 68.4444 267.081 68.965L263.77 71.6585C263.378 71.9778 263.229 72.5099 263.4 72.981L263.169 73.1684L261.399 70.9925L261.63 70.8051C262.039 71.0818 262.573 71.0585 262.949 70.753L266.336 67.9971C266.976 67.4764 266.688 66.704 266.494 66.4651C266.174 66.0725 265.713 65.9939 264.887 66.1982L264.699 65.9678L265.766 65.1001Z" fill="#0C2717"/>
<path d="M273.587 75.859C273.587 75.859 273.58 75.8501 273.565 75.8474C273.148 75.5625 272.588 75.6079 272.175 75.8997L268.778 78.2976C268.355 78.5957 268.125 79.1085 268.254 79.5964C268.26 79.6054 268.266 79.6144 268.266 79.6144L268.015 79.792L266.404 77.5094L266.655 77.3318L266.662 77.3408C267.078 77.6257 267.645 77.5892 268.067 77.2911L271.464 74.8932C271.878 74.6014 272.102 74.0797 271.973 73.5918C271.982 73.5854 271.975 73.5764 271.975 73.5764L272.218 73.4052L273.829 75.6878L273.587 75.859Z" fill="#0C2717"/>
<path d="M279.38 84.3588L280.374 85.9941L280.121 86.1485C279.766 85.8619 278.865 85.8824 278.523 85.9353L272.394 86.5472L272.183 86.1994L275.968 80.4211C276.058 80.2508 276.169 79.9257 276.091 79.5224L276.345 79.3681L277.865 81.8681L277.612 82.0225C277.6 82.0037 277.585 82 277.579 81.9906C277.153 81.6705 276.546 81.7949 276.241 82.2249L273.902 85.6176C273.787 85.7899 273.921 86.0306 274.136 86.0029L278.333 85.6007C278.857 85.5523 279.235 85.052 279.123 84.5282L279.126 84.5131L279.38 84.3588Z" fill="#0C2717"/>
<path d="M279.744 97.0865L279.881 97.3502L278.65 97.9878L275.892 92.665L276.165 92.5233L276.171 92.533C276.544 92.872 277.111 92.9131 277.57 92.6752L281.262 90.7623C281.711 90.5295 282.004 90.0431 281.943 89.5421C281.952 89.5371 281.947 89.5273 281.947 89.5273L282.211 89.3907L284.903 94.5866L284.64 94.7232L283.683 95.2192L283.546 94.9555C284.067 94.2641 283.962 93.4391 283.951 93.3949L282.919 91.4025C282.894 91.3537 282.834 91.3349 282.786 91.3602L280.324 92.6355C280.276 92.6608 280.247 92.7252 280.272 92.774L280.773 93.7409C280.829 93.8483 281.253 94.5704 282.128 94.5381L282.265 94.8018L280.506 95.7127L280.37 95.449C280.848 94.8173 280.601 94.0533 280.52 93.8971L280.009 92.9106C279.983 92.8618 279.924 92.843 279.875 92.8683L277.179 94.265C277.131 94.2903 277.112 94.3496 277.137 94.3985L278.235 96.5179C278.24 96.5276 278.859 97.1238 279.744 97.0865Z" fill="#0C2717"/>
<path d="M286.818 114.46C286.393 114.611 286.066 114.973 286.002 115.416C285.996 115.465 285.994 115.524 285.995 115.593L285.715 115.693L284.776 113.05L285.056 112.95C285.059 112.961 285.063 112.971 285.073 112.967C285.398 113.354 285.943 113.476 286.419 113.306L290.058 112.013C290.109 111.995 290.104 111.915 290.052 111.898L285.793 110.984L285.678 110.663L288.103 106.415C288.134 106.37 288.08 106.318 288.039 106.333L284.397 107.616C283.92 107.785 283.564 108.227 283.556 108.732L283.56 108.742L283.28 108.842L282.65 107.069L282.93 106.97C282.969 107.014 283.008 107.059 283.058 107.099C283.377 107.406 283.869 107.477 284.284 107.329L288.658 105.775C288.681 105.743 289.071 105.394 289.066 104.789L289.346 104.69L289.788 105.933L289.821 106.027L287.16 110.626C287.086 110.746 287.151 110.898 287.291 110.93L291.932 111.966L292.407 113.303L292.127 113.402C291.778 112.978 291.31 112.91 291.213 112.898L286.818 114.46Z" fill="#0C2717"/>
<path d="M293.911 119.695C293.911 119.695 293.908 119.684 293.895 119.677C293.598 119.269 293.055 119.124 292.567 119.261L288.563 120.382C288.066 120.522 287.677 120.928 287.635 121.431C287.638 121.441 287.641 121.452 287.641 121.452L287.344 121.535L286.59 118.845L286.887 118.762L286.89 118.772C287.187 119.18 287.733 119.336 288.231 119.196L292.235 118.074C292.722 117.938 293.108 117.521 293.15 117.018C293.16 117.015 293.158 117.005 293.158 117.005L293.444 116.925L294.197 119.615L293.911 119.695Z" fill="#0C2717"/>
<path d="M296.116 130.77C296.105 130.772 296.103 130.761 296.1 130.75C295.832 130.323 295.3 130.142 294.804 130.245L290.615 131.115C290.313 131.178 290.047 131.357 289.9 131.623C289.826 131.751 289.769 131.909 289.74 132.095L289.449 132.155L289.198 130.949C289.149 130.712 289.191 130.479 289.332 130.292L293.582 124.308C293.616 124.256 293.566 124.177 293.501 124.19L289.396 125.032C288.922 125.13 288.554 125.521 288.475 126.01L288.48 126.031L288.189 126.092L287.802 124.228L288.093 124.168C288.348 124.587 288.855 124.807 289.35 124.704L293.938 123.751C294.015 123.69 294.393 123.398 294.469 122.843L294.759 122.783L295.008 123.978C295.055 124.204 295.013 124.438 294.872 124.624L290.749 130.627C290.715 130.679 290.763 130.747 290.828 130.734L294.74 129.932C295.235 129.829 295.648 129.44 295.724 128.941C295.724 128.941 295.722 128.93 295.733 128.928L296.024 128.868L296.183 129.632L296.248 129.945L296.406 130.709L296.116 130.77Z" fill="#0C2717"/>
<path d="M297.705 136.777C298.051 139.295 296.877 141.177 294.785 141.465C292.693 141.752 291.005 140.219 290.665 137.745L290.223 134.53L290.517 134.49L290.519 134.501C290.769 134.944 291.288 135.172 291.79 135.103L295.909 134.537C296.41 134.468 296.849 134.108 296.959 133.615C296.97 133.614 296.969 133.603 296.969 133.603L297.263 133.563L297.705 136.777ZM290.956 137.683C291.2 139.459 293.053 140.415 294.611 140.201C296.169 139.986 297.655 138.594 297.408 136.796L297.265 135.761C297.252 135.663 297.167 135.608 297.079 135.62L290.955 136.462C290.857 136.475 290.8 136.549 290.814 136.648L290.956 137.683Z" fill="#0C2717"/>
<path d="M294.883 157.728C295.154 157.728 295.345 157.794 295.455 157.926C295.565 158.058 295.62 158.216 295.62 158.399C295.62 158.59 295.565 158.751 295.455 158.883C295.345 159.022 295.154 159.092 294.883 159.092C294.619 159.092 294.428 159.022 294.311 158.883C294.194 158.751 294.135 158.59 294.135 158.399C294.135 158.216 294.194 158.058 294.311 157.926C294.428 157.794 294.619 157.728 294.883 157.728Z" fill="#0C2717"/>
<path d="M291.755 177.858L291.714 178.153L290.352 177.965L291.115 172.418L291.409 172.459L291.407 172.47C291.519 172.951 291.913 173.317 292.392 173.382L296.664 173.97C297.144 174.035 297.622 173.79 297.848 173.355L297.86 173.346L298.155 173.386L297.774 176.154L297.48 176.114L297.47 176.101C297.362 175.598 296.921 175.249 296.42 175.18L292.181 174.597C291.603 174.518 291.07 174.922 290.991 175.499L290.849 176.535C290.854 176.58 291.021 177.38 291.755 177.858Z" fill="#0C2717"/>
<path d="M295.552 187.006C295.552 187.006 295.555 186.995 295.546 186.982C295.47 186.483 295.054 186.104 294.559 186.002L290.488 185.156C289.982 185.05 289.45 185.232 289.181 185.659C289.179 185.67 289.177 185.681 289.177 185.681L288.875 185.618L289.444 182.883L289.745 182.945L289.743 182.956C289.819 183.455 290.232 183.844 290.739 183.949L294.81 184.795C295.305 184.898 295.839 184.706 296.108 184.279C296.119 184.281 296.121 184.27 296.121 184.27L296.412 184.331L295.843 187.066L295.552 187.006Z" fill="#0C2717"/>
<path d="M294.325 193.365L292.746 199L292.46 198.92L292.463 198.909L291.425 198.619L291.505 198.333C292.355 198.194 292.841 197.519 292.864 197.479L293.469 195.319C293.484 195.266 293.453 195.211 293.4 195.197L290.731 194.449C290.678 194.434 290.613 194.461 290.599 194.514L290.308 195.552C290.272 195.68 290.089 196.496 290.751 197.07L290.671 197.356L288.764 196.822L288.844 196.536C289.625 196.401 289.965 195.674 290.013 195.504L290.313 194.434C290.327 194.381 290.297 194.327 290.244 194.312L287.914 193.659C287.879 193.661 287.36 193.721 287.015 194.218L286.718 194.135L287.472 191.445L287.768 191.528L287.765 191.539C287.807 192.042 288.193 192.458 288.691 192.598L292.695 193.719C293.182 193.856 293.728 193.701 294.025 193.293C294.036 193.296 294.039 193.285 294.039 193.285L294.325 193.365Z" fill="#0C2717"/>
<path d="M284.241 205.995L284.142 206.275L282.836 205.81L284.844 200.162L285.134 200.265L285.13 200.275C285.138 200.78 285.494 201.222 285.981 201.395L289.899 202.787C290.376 202.957 290.932 202.839 291.256 202.452C291.266 202.456 291.27 202.446 291.27 202.446L291.55 202.545L289.59 208.059L289.31 207.96L288.294 207.599L288.394 207.319C289.255 207.228 289.786 206.588 289.811 206.55L290.563 204.436C290.581 204.384 290.554 204.328 290.502 204.309L287.89 203.381C287.839 203.362 287.772 203.385 287.754 203.437L287.389 204.463C287.348 204.577 287.11 205.38 287.731 205.998L287.632 206.277L285.766 205.614L285.865 205.334C286.653 205.253 287.043 204.551 287.102 204.385L287.474 203.338C287.492 203.286 287.465 203.23 287.414 203.211L284.553 202.195C284.501 202.176 284.445 202.203 284.427 202.255L283.627 204.504C283.623 204.514 283.61 205.373 284.241 205.995Z" fill="#0C2717"/>
<path d="M276.873 221.889L276.737 222.153L275.516 221.52L278.092 216.549L278.355 216.686L278.35 216.696C278.294 217.187 278.543 217.663 278.973 217.885L282.801 219.869C283.231 220.092 283.763 220.021 284.122 219.687L284.137 219.682L284.401 219.818L283.115 222.299L282.852 222.163L282.847 222.148C282.913 221.637 282.615 221.16 282.166 220.928L278.367 218.959C277.849 218.691 277.212 218.893 276.943 219.411L276.463 220.339C276.452 220.383 276.342 221.193 276.873 221.889Z" fill="#0C2717"/>
<path d="M272.644 233.315C270.877 232.241 270.435 229.835 271.647 227.842C272.847 225.868 275.175 225.173 276.942 226.247C278.709 227.322 279.163 229.709 277.962 231.683C276.751 233.675 274.411 234.39 272.644 233.315ZM273.313 232.216C274.657 233.033 276.716 233.139 277.688 231.542C278.682 229.906 277.623 228.155 276.279 227.338C274.935 226.52 272.889 226.435 271.917 228.032C270.928 229.658 271.969 231.398 273.313 232.216Z" fill="#0C2717"/>
<path d="M269.856 242.861C269.847 242.855 269.854 242.846 269.86 242.837C269.989 242.349 269.758 241.836 269.345 241.544L265.849 239.077C265.598 238.899 265.285 238.826 264.99 238.901C264.846 238.934 264.692 239 264.536 239.106L264.294 238.934L265.004 237.928C265.144 237.73 265.342 237.601 265.575 237.577L272.849 236.599C272.911 236.588 272.934 236.497 272.881 236.459L269.463 234.033C269.068 233.754 268.53 233.752 268.12 234.028L268.108 234.046L267.865 233.875L268.962 232.32L269.205 232.491C269.073 232.964 269.258 233.485 269.671 233.777L273.5 236.479C273.597 236.494 274.068 236.57 274.525 236.247L274.768 236.418L274.064 237.416C273.93 237.604 273.732 237.733 273.499 237.758L266.298 238.841C266.237 238.852 266.219 238.934 266.273 238.972L269.529 241.284C269.942 241.575 270.509 241.612 270.926 241.327C270.926 241.327 270.932 241.318 270.941 241.324L271.184 241.496L270.733 242.134L270.549 242.394L270.099 243.032L269.856 242.861Z" fill="#0C2717"/>
<path d="M260.682 243.097C260.689 243.089 260.703 243.072 260.71 243.063C262.182 241.254 264.597 240.865 266.201 242.17C267.831 243.496 267.944 245.885 266.444 247.728C265.674 248.675 264.657 249.21 263.547 249.285C263.461 249.286 263.4 249.222 263.407 249.143L263.434 248.413C263.433 248.327 263.521 248.271 263.601 248.294C264.285 248.482 265.524 248.44 266.26 247.536C267.322 246.23 266.633 244.167 265.396 243.16C263.826 241.883 261.962 241.926 260.858 243.282C260.289 243.982 260.171 244.737 260.262 245.322C260.339 245.838 260.657 246.196 261.015 246.488C261.468 246.856 262.133 246.787 262.501 246.335L262.883 245.866L263.181 246.109L261.363 248.344L261.311 248.303C259.733 247.018 259.415 244.69 260.682 243.097Z" fill="#0C2717"/>
<path d="M248.106 258.394L247.889 258.597L246.95 257.592L251.042 253.771L251.245 253.988L251.237 253.995C251.019 254.439 251.094 254.971 251.425 255.325L254.368 258.476C254.698 258.83 255.224 258.941 255.674 258.746L255.689 258.747L255.892 258.964L253.85 260.871L253.648 260.654L253.648 260.638C253.882 260.179 253.76 259.631 253.415 259.261L250.494 256.133C250.096 255.707 249.428 255.685 249.002 256.083L248.238 256.796C248.213 256.834 247.838 257.56 248.106 258.394Z" fill="#0C2717"/>
<path d="M240.06 265.127L239.829 265.315L238.955 264.24L243.605 260.456L243.799 260.695L243.791 260.702C243.535 261.137 243.61 261.7 243.936 262.101L246.56 265.327C246.88 265.719 247.416 265.907 247.894 265.745C247.9 265.754 247.909 265.747 247.909 265.747L248.096 265.977L243.557 269.67L243.37 269.44L242.689 268.604L242.92 268.416C243.703 268.786 244.489 268.515 244.53 268.496L246.271 267.08C246.313 267.045 246.32 266.983 246.285 266.94L244.536 264.79C244.501 264.747 244.432 264.732 244.389 264.767L243.545 265.454C243.451 265.531 242.83 266.093 243.04 266.943L242.809 267.13L241.56 265.594L241.79 265.407C242.506 265.746 243.204 265.349 243.34 265.238L244.202 264.537C244.245 264.502 244.251 264.44 244.216 264.398L242.3 262.042C242.266 262 242.204 261.993 242.161 262.028L240.309 263.535C240.301 263.541 239.843 264.269 240.06 265.127Z" fill="#0C2717"/>
<path d="M232.673 269.844C232.513 269.769 232.155 269.644 231.731 269.768L231.56 269.526L233.798 267.946L233.969 268.189C233.854 268.35 233.804 268.507 233.78 268.645C233.744 268.9 233.873 269.159 234.111 269.287L234.254 269.374C234.297 269.398 234.352 269.399 234.397 269.367L237.632 267.084C237.668 267.058 237.685 267.006 237.678 266.958L237.65 266.842C237.601 266.581 237.393 266.364 237.124 266.325C236.971 266.299 236.781 266.298 236.566 266.355L236.395 266.113L237.824 265.104L237.995 265.347C237.818 265.593 237.821 265.901 237.841 266.102L237.88 266.29L237.886 266.299L239.02 272.083C239.055 272.246 239.15 272.381 239.284 272.475L239.504 272.616L238.857 273.073C238.659 273.212 238.413 273.225 238.205 273.102L232.673 269.844ZM234.658 269.547C234.64 269.559 234.644 269.584 234.666 269.595L238.698 272.122C238.71 272.14 238.737 272.121 238.733 272.096L237.784 267.394C237.78 267.37 237.759 267.358 237.741 267.371L234.658 269.547Z" fill="#0C2717"/>
<path d="M227.213 275.476L223.921 274.234L226.403 272.725L226.557 272.979C226.476 273.079 226.411 273.183 226.37 273.285C226.212 273.639 226.403 274.038 226.755 274.172L227.946 274.606C228.135 274.684 228.35 274.656 228.528 274.548L229.346 274.05C229.478 273.97 229.527 273.798 229.447 273.667L228.944 272.84C228.682 272.408 228.175 272.188 227.685 272.293L227.53 272.039L229.918 270.587L230.072 270.841C229.763 271.222 229.725 271.773 229.988 272.205L232.217 275.871C232.468 276.284 232.96 276.5 233.44 276.401L233.456 276.405L233.61 276.659L230.508 278.545C229.108 279.396 227.705 279.207 227.019 278.079C226.528 277.271 226.639 276.353 227.252 275.582C227.268 275.546 227.264 275.497 227.213 275.476ZM228.818 274.706C228.066 275.164 227.443 276.341 228.1 277.422C228.872 278.69 230.072 278.463 230.824 278.005L231.501 277.594C231.632 277.514 231.682 277.342 231.602 277.21L229.888 274.391C229.808 274.259 229.626 274.215 229.495 274.295L228.818 274.706Z" fill="#0C2717"/>
<path d="M217.53 285.296C217.525 285.286 217.535 285.281 217.545 285.276C217.884 284.902 217.915 284.341 217.682 283.891L215.713 280.092C215.572 279.819 215.328 279.611 215.031 279.541C214.888 279.504 214.721 279.492 214.534 279.514L214.397 279.25L215.491 278.683C215.706 278.572 215.942 278.549 216.16 278.634L223.069 281.113C223.128 281.132 223.191 281.062 223.16 281.003L221.242 277.277C221.019 276.847 220.543 276.598 220.052 276.655L220.033 276.665L219.896 276.401L221.586 275.526L221.722 275.789C221.388 276.148 221.312 276.695 221.545 277.145L223.701 281.305C223.781 281.363 224.164 281.648 224.718 281.571L224.855 281.835L223.771 282.397C223.566 282.503 223.33 282.526 223.112 282.441L216.22 280.09C216.161 280.071 216.108 280.136 216.138 280.194L217.965 283.745C218.198 284.194 218.684 284.487 219.185 284.426C219.185 284.426 219.195 284.421 219.2 284.43L219.337 284.694L218.643 285.053L218.36 285.2L217.667 285.56L217.53 285.296Z" fill="#0C2717"/>
<path d="M207.717 283.617L207.445 283.736L206.892 282.464L212.391 280.076L212.514 280.358L212.504 280.363C212.14 280.713 212.06 281.275 212.266 281.749L213.923 285.563C214.125 286.027 214.59 286.353 215.094 286.326C215.098 286.336 215.108 286.331 215.108 286.331L215.227 286.604L209.859 288.935L209.741 288.663L209.311 287.674L209.584 287.556C210.238 288.123 211.068 288.074 211.113 288.067L213.171 287.173C213.222 287.151 213.244 287.093 213.222 287.043L212.118 284.5C212.096 284.45 212.034 284.417 211.983 284.439L210.985 284.872C210.874 284.921 210.124 285.294 210.097 286.169L209.824 286.288L209.036 284.472L209.308 284.353C209.906 284.873 210.685 284.679 210.846 284.609L211.865 284.166C211.916 284.144 211.938 284.086 211.916 284.036L210.707 281.251C210.685 281.201 210.627 281.178 210.577 281.2L208.387 282.151C208.377 282.155 207.74 282.732 207.717 283.617Z" fill="#0C2717"/>
<path d="M201.575 287.354L198.605 285.467L201.341 284.495L201.44 284.775C201.341 284.857 201.256 284.945 201.195 285.037C200.968 285.351 201.074 285.78 201.391 285.983L202.469 286.65C202.638 286.765 202.854 286.782 203.051 286.712L203.953 286.392C204.098 286.34 204.182 286.182 204.13 286.037L203.806 285.125C203.637 284.648 203.185 284.33 202.684 284.333L202.585 284.053L205.217 283.117L205.317 283.397C204.937 283.707 204.787 284.239 204.957 284.716L206.393 288.758C206.555 289.214 206.993 289.525 207.483 289.526L207.498 289.533L207.597 289.813L204.177 291.028C202.632 291.577 201.297 291.106 200.855 289.862C200.538 288.971 200.834 288.095 201.591 287.465C201.615 287.433 201.621 287.384 201.575 287.354ZM203.302 286.926C202.473 287.221 201.624 288.247 202.047 289.439C202.545 290.838 203.766 290.859 204.595 290.564L205.342 290.299C205.487 290.248 205.571 290.089 205.519 289.944L204.414 286.835C204.362 286.69 204.194 286.609 204.049 286.661L203.302 286.926Z" fill="#0C2717"/>
</svg>
