<svg width="110" height="110" viewBox="0 0 110 110" fill="none" xmlns="http://www.w3.org/2000/svg">
<g clip-path="url(#clip0_90_305)">
<path d="M55 9.91375C69.685 9.91375 71.4267 9.96875 77.2292 10.2346C92.1342 10.9129 99.0963 17.985 99.7746 32.78C100.04 38.5779 100.091 40.3196 100.091 55.0046C100.091 69.6942 100.036 71.4313 99.7746 77.2292C99.0917 92.0104 92.1479 99.0963 77.2292 99.7746C71.4267 100.04 69.6942 100.095 55 100.095C40.315 100.095 38.5733 100.04 32.7754 99.7746C17.8338 99.0917 10.9083 91.9875 10.23 77.2246C9.96417 71.4267 9.90917 69.6896 9.90917 55C9.90917 40.315 9.96875 38.5779 10.23 32.7754C10.9129 17.985 17.8567 10.9083 32.7754 10.23C38.5779 9.96875 40.315 9.91375 55 9.91375ZM55 0C40.0629 0 38.1929 0.0641667 32.3263 0.33C12.3521 1.24667 1.25125 12.3292 0.334583 32.3217C0.0641667 38.1929 0 40.0629 0 55C0 69.9371 0.0641667 71.8117 0.33 77.6783C1.24667 97.6525 12.3292 108.753 32.3217 109.67C38.1929 109.936 40.0629 110 55 110C69.9371 110 71.8117 109.936 77.6783 109.67C97.6342 108.753 108.763 97.6708 109.665 77.6783C109.936 71.8117 110 69.9371 110 55C110 40.0629 109.936 38.1929 109.67 32.3263C108.772 12.3704 97.6754 1.25125 77.6829 0.334583C71.8117 0.0641667 69.9371 0 55 0ZM55 26.7575C39.4029 26.7575 26.7575 39.4029 26.7575 55C26.7575 70.5971 39.4029 83.2471 55 83.2471C70.5971 83.2471 83.2425 70.6017 83.2425 55C83.2425 39.4029 70.5971 26.7575 55 26.7575ZM55 73.3333C44.8754 73.3333 36.6667 65.1292 36.6667 55C36.6667 44.8754 44.8754 36.6667 55 36.6667C65.1246 36.6667 73.3333 44.8754 73.3333 55C73.3333 65.1292 65.1246 73.3333 55 73.3333ZM84.3608 19.0438C80.7125 19.0438 77.7563 22 77.7563 25.6437C77.7563 29.2875 80.7125 32.2438 84.3608 32.2438C88.0046 32.2438 90.9563 29.2875 90.9563 25.6437C90.9563 22 88.0046 19.0438 84.3608 19.0438Z" fill="#F7FDF9"/>
</g>
<defs>
<clipPath id="clip0_90_305">
<rect width="110" height="110" fill="white"/>
</clipPath>
</defs>
</svg>
