<svg width="119" height="17" viewBox="0 0 119 17" fill="none" xmlns="http://www.w3.org/2000/svg">
<path d="M9.6965 10.582L13.932 16H8.256V15.4195C8.4925 15.3335 8.7075 15.226 8.8795 15.097C9.503 14.667 9.589 13.807 9.1375 13.2265L7.5895 11.2915C7.353 10.969 6.966 10.797 6.5575 10.797H4.687C4.386 10.797 4.128 11.0335 4.128 11.3345V13.2265C4.128 14.2155 4.7515 15.097 5.676 15.4195V16H0.215V15.4195C1.118 15.097 1.7415 14.2155 1.7415 13.2265V4.8415C1.7415 3.8955 1.1395 3.0355 0.2365 2.713L0.215 2.6915V2.111H7.31C10.5135 2.111 12.6635 3.8525 12.6635 6.4325C12.6635 8.2815 11.5455 9.7005 9.7395 10.367C9.675 10.41 9.632 10.496 9.6965 10.582ZM6.235 10.238C7.955 10.238 10.191 8.905 10.191 6.4325C10.191 3.53 7.955 2.6915 6.235 2.6915H4.687C4.386 2.6915 4.128 2.928 4.128 3.229V9.679C4.128 9.98 4.386 10.238 4.687 10.238H6.235ZM17.2496 11.958C17.0131 12.001 16.8626 12.2375 16.9271 12.4525C17.2066 13.4415 18.1526 15.785 20.7326 15.527C21.7646 15.4195 23.2051 14.452 23.8716 13.4415C23.9361 13.334 24.1081 13.3125 24.1941 13.4415L24.9251 14.538C24.9896 14.624 24.9681 14.753 24.8821 14.8175C23.6566 15.613 22.0656 16.129 20.6466 16.129C17.2281 16.129 14.6481 13.8715 14.6481 10.883C14.6481 7.9375 17.1421 5.637 20.3456 5.637C22.9686 5.637 24.9681 7.5935 25.3766 9.894C25.4626 10.3885 25.0971 10.84 24.6241 10.9045L17.2496 11.958ZM16.8196 10.9475C16.8196 11.184 17.0346 11.356 17.2711 11.3345L22.7321 10.5175C23.0116 10.4745 23.2051 10.2165 23.1621 9.937C22.9471 8.776 22.2376 6.0455 20.0016 6.0455C17.5076 6.0455 16.8411 9.292 16.8196 10.9475ZM38.3249 15.2475H38.3464V15.8495H36.3254C35.4439 15.8495 34.7344 15.14 34.7344 14.2585V14.194C34.7344 14.194 33.6164 16.129 30.7139 16.129C28.5209 16.129 27.1019 15.011 27.1019 13.3125C27.1019 11.614 28.5854 10.6035 31.1009 10.6035H34.4764V9.0555C34.4764 7.5935 33.5519 6.0455 31.9179 6.0455C30.4129 6.0455 29.7034 7.83 30.1979 9.292L29.7679 9.7005L27.8974 7.6795C27.7684 7.5505 27.7899 7.357 27.8974 7.228C29.1014 6.1745 30.4989 5.637 32.2189 5.637C35.1429 5.637 36.8199 7.185 36.8199 9.851V12.947C36.8199 13.9575 37.3789 14.9035 38.3249 15.2475ZM34.4764 12.775V11.1195H31.5309C29.6389 11.1195 29.4454 12.7535 29.4454 13.205C29.4454 14.1725 30.3054 15.14 31.5739 15.14C33.1219 15.14 34.4764 14.2585 34.4764 12.775ZM48.3543 12.9685L49.6873 13.893C49.7303 13.936 49.7518 14.022 49.7088 14.0865C48.7198 15.3765 47.1288 16.129 45.2798 16.129C41.9903 16.129 39.4318 13.807 39.4318 10.8615C39.4318 7.9375 41.9903 5.637 45.2798 5.637C47.1718 5.637 48.7198 6.3465 49.7088 7.658C49.7518 7.7225 49.7518 7.8085 49.6873 7.8515L48.3543 8.7975C48.2898 8.8405 48.2038 8.819 48.1823 8.7545C47.7093 7.701 46.8278 6.153 45.3228 6.153C42.8288 6.153 41.7968 8.8835 41.7968 10.8615C41.7968 12.8395 42.8073 15.613 45.3228 15.613C46.8708 15.613 47.8168 13.936 48.1823 13.0115C48.2038 12.947 48.2898 12.9255 48.3543 12.9685ZM64.2578 15.226C64.2578 15.226 64.2793 15.2475 64.3008 15.2475V15.8495H62.7313H60.4093H58.8398V15.2475C58.8613 15.2475 58.8828 15.226 58.8828 15.226C59.8288 14.882 60.4093 13.9145 60.4093 12.904V9.3565C60.4093 7.8515 59.3343 6.798 57.7863 6.798C56.2383 6.798 55.1203 7.873 55.1203 9.3565V12.904C55.1203 13.9145 55.7008 14.882 56.6468 15.226C56.6683 15.226 56.6683 15.2475 56.6898 15.2475V15.8495H55.1203H55.0343H51.2073V15.2475C51.2288 15.2475 51.2503 15.226 51.2503 15.226C52.1963 14.8605 52.7768 13.9145 52.7768 12.904L52.7983 4.4115V3.874C52.7983 2.8205 51.9168 1.939 50.8633 1.939V1.337L55.1203 0.305V1.595V7.3785L55.8513 6.6905C56.6468 5.9595 57.8078 5.594 59.0763 5.6585C61.1403 5.766 62.7313 7.5075 62.7313 9.5715V12.904C62.7313 13.9145 63.3118 14.882 64.2578 15.226ZM89.8771 9.0555C89.8771 13.0975 86.3081 16.2795 81.7501 16.2795C77.2351 16.2795 73.7091 13.0975 73.7091 9.0555C73.7091 5.0135 77.2351 1.8315 81.7501 1.8315C86.3081 1.8315 89.8771 5.0135 89.8771 9.0555ZM87.3616 9.0555C87.3616 5.981 85.4481 2.4335 81.7931 2.4335C78.0521 2.4335 76.2031 5.981 76.2031 9.0555C76.2031 12.13 78.1381 15.6345 81.7931 15.6345C85.5126 15.6345 87.3616 12.13 87.3616 9.0555ZM104.714 15.2475V15.8495H102.349C101.446 15.8495 100.694 15.1185 100.694 14.2155C100.629 14.28 99.4254 15.9785 96.9314 15.9785C94.5449 15.9785 92.9754 14.1295 92.9754 12.345V8.5825C92.9754 7.615 92.3519 6.7335 91.4274 6.3895H91.4059V5.7875L95.2974 5.766V12.431C95.2974 13.9145 96.5014 15.183 97.9849 15.097C99.4469 15.011 100.436 13.721 100.436 12.259V5.766L104.349 5.7875V6.3895C103.403 6.7335 102.779 7.6365 102.779 8.647V13.3125C102.779 14.366 103.639 15.2475 104.714 15.2475ZM113.398 13.4845H113.979V15.742C113.979 15.785 113.957 15.828 113.914 15.828C113.312 15.9355 112.71 16 112.13 16C109.507 16 108.066 14.9465 107.808 12.904C107.787 12.7535 107.765 8.045 107.765 6.712C107.765 6.5185 107.615 6.368 107.421 6.368H105.916V5.766H107.765V4.605L109.464 2.67H110.087V5.422C110.087 5.6155 110.238 5.766 110.431 5.766H113.14V6.368H110.431C110.238 6.368 110.087 6.54 110.087 6.712V9.335L110.109 13.592C110.109 13.9575 110.453 15.226 111.42 15.226C112.044 15.226 112.925 14.4735 113.398 13.4845ZM118.23 13.3555C118.338 13.4845 118.424 13.592 118.488 13.7425C118.531 13.85 118.574 13.979 118.574 14.151C118.574 14.3445 118.553 14.495 118.488 14.624C118.445 14.753 118.359 14.882 118.252 14.9895C118.123 15.097 117.994 15.183 117.865 15.226C117.714 15.2905 117.564 15.312 117.392 15.312C117.22 15.312 117.069 15.2905 116.94 15.226C116.79 15.183 116.661 15.097 116.553 15.011C116.424 14.9035 116.338 14.7745 116.274 14.6455C116.231 14.5165 116.188 14.366 116.188 14.2155C116.188 14.065 116.231 13.9145 116.274 13.7855C116.338 13.635 116.424 13.506 116.532 13.3985C116.639 13.2695 116.768 13.162 116.919 13.119C117.069 13.0545 117.22 13.033 117.392 13.033C117.542 13.033 117.693 13.0545 117.843 13.119C117.972 13.1835 118.101 13.248 118.23 13.3555ZM118.639 2.541C118.682 2.7345 118.725 2.9495 118.725 3.1645V3.3795C118.725 3.5515 118.725 3.745 118.725 3.917C118.703 4.089 118.703 4.261 118.682 4.4545C118.66 4.6265 118.639 4.7985 118.617 4.9705C118.574 5.164 118.553 5.336 118.531 5.508L117.585 11.915H117.026L116.274 5.465C116.231 5.3145 116.209 5.1425 116.166 4.9705L116.102 4.4545L116.059 3.917C116.059 3.745 116.059 3.5515 116.059 3.3795V3.1645C116.059 2.9495 116.08 2.7345 116.123 2.541C116.166 2.3475 116.231 2.154 116.317 1.982C116.424 1.81 116.553 1.681 116.747 1.5735C116.919 1.4875 117.134 1.4445 117.392 1.4445C117.65 1.4445 117.865 1.4875 118.058 1.5735C118.23 1.6595 118.359 1.81 118.445 1.982C118.531 2.154 118.596 2.3475 118.639 2.541Z" fill="#F7FDF9" fill-opacity="0.4"/>
</svg>
