<svg width="13" height="13" viewBox="0 0 13 13" fill="none" xmlns="http://www.w3.org/2000/svg">
<path d="M2.92824 9.13992L2.4975 9.57065C2.38451 9.68432 2.32109 9.83808 2.32109 9.99835C2.32109 10.1586 2.38451 10.3124 2.4975 10.4261C2.61117 10.539 2.76493 10.6025 2.9252 10.6025C3.08548 10.6025 3.23924 10.539 3.3529 10.4261L3.78364 9.99532C3.88303 9.87926 3.93496 9.72997 3.92906 9.57729C3.92316 9.42461 3.85987 9.27977 3.75183 9.17173C3.64378 9.06368 3.49895 9.00039 3.34626 8.99449C3.19358 8.98859 3.04429 9.04053 2.92824 9.13992ZM2.53997 6.10658C2.53997 5.94569 2.47605 5.79138 2.36228 5.67761C2.24851 5.56383 2.0942 5.49992 1.9333 5.49992H1.32664C1.16574 5.49992 1.01143 5.56383 0.897659 5.67761C0.783887 5.79138 0.719971 5.94569 0.719971 6.10658C0.719971 6.26748 0.783887 6.42179 0.897659 6.53556C1.01143 6.64933 1.16574 6.71325 1.32664 6.71325H1.9333C2.0942 6.71325 2.24851 6.64933 2.36228 6.53556C2.47605 6.42179 2.53997 6.26748 2.53997 6.10658ZM6.78664 1.85992C6.94754 1.85992 7.10184 1.796 7.21561 1.68223C7.32939 1.56846 7.3933 1.41415 7.3933 1.25325V0.646584C7.3933 0.485686 7.32939 0.331378 7.21561 0.217606C7.10184 0.103833 6.94754 0.039917 6.78664 0.039917C6.62574 0.039917 6.47143 0.103833 6.35766 0.217606C6.24389 0.331378 6.17997 0.485686 6.17997 0.646584V1.25325C6.17997 1.41415 6.24389 1.56846 6.35766 1.68223C6.47143 1.796 6.62574 1.85992 6.78664 1.85992ZM2.92824 3.10358C3.04124 3.21566 3.19375 3.27885 3.3529 3.27952C3.43275 3.27998 3.51189 3.26468 3.58581 3.23448C3.65972 3.20429 3.72695 3.15981 3.78364 3.10358C3.89663 2.98992 3.96005 2.83616 3.96005 2.67588C3.96005 2.51561 3.89663 2.36185 3.78364 2.24818L3.3529 1.81745C3.23685 1.71806 3.08756 1.66613 2.93488 1.67203C2.78219 1.67792 2.63736 1.74122 2.52932 1.84926C2.42127 1.95731 2.35798 2.10214 2.35208 2.25482C2.34618 2.40751 2.39812 2.55679 2.4975 2.67285L2.92824 3.10358ZM10.2082 3.27952C10.3674 3.27885 10.5199 3.21566 10.6329 3.10358L11.0636 2.67285C11.1271 2.61846 11.1787 2.55154 11.2151 2.47627C11.2516 2.40101 11.272 2.31903 11.2752 2.23548C11.2785 2.15193 11.2644 2.06861 11.2339 1.99076C11.2034 1.91291 11.1571 1.8422 11.098 1.78308C11.0389 1.72396 10.9682 1.6777 10.8903 1.6472C10.8125 1.6167 10.7292 1.60262 10.6456 1.60585C10.5621 1.60907 10.4801 1.62954 10.4048 1.66595C10.3295 1.70236 10.2626 1.75394 10.2082 1.81745L9.81997 2.24818C9.70698 2.36185 9.64356 2.51561 9.64356 2.67588C9.64356 2.83616 9.70698 2.98992 9.81997 3.10358C9.92692 3.20997 10.0697 3.27269 10.2204 3.27952H10.2082ZM12.2466 5.49992H11.64C11.4791 5.49992 11.3248 5.56383 11.211 5.67761C11.0972 5.79138 11.0333 5.94569 11.0333 6.10658C11.0333 6.26748 11.0972 6.42179 11.211 6.53556C11.3248 6.64933 11.4791 6.71325 11.64 6.71325H12.2466C12.4075 6.71325 12.5618 6.64933 12.6756 6.53556C12.7894 6.42179 12.8533 6.26748 12.8533 6.10658C12.8533 5.94569 12.7894 5.79138 12.6756 5.67761C12.5618 5.56383 12.4075 5.49992 12.2466 5.49992ZM6.78664 10.3532C6.62574 10.3532 6.47143 10.4172 6.35766 10.5309C6.24389 10.6447 6.17997 10.799 6.17997 10.9599V11.5666C6.17997 11.7275 6.24389 11.8818 6.35766 11.9956C6.47143 12.1093 6.62574 12.1732 6.78664 12.1732C6.94754 12.1732 7.10184 12.1093 7.21561 11.9956C7.32939 11.8818 7.3933 11.7275 7.3933 11.5666V10.9599C7.3933 10.799 7.32939 10.6447 7.21561 10.5309C7.10184 10.4172 6.94754 10.3532 6.78664 10.3532ZM10.645 9.13992C10.5298 9.07581 10.3968 9.051 10.2661 9.06926C10.1355 9.08752 10.0144 9.14785 9.92116 9.24111C9.8279 9.33437 9.76758 9.45548 9.74932 9.5861C9.73106 9.71671 9.75586 9.84972 9.81997 9.96498L10.2507 10.3957C10.3644 10.5087 10.5181 10.5721 10.6784 10.5721C10.8387 10.5721 10.9924 10.5087 11.1061 10.3957C11.2191 10.282 11.2825 10.1283 11.2825 9.96802C11.2825 9.80774 11.2191 9.65398 11.1061 9.54032L10.645 9.13992ZM6.78664 2.76992C6.12671 2.76992 5.4816 2.96561 4.93288 3.33225C4.38417 3.69888 3.9565 4.22 3.70396 4.8297C3.45141 5.43939 3.38534 6.11028 3.51408 6.75753C3.64283 7.40478 3.96062 7.99932 4.42726 8.46596C4.8939 8.9326 5.48844 9.25039 6.13569 9.37914C6.78294 9.50788 7.45383 9.4418 8.06352 9.18926C8.67322 8.93672 9.19434 8.50905 9.56097 7.96034C9.92761 7.41162 10.1233 6.76651 10.1233 6.10658C10.1217 5.22214 9.76964 4.37437 9.14425 3.74898C8.51885 3.12358 7.67108 2.77152 6.78664 2.76992ZM6.78664 8.22992C6.36668 8.22992 5.95616 8.10538 5.60698 7.87207C5.2578 7.63876 4.98564 7.30714 4.82493 6.91915C4.66422 6.53116 4.62217 6.10423 4.7041 5.69234C4.78603 5.28046 4.98826 4.90211 5.28521 4.60516C5.58217 4.30821 5.96051 4.10598 6.3724 4.02405C6.78428 3.94212 7.21121 3.98417 7.5992 4.14488C7.98719 4.30559 8.31881 4.57774 8.55212 4.92692C8.78544 5.2761 8.90997 5.68663 8.90997 6.10658C8.90997 6.66973 8.68626 7.2098 8.28806 7.60801C7.88986 8.00621 7.34978 8.22992 6.78664 8.22992Z" fill="#0C2717"/>
</svg>
