<svg width="19" height="15" viewBox="0 0 19 15" fill="none" xmlns="http://www.w3.org/2000/svg">
<path d="M15.625 2.6875H14.505L14.225 1.8125C14.0435 1.29908 13.7068 0.854816 13.2615 0.541266C12.8163 0.227716 12.2846 0.0604011 11.74 0.0625004H7.26C6.7101 0.0635292 6.17442 0.237223 5.72855 0.559068C5.28267 0.880912 4.94913 1.33465 4.775 1.85625L4.495 2.73125H3.375C2.67881 2.73125 2.01113 3.00781 1.51884 3.5001C1.02656 3.99238 0.75 4.66006 0.75 5.35625V12.3562C0.75 13.0524 1.02656 13.7201 1.51884 14.2124C2.01113 14.7047 2.67881 14.9813 3.375 14.9813H15.625C16.3212 14.9813 16.9889 14.7047 17.4812 14.2124C17.9734 13.7201 18.25 13.0524 18.25 12.3562V5.35625C18.2558 5.00787 18.1922 4.66181 18.0629 4.33827C17.9336 4.01472 17.7411 3.72015 17.4968 3.47175C17.2525 3.22334 16.9611 3.02606 16.6398 2.89142C16.3184 2.75677 15.9734 2.68745 15.625 2.6875ZM16.5 12.3125C16.5 12.5446 16.4078 12.7671 16.2437 12.9312C16.0796 13.0953 15.8571 13.1875 15.625 13.1875H3.375C3.14294 13.1875 2.92038 13.0953 2.75628 12.9312C2.59219 12.7671 2.5 12.5446 2.5 12.3125V5.3125C2.5 5.08044 2.59219 4.85788 2.75628 4.69378C2.92038 4.52969 3.14294 4.4375 3.375 4.4375H5.125C5.31581 4.44746 5.50463 4.39469 5.66263 4.28725C5.82063 4.17981 5.93912 4.02361 6 3.8425L6.4725 2.4075C6.5312 2.23371 6.64304 2.08276 6.7922 1.97599C6.94136 1.86922 7.12031 1.81203 7.30375 1.8125H11.7837C11.9672 1.81203 12.1461 1.86922 12.2953 1.97599C12.4445 2.08276 12.5563 2.23371 12.615 2.4075L13.0875 3.8425C13.1436 4.0094 13.2488 4.15548 13.3893 4.26163C13.5298 4.36779 13.6991 4.42908 13.875 4.4375H15.625C15.8571 4.4375 16.0796 4.52969 16.2437 4.69378C16.4078 4.85788 16.5 5.08044 16.5 5.3125V12.3125ZM9.5 4.4375C8.80777 4.4375 8.13108 4.64277 7.5555 5.02736C6.97993 5.41194 6.53133 5.95857 6.26642 6.59811C6.00151 7.23765 5.9322 7.94138 6.06725 8.62032C6.2023 9.29925 6.53564 9.92289 7.02513 10.4124C7.51461 10.9019 8.13825 11.2352 8.81718 11.3702C9.49612 11.5053 10.1999 11.436 10.8394 11.1711C11.4789 10.9062 12.0256 10.4576 12.4101 9.882C12.7947 9.30642 13 8.62973 13 7.9375C13 7.00924 12.6313 6.119 11.9749 5.46263C11.3185 4.80625 10.4283 4.4375 9.5 4.4375ZM9.5 9.6875C9.15388 9.6875 8.81554 9.58486 8.52775 9.39257C8.23997 9.20028 8.01566 8.92697 7.88321 8.6072C7.75076 8.28743 7.7161 7.93556 7.78363 7.59609C7.85115 7.25663 8.01782 6.94481 8.26256 6.70006C8.50731 6.45532 8.81913 6.28865 9.15859 6.22113C9.49806 6.1536 9.84993 6.18826 10.1697 6.32071C10.4895 6.45316 10.7628 6.67747 10.9551 6.96525C11.1474 7.25304 11.25 7.59138 11.25 7.9375C11.25 8.40163 11.0656 8.84675 10.7374 9.17494C10.4092 9.50313 9.96413 9.6875 9.5 9.6875Z" fill="#FFB247"/>
</svg>
