<svg width="312" height="312" viewBox="0 0 312 312" fill="none" xmlns="http://www.w3.org/2000/svg">
<path d="M154.878 295.322C154.86 295.593 154.781 295.778 154.642 295.879C154.502 295.98 154.341 296.024 154.158 296.011C153.968 295.998 153.811 295.933 153.687 295.814C153.555 295.695 153.499 295.5 153.517 295.229C153.535 294.965 153.618 294.78 153.765 294.672C153.905 294.564 154.07 294.517 154.26 294.53C154.443 294.542 154.596 294.612 154.72 294.738C154.843 294.864 154.896 295.059 154.878 295.322Z" fill="#F7FDF9"/>
<path d="M116.173 287.398L115.887 287.318L116.261 285.983L122.034 287.601L121.951 287.897L121.94 287.894C121.437 287.936 121.021 288.322 120.881 288.82L119.759 292.824C119.623 293.311 119.778 293.857 120.186 294.154C120.183 294.165 120.194 294.168 120.194 294.168L120.114 294.454L114.479 292.875L114.559 292.589L114.85 291.551L115.136 291.631C115.285 292.484 115.96 292.97 115.999 292.992L118.16 293.598C118.213 293.613 118.267 293.582 118.282 293.529L119.03 290.86C119.045 290.807 119.017 290.742 118.964 290.727L117.916 290.434C117.799 290.401 116.982 290.218 116.409 290.879L116.123 290.799L116.657 288.893L116.943 288.973C117.078 289.753 117.805 290.094 117.975 290.142L119.044 290.441C119.097 290.456 119.152 290.426 119.166 290.373L119.986 287.449C120 287.396 119.97 287.342 119.917 287.327L117.618 286.683C117.608 286.68 116.75 286.726 116.173 287.398Z" fill="#F7FDF9"/>
<path d="M107.551 283.902C107.489 283.682 107.334 283.265 107.049 283.082L107.148 282.802L109.916 283.785L109.816 284.065C109.277 284.072 108.884 284.586 109.027 285.104L109.53 286.94C109.556 287.031 109.66 287.068 109.727 287.01L111.261 285.945C111.681 285.65 111.784 285.033 111.408 284.678C111.374 284.642 111.336 284.617 111.298 284.592L111.398 284.312L113.45 285.041L113.351 285.321C112.875 285.281 112.303 285.708 112.303 285.708L109.921 287.383C109.79 287.488 109.721 287.65 109.767 287.818L110.515 290.606C110.587 290.83 110.74 291.223 111.014 291.402L110.915 291.682L108.148 290.698L108.247 290.418C108.257 290.422 108.261 290.412 108.271 290.415C108.811 290.409 109.19 289.866 109.058 289.352L108.813 288.366C108.797 288.279 108.694 288.242 108.616 288.296L107.773 288.896C107.277 289.303 107.264 289.801 107.64 290.156C107.674 290.191 107.712 290.217 107.75 290.242L107.65 290.522L105.598 289.792L105.697 289.512C106.184 289.557 106.742 289.136 106.742 289.136L108.421 287.959C108.548 287.864 108.603 287.708 108.561 287.565L107.597 284.035C107.597 284.035 107.59 284.021 107.584 284.007L107.551 283.902Z" fill="#F7FDF9"/>
<path d="M98.5072 286.813C97.0039 286.16 96.35 284.904 96.8759 283.693C97.4018 282.483 98.7946 282.092 100.278 282.737L101.509 283.271C101.65 283.333 101.819 283.274 101.881 283.133L102.253 282.275C102.428 281.872 102.392 281.376 102.112 281.027C102.07 280.985 102.028 280.942 101.987 280.9L102.105 280.628L104.668 281.741L104.549 282.014C104.549 282.014 104.549 282.014 104.539 282.009C104.035 281.982 103.57 282.308 103.369 282.772L101.703 286.606C101.502 287.07 101.586 287.622 101.949 287.972C101.955 287.986 101.955 287.986 101.955 287.986L101.837 288.259L98.5072 286.813ZM100.668 283.218C99.8611 282.867 98.5401 283.037 98.0361 284.197C97.4445 285.559 98.3229 286.409 99.13 286.759L99.8565 287.075C99.9977 287.136 100.167 287.078 100.228 286.937L101.543 283.91C101.604 283.769 101.536 283.595 101.395 283.534L100.668 283.218Z" fill="#F7FDF9"/>
<path d="M91.455 276.964L91.1913 276.828L91.8239 275.607L96.7952 278.183L96.6585 278.446L96.6488 278.441C96.1576 278.385 95.6817 278.634 95.459 279.064L93.4752 282.892C93.2526 283.322 93.3236 283.854 93.6579 284.214L93.6626 284.228L93.526 284.492L91.0452 283.207L91.1818 282.943L91.1967 282.938C91.7074 283.005 92.184 282.706 92.4168 282.257L94.3854 278.458C94.6536 277.94 94.4513 277.303 93.9336 277.035L93.0058 276.554C92.9616 276.543 92.1515 276.433 91.455 276.964Z" fill="#F7FDF9"/>
<path d="M80.0292 272.735C81.1037 270.968 83.5098 270.526 85.5023 271.738C87.476 272.938 88.1715 275.266 87.097 277.033C86.0225 278.8 83.6352 279.254 81.6615 278.053C79.669 276.842 78.9547 274.502 80.0292 272.735ZM81.1289 273.404C80.3116 274.748 80.205 276.807 81.8028 277.779C83.4381 278.773 85.1894 277.714 86.0068 276.37C86.8241 275.026 86.9098 272.98 85.312 272.008C83.6861 271.019 81.9462 272.06 81.1289 273.404Z" fill="#F7FDF9"/>
<path d="M75.8217 268.774L75.6499 265.26L78.0224 266.935L77.8511 267.177C77.7269 267.143 77.6053 267.125 77.4954 267.128C77.1079 267.124 76.8182 267.458 76.8356 267.834L76.9118 269.099C76.9155 269.304 77.0265 269.49 77.1972 269.61L77.9791 270.162C78.1049 270.251 78.2825 270.228 78.3713 270.103L78.9295 269.312C79.2213 268.898 79.2208 268.346 78.9295 267.938L79.1008 267.696L81.3834 269.307L81.2121 269.55C80.7395 269.418 80.2188 269.602 79.927 270.016L77.4531 273.521C77.174 273.916 77.1719 274.453 77.4541 274.854L77.4568 274.87L77.2855 275.112L74.3199 273.019C72.9809 272.074 72.5961 270.712 73.3573 269.633C73.9028 268.86 74.7888 268.597 75.7403 268.851C75.78 268.852 75.8233 268.829 75.8217 268.774ZM77.1671 269.939C76.4482 269.432 75.1202 269.329 74.3907 270.363C73.5344 271.576 74.2216 272.586 74.9405 273.094L75.5876 273.55C75.7134 273.639 75.891 273.616 75.9798 273.491L77.8828 270.795C77.9717 270.669 77.9399 270.485 77.8141 270.396L77.1671 269.939Z" fill="#F7FDF9"/>
<path d="M67.4593 260.462L67.2289 260.275L68.1036 259.2L72.754 262.983L72.5596 263.222L72.5511 263.215C72.0731 263.053 71.5372 263.241 71.211 263.642L68.5869 266.868C68.2676 267.26 68.1925 267.823 68.4483 268.258C68.4414 268.267 68.4499 268.273 68.4499 268.273L68.2625 268.504L63.723 264.811L63.9105 264.58L64.5908 263.744L64.8212 263.932C64.6184 264.773 65.0438 265.488 65.0709 265.524L66.8116 266.941C66.8543 266.975 66.9162 266.969 66.9509 266.926L68.7003 264.776C68.735 264.733 68.7356 264.663 68.6929 264.628L67.8482 263.941C67.7543 263.865 67.078 263.371 66.2881 263.749L66.0577 263.562L67.3073 262.026L67.5377 262.214C67.3509 262.983 67.882 263.586 68.0185 263.697L68.8803 264.398C68.923 264.433 68.9849 264.426 69.0196 264.384L70.9356 262.028C70.9703 261.986 70.9639 261.924 70.9213 261.889L69.0697 260.383C69.0611 260.376 68.2561 260.075 67.4593 260.462Z" fill="#F7FDF9"/>
<path d="M61.316 256.728L61.6243 253.223L63.7467 255.205L63.544 255.422C63.4255 255.371 63.3076 255.336 63.1982 255.325C62.8149 255.268 62.4824 255.559 62.4485 255.934L62.3516 257.198C62.3274 257.401 62.4121 257.601 62.5648 257.743L63.2642 258.397C63.3768 258.502 63.5558 258.503 63.6609 258.391L64.3217 257.683C64.667 257.314 64.7417 256.766 64.5087 256.323L64.7114 256.106L66.7533 258.013L66.5506 258.23C66.1003 258.035 65.5594 258.147 65.214 258.517L62.2858 261.652C61.9555 262.006 61.8803 262.538 62.1053 262.973L62.1058 262.989L61.9031 263.206L59.2502 260.728C58.0523 259.61 57.8566 258.208 58.7575 257.243C59.4032 256.552 60.3168 256.411 61.2248 256.793C61.264 256.799 61.3101 256.782 61.316 256.728ZM62.4902 258.065C61.8471 257.464 60.5455 257.182 59.682 258.106C58.6685 259.192 59.2117 260.286 59.8548 260.887L60.4337 261.427C60.5462 261.532 60.7253 261.534 60.8304 261.422L63.0828 259.01C63.1879 258.897 63.1816 258.711 63.069 258.606L62.4902 258.065Z" fill="#F7FDF9"/>
<path d="M48.3794 244.325C48.1689 244.496 47.9794 244.565 47.8108 244.532C47.6421 244.499 47.5 244.411 47.3843 244.269C47.2639 244.121 47.2048 243.961 47.2068 243.79C47.2042 243.612 47.3081 243.438 47.5186 243.266C47.7234 243.1 47.9153 243.034 48.0942 243.068C48.2685 243.096 48.4159 243.184 48.5362 243.332C48.6519 243.474 48.7059 243.634 48.6982 243.81C48.6905 243.986 48.5842 244.158 48.3794 244.325Z" fill="#F7FDF9"/>
<path d="M37.7631 224.676C37.7591 224.627 37.8097 224.583 37.8551 224.594C39.0443 224.708 40.1408 225.431 40.8438 226.587C42.0498 228.57 41.6018 230.967 39.8349 232.042C38.068 233.116 35.7339 232.411 34.5223 230.419C33.8193 229.263 33.6834 227.981 34.1332 226.857C34.1537 226.806 34.2064 226.787 34.248 226.813L35.0294 227.188C35.0804 227.208 35.0959 227.276 35.0547 227.314C34.4604 227.946 34.1436 229.246 34.7666 230.27C35.7154 231.83 37.8373 231.763 39.1813 230.946C40.5159 230.134 41.5997 228.381 40.5938 226.727C39.9079 225.599 38.4708 225.353 37.8497 225.601C37.797 225.621 37.7345 225.581 37.7342 225.517L37.7631 224.676Z" fill="#F7FDF9"/>
<path d="M34.0397 217.372L33.9031 217.109L35.1239 216.476L37.6998 221.447L37.4361 221.584L37.4311 221.574C37.0623 221.245 36.5299 221.174 36.1002 221.397L32.2716 223.38C31.8419 223.603 31.5929 224.079 31.6589 224.565L31.6542 224.58L31.3905 224.717L30.1051 222.236L30.3688 222.099L30.3836 222.104C30.7626 222.453 31.3239 222.484 31.7732 222.251L35.5724 220.283C36.0901 220.014 36.2924 219.377 36.0242 218.859L35.5434 217.931C35.5134 217.897 34.915 217.34 34.0397 217.372Z" fill="#F7FDF9"/>
<path d="M25.6621 212.089C25.6621 212.089 25.6664 212.099 25.6809 212.105C26.0308 212.469 26.5887 212.538 27.0528 212.336L30.8665 210.68C31.3407 210.474 31.6707 210.019 31.6437 209.515C31.6393 209.505 31.6349 209.495 31.6349 209.495L31.9174 209.372L33.0306 211.935L32.7481 212.057L32.7437 212.047C32.3938 211.684 31.8316 211.604 31.3574 211.81L27.5436 213.466C27.0795 213.668 26.7539 214.133 26.7809 214.637C26.7708 214.642 26.7752 214.652 26.7752 214.652L26.5028 214.77L25.3896 212.207L25.6621 212.089Z" fill="#F7FDF9"/>
<path d="M26.4355 198.975C26.8604 198.824 27.1873 198.463 27.2516 198.02C27.2576 197.971 27.2599 197.912 27.2586 197.842L27.5384 197.743L28.4777 200.386L28.1979 200.485C28.1942 200.475 28.1905 200.464 28.1802 200.468C27.8559 200.081 27.3108 199.96 26.834 200.129L23.1959 201.422C23.1441 201.441 23.1492 201.521 23.2017 201.537L27.4608 202.452L27.575 202.773L25.1503 207.02C25.1199 207.066 25.1731 207.117 25.2146 207.102L28.8563 205.82C29.3331 205.65 29.6897 205.208 29.6971 204.704L29.6935 204.693L29.9733 204.594L30.6032 206.366L30.3234 206.466C30.2842 206.421 30.2451 206.377 30.1956 206.336C29.8764 206.029 29.3844 205.959 28.9698 206.106L24.5959 207.661C24.5721 207.692 24.1824 208.041 24.1874 208.646L23.9075 208.746L23.4655 207.502L23.4323 207.409L26.0936 202.809C26.1678 202.689 26.1022 202.537 25.9624 202.505L21.3216 201.47L20.8464 200.133L21.1262 200.033C21.4756 200.458 21.9431 200.525 22.0408 200.537L26.4355 198.975Z" fill="#F7FDF9"/>
<path d="M22.1314 192.075C22.1314 192.075 22.2049 190.992 23.423 190.651C24.6623 190.303 25.7124 191.197 26.0774 192.5L27.2052 196.525L26.9086 196.608L26.9056 196.598C26.6085 196.19 26.0518 196.037 25.5645 196.174L21.5607 197.295C21.0735 197.432 20.6875 197.849 20.6457 198.351C20.6351 198.354 20.6381 198.365 20.6381 198.365L20.3521 198.445L19.3074 194.717C18.8623 193.128 19.3409 192.023 20.4954 191.699C21.3216 191.468 22.1314 192.075 22.1314 192.075ZM20.3034 196.437L22.7926 195.739C22.8985 195.71 22.9595 195.601 22.9298 195.495L22.541 194.108C22.2383 193.027 21.4455 192.644 20.6405 192.87C20.005 193.048 19.4064 193.969 19.6706 194.912L20.0593 196.3C20.089 196.405 20.1975 196.466 20.3034 196.437ZM25.9381 193.144C25.7244 192.382 24.8269 191.502 23.8736 191.77C22.9415 192.031 22.5362 192.99 22.8567 194.134L23.2158 195.415C23.2455 195.521 23.3539 195.582 23.4493 195.555L26.2032 194.784C26.2985 194.757 26.3595 194.649 26.3299 194.543L25.9381 193.144Z" fill="#F7FDF9"/>
<path d="M21.9868 180.921L21.9263 180.63L23.2833 180.348L24.5031 186.218L24.2015 186.281L24.1993 186.27C23.9307 185.843 23.3964 185.65 22.8902 185.755L18.8192 186.601C18.3238 186.704 17.9103 187.094 17.8342 187.592C17.8235 187.595 17.8257 187.605 17.8257 187.605L17.5349 187.666L16.3443 181.936L16.6351 181.876L17.6905 181.657L17.751 181.947C17.0624 182.472 16.9413 183.295 16.9394 183.341L17.396 185.538C17.4072 185.591 17.4592 185.626 17.5131 185.614L20.2271 185.05C20.2809 185.039 20.3258 184.985 20.3147 184.931L20.0931 183.865C20.0685 183.746 19.8553 182.937 19.0038 182.732L18.9433 182.441L20.8819 182.038L20.9424 182.329C20.3117 182.808 20.3436 183.611 20.3794 183.783L20.6054 184.871C20.6166 184.925 20.6687 184.959 20.7225 184.948L23.695 184.33C23.7489 184.319 23.783 184.267 23.7718 184.213L23.2861 181.876C23.2839 181.865 22.849 181.124 21.9868 180.921Z" fill="#F7FDF9"/>
<path d="M19.5784 174.147L22.0295 171.623L22.4249 174.5L22.1307 174.54C22.0706 174.426 22.0012 174.325 21.9238 174.247C21.6624 173.961 21.2205 173.977 20.9577 174.246L20.0848 175.166C19.9378 175.308 19.8776 175.516 19.906 175.723L20.0364 176.671C20.0573 176.824 20.1952 176.938 20.3477 176.917L21.3067 176.785C21.808 176.716 22.2114 176.339 22.3104 175.848L22.6047 175.807L22.9851 178.575L22.6909 178.616C22.4645 178.181 21.9743 177.926 21.473 177.995L17.2229 178.579C16.7434 178.645 16.3495 179.01 16.2489 179.49L16.2395 179.503L15.9453 179.543L15.451 175.947C15.2278 174.323 15.9608 173.112 17.2685 172.932C18.2056 172.803 19.0028 173.271 19.4664 174.14C19.4927 174.17 19.5393 174.186 19.5784 174.147ZM19.6452 175.926C19.5254 175.054 18.6939 174.013 17.4407 174.185C15.9695 174.388 15.7003 175.579 15.8201 176.451L15.928 177.236C15.949 177.388 16.0868 177.503 16.2394 177.482L19.5086 177.032C19.6612 177.011 19.774 176.863 19.753 176.71L19.6452 175.926Z" fill="#F7FDF9"/>
<path d="M17.117 156.088C16.8457 156.088 16.655 156.022 16.545 155.89C16.435 155.758 16.38 155.6 16.38 155.417C16.38 155.226 16.435 155.065 16.545 154.933C16.655 154.793 16.8457 154.724 17.117 154.724C17.381 154.724 17.5717 154.793 17.689 154.933C17.8063 155.065 17.865 155.226 17.865 155.417C17.865 155.6 17.8063 155.758 17.689 155.89C17.5717 156.022 17.381 156.088 17.117 156.088Z" fill="#F7FDF9"/>
<path d="M15.2211 139.162L16.018 133.364L16.3122 133.405L16.3107 133.415L17.3787 133.562L17.3382 133.856C16.5151 134.11 16.1254 134.845 16.1085 134.887L15.8029 137.11C15.7955 137.164 15.833 137.214 15.8875 137.221L18.6337 137.599C18.6882 137.606 18.7487 137.57 18.7562 137.516L18.903 136.448C18.9209 136.317 18.9912 135.483 18.2575 135.004L18.2979 134.71L20.2595 134.98L20.219 135.274C19.4643 135.514 19.2257 136.281 19.2017 136.455L19.0504 137.556C19.0429 137.611 19.0805 137.66 19.135 137.668L21.5325 137.997C21.5667 137.991 22.0731 137.861 22.3472 137.321L22.6523 137.363L22.2718 140.131L21.9667 140.089L21.9682 140.078C21.8582 139.585 21.4192 139.225 20.907 139.155L16.7877 138.589C16.2865 138.52 15.7665 138.748 15.5278 139.193C15.5169 139.191 15.5154 139.202 15.5154 139.202L15.2211 139.162Z" fill="#F7FDF9"/>
<path d="M17.7701 124.638L18.1595 122.764L18.4503 122.825C18.4606 122.883 18.471 122.941 18.4813 123C18.6054 123.43 18.9914 123.735 19.433 123.827L22.1255 124.386C23.9025 124.755 24.8316 126.285 24.4355 128.192C24.0394 130.098 22.5776 131.131 20.8006 130.762L18.1188 130.205C17.6234 130.102 17.0891 130.294 16.8206 130.721C16.8098 130.719 16.8076 130.73 16.8076 130.73L16.5168 130.669L17.0852 127.934L17.376 127.994C17.3738 128.005 17.3738 128.005 17.3823 128.018C17.4584 128.517 17.8741 128.895 18.3695 128.998L21.8266 129.717C22.9898 129.958 23.8941 129.337 24.1447 128.131C24.5207 126.322 23.2731 124.973 22.1099 124.731L19.3744 124.163C18.879 124.06 18.3447 124.252 18.0761 124.679C18.0631 124.688 18.0631 124.688 18.0609 124.699L17.7701 124.638Z" fill="#F7FDF9"/>
<path d="M25.6358 117.374L25.7159 117.088L27.0399 117.459L25.5293 122.851L25.2434 122.77L25.2463 122.76C25.2015 122.267 24.8609 121.852 24.3949 121.722L20.2428 120.558C19.7767 120.428 19.2699 120.606 18.9864 121.006L18.9728 121.014L18.6869 120.933L19.4407 118.243L19.7267 118.323L19.7343 118.337C19.7732 118.85 20.1621 119.256 20.6493 119.393L24.7696 120.547C25.331 120.704 25.9141 120.377 26.0714 119.815L26.3533 118.809C26.3546 118.764 26.2975 117.948 25.6358 117.374Z" fill="#F7FDF9"/>
<path d="M28.6263 108.527L28.7258 108.247L30.0214 108.707L28.1464 113.983L27.8665 113.884L27.8702 113.873C27.8591 113.379 27.5476 112.941 27.0916 112.779L23.0285 111.335C22.5725 111.173 22.0548 111.316 21.7446 111.696L21.7305 111.703L21.4507 111.603L22.3863 108.971L22.6662 109.07L22.6729 109.084C22.6766 109.599 23.0369 110.031 23.5137 110.2L27.5456 111.633C28.0949 111.828 28.699 111.541 28.8943 110.992L29.2442 110.007C29.2486 109.962 29.2473 109.144 28.6263 108.527Z" fill="#F7FDF9"/>
<path d="M31.7882 99.5571C32.9081 100.044 33.2397 101.351 32.6087 102.804C32.1573 103.843 31.3203 104.583 30.3339 104.838C30.266 104.856 30.1795 104.807 30.1655 104.729L30.0416 104.075C30.0275 103.997 30.0871 103.915 30.1709 103.916C30.802 103.926 31.9068 103.674 32.3363 102.685C32.6781 101.898 32.1765 101.093 31.5812 100.834C30.9859 100.576 30.3461 100.862 29.8209 101.353L29.1329 102.026C28.1113 102.997 27.3474 103.265 26.5907 102.936C25.5515 102.485 25.237 101.221 25.8199 99.8789C26.2099 98.981 26.8816 98.3733 27.693 98.162C27.771 98.148 27.8474 98.1931 27.8614 98.2712L28.0055 98.9334C28.0196 99.0115 27.9643 99.0834 27.8863 99.0975C27.2679 99.1407 26.4236 99.2897 26.1125 100.006C25.8101 100.702 26.1923 101.396 26.7271 101.628C27.2921 101.874 28.0604 101.596 28.487 101.193L29.2026 100.485C30.2461 99.4629 30.971 99.2021 31.7882 99.5571Z" fill="#F7FDF9"/>
<path d="M29.1131 93.1146L32.0787 87.3913L33.2995 88.0239L33.1629 88.2876C32.3122 88.2557 31.8717 88.4363 31.644 88.8758C31.5023 89.1492 31.4016 89.9891 32.1341 90.3686L35.9236 92.3322C36.3729 92.565 36.9201 92.4892 37.2842 92.1452L37.5479 92.2818L36.2574 94.7723L35.9937 94.6357C36.0843 94.1499 35.8502 93.6693 35.4205 93.4467L31.5431 91.4376C30.8106 91.058 30.2169 91.63 30.0752 91.9035C29.8424 92.3527 29.9539 92.807 30.4706 93.4835L30.3339 93.7472L29.1131 93.1146Z" fill="#F7FDF9"/>
<path d="M41.8065 83.2544C41.9838 83.2592 42.3613 83.2313 42.7006 82.9484L42.9544 83.1027L41.5313 85.443L41.2775 85.2887C41.3183 85.0946 41.3023 84.9304 41.2691 84.7944C41.2008 84.5468 40.9793 84.3606 40.7096 84.3383L40.5438 84.3146C40.4947 84.3106 40.4437 84.331 40.4151 84.378L38.3576 87.7615C38.3347 87.7991 38.34 87.8538 38.3662 87.8955L38.4373 87.9903C38.5869 88.21 38.8636 88.3267 39.1262 88.2547C39.2773 88.2179 39.4514 88.1434 39.6257 88.0049L39.8795 88.1592L38.9707 89.6536L38.717 89.4992C38.781 89.2034 38.6563 88.9216 38.5573 88.7456L38.447 88.5883L38.4376 88.5826L35.0933 83.7295C34.996 83.5931 34.8551 83.5073 34.6949 83.4743L34.4367 83.4332L34.8482 82.7565C34.9739 82.5497 35.1953 82.4397 35.4347 82.4694L41.8065 83.2544ZM40.1042 84.3177C40.1156 84.2989 40.1025 84.2781 40.078 84.276L35.3735 83.5651C35.3547 83.5537 35.3376 83.5819 35.3506 83.6027L38.0948 87.5373C38.1079 87.5582 38.1324 87.5602 38.1438 87.5414L40.1042 84.3177Z" fill="#F7FDF9"/>
<path d="M46.9397 74.7692C46.983 74.746 47.0433 74.7751 47.0512 74.821C47.4208 75.9571 47.194 77.2511 46.4137 78.3565C45.0753 80.2527 42.6985 80.7967 41.0091 79.6041C39.3196 78.4115 39.0362 75.9899 40.381 74.0847C41.1613 72.9793 42.283 72.3439 43.4925 72.309C43.5475 72.3074 43.5861 72.3481 43.5787 72.3968L43.5464 73.2627C43.548 73.3176 43.492 73.3589 43.4407 73.3362C42.6245 73.0428 41.3061 73.2701 40.6147 74.2496C39.5617 75.7414 40.4688 77.6609 41.7539 78.568C43.03 79.4687 45.07 79.7642 46.1864 78.1826C46.9476 77.1042 46.6009 75.688 46.1251 75.2175C46.0865 75.1768 46.0976 75.1039 46.1563 75.078L46.9397 74.7692Z" fill="#F7FDF9"/>
<path d="M52.565 68.5159C52.565 68.5159 53.4609 68.4081 53.8069 68.1224L54.0373 68.3098L51.9616 70.8611L51.7312 70.6737L51.7382 70.6651C51.9125 70.1546 51.5302 69.6309 50.9924 69.6471L48.3959 69.7186C48.3495 69.7233 48.3217 69.7575 48.318 69.797L48.4491 70.7687C48.4523 70.7996 48.4624 70.822 48.4795 70.8359L49.488 71.6706C49.865 71.9915 50.4162 72.0286 50.8357 71.7744L51.0661 71.9618L49.3028 74.1292L49.0725 73.9417C49.236 73.4792 49.0875 72.9472 48.695 72.6278L45.3672 69.9205C44.9917 69.615 44.4561 69.5763 44.0365 69.8305L44.021 69.8321L43.7906 69.6447L45.5539 67.4773L45.7843 67.6648C45.7843 67.6648 45.7773 67.6733 45.7789 67.6888C45.617 68.1667 45.8119 68.694 46.1975 69.0219L47.9211 70.4242C47.9638 70.4589 48.038 70.42 48.0385 70.3496L47.7017 67.2252C47.6492 66.7146 47.0865 66.4127 46.6344 66.6547C46.6205 66.6718 46.5981 66.6819 46.5757 66.692L46.3453 66.5046L47.9489 64.5335L48.1793 64.7209C48.1301 64.8511 48.091 65.0037 48.0675 65.1547C47.9567 65.6743 47.9419 66.2153 48.0115 66.7399L48.2062 68.5574C48.2179 68.5953 48.252 68.623 48.283 68.6199L52.565 68.5159Z" fill="#F7FDF9"/>
<path d="M58.9791 52.9605C60.8362 51.2262 63.0508 51.0995 64.4923 52.643C65.9339 54.1865 65.6542 56.4495 63.8293 58.1538L61.4578 60.3687L61.255 60.1517L61.2631 60.1442C61.4811 59.6847 61.3678 59.1282 61.0225 58.7584L58.1844 55.7196C57.839 55.3498 57.2916 55.1988 56.8258 55.393C56.8183 55.385 56.8103 55.3925 56.8103 55.3925L56.6075 55.1754L58.9791 52.9605ZM63.6105 57.9518C64.9209 56.728 64.6334 54.6635 63.5598 53.5139C62.4861 52.3643 60.4922 51.9538 59.1657 53.1926L58.402 53.9059C58.3297 53.9734 58.334 54.0748 58.3941 54.1391L62.6136 58.6571C62.6812 58.7295 62.7745 58.7326 62.8468 58.6651L63.6105 57.9518Z" fill="#F7FDF9"/>
<path d="M73.1938 48.3081L73.4242 48.1207L74.2989 49.1958L69.6485 52.9792L69.4541 52.7403L69.4626 52.7333C69.7185 52.2983 69.6434 51.7354 69.3171 51.3344L66.6931 48.109C66.3737 47.7165 65.8379 47.5284 65.3599 47.6904C65.353 47.6819 65.3444 47.6888 65.3444 47.6888L65.157 47.4585L69.6965 43.7653L69.8839 43.9957L70.5642 44.8319L70.3338 45.0194C69.5508 44.6496 68.7645 44.9206 68.7234 44.9398L66.9827 46.356C66.9401 46.3907 66.9337 46.4526 66.9684 46.4953L68.7178 48.6455C68.7525 48.6882 68.8214 48.7031 68.864 48.6684L69.7088 47.9811C69.8026 47.9048 70.4234 47.343 70.2136 46.4926L70.444 46.3052L71.6936 47.8411L71.4632 48.0286C70.7475 47.6891 70.0498 48.0866 69.9133 48.1976L69.0515 48.8988C69.0088 48.9335 69.0024 48.9954 69.0371 49.038L70.9531 51.3931C70.9878 51.4358 71.0497 51.4421 71.0924 51.4074L72.944 49.901C72.9525 49.8941 73.4104 49.167 73.1938 48.3081Z" fill="#F7FDF9"/>
<path d="M76.0599 39.1888L77.6235 38.085L77.7948 38.3276C77.5331 38.7008 77.6151 39.599 77.6912 39.9357L78.7199 46.0091L78.3874 46.2438L72.3642 42.8611C72.1882 42.7834 71.8562 42.6946 71.4592 42.7998L71.2879 42.5571L73.6784 40.8698L73.8497 41.1124C73.8317 41.1251 73.829 41.1404 73.8201 41.1468C73.5298 41.594 73.6953 42.1908 74.1452 42.4657L77.6896 44.5686C77.8693 44.6706 78.1003 44.521 78.058 44.3085L77.3703 40.1487C77.2863 39.6291 76.7613 39.286 76.2465 39.434L76.2311 39.4314L76.0599 39.1888Z" fill="#F7FDF9"/>
<path d="M84.5759 37.5497C84.4349 37.3178 84.3923 37.1206 84.4479 36.9581C84.5035 36.7955 84.6097 36.6666 84.7663 36.5713C84.9292 36.4723 85.0956 36.4354 85.2656 36.4608C85.4418 36.4824 85.6004 36.6091 85.7414 36.841C85.8785 37.0665 85.9181 37.2656 85.86 37.4383C85.8082 37.6071 85.7008 37.7411 85.5379 37.8401C85.3812 37.9354 85.216 37.9672 85.0423 37.9355C84.8686 37.9039 84.7131 37.7752 84.5759 37.5497Z" fill="#F7FDF9"/>
<path d="M101.218 25.4455C102.722 24.7926 104.086 25.1715 104.611 26.3823C105.137 27.593 104.472 28.8774 102.989 29.5216L101.758 30.0563C101.617 30.1176 101.544 30.2812 101.605 30.4224L101.978 31.28C102.153 31.6836 102.54 31.9952 102.987 32.0291C103.046 32.0274 103.105 32.0256 103.164 32.0239L103.283 32.2963L100.72 33.4094L100.602 33.137C100.602 33.137 100.602 33.137 100.612 33.1326C100.975 32.7828 101.055 32.2205 100.853 31.7564L99.1881 27.9225C98.9865 27.4583 98.5257 27.1428 98.0217 27.1698C98.0072 27.1641 98.0072 27.1641 98.0072 27.1641L97.8889 26.8917L101.218 25.4455ZM102.37 29.4784C103.178 29.1278 103.955 28.0465 103.451 26.8862C102.86 25.5242 101.639 25.5865 100.832 25.9371L100.106 26.2526C99.9646 26.314 99.8917 26.4775 99.9531 26.6188L101.268 29.6456C101.329 29.7868 101.503 29.8553 101.644 29.794L102.37 29.4784Z" fill="#F7FDF9"/>
<path d="M113.799 21.0443L113.792 21.0583C113.412 21.3685 113.269 21.8862 113.431 22.3423L114.875 26.4053C115.037 26.8614 115.475 27.1728 115.969 27.1839L115.98 27.1803L116.079 27.4601L113.446 28.3958L113.347 28.1159C113.737 27.802 113.876 27.2739 113.707 26.7972L113.044 24.9315C113.018 24.8589 112.948 24.8255 112.875 24.8513L109.289 26.1259C109.217 26.1516 109.183 26.2219 109.209 26.2944L109.879 28.1808C110.041 28.6369 110.469 28.952 110.963 28.9632L110.984 28.9558L111.083 29.2356L108.45 30.1713L108.351 29.8914C108.731 29.5813 108.881 29.0495 108.711 28.5727L107.275 24.5304C107.112 24.0743 106.675 23.7629 106.184 23.7621L106.17 23.7554L106.071 23.4756L108.703 22.5399L108.803 22.8198L108.786 22.8375C108.406 23.1477 108.273 23.6618 108.435 24.1178L109.017 25.7555C109.043 25.828 109.117 25.8718 109.19 25.846L112.776 24.5714C112.848 24.5457 112.878 24.4651 112.852 24.3925L112.278 22.7756C112.108 22.2988 111.671 21.9873 111.166 21.9799L111.067 21.7001L113.699 20.7644L113.799 21.0443Z" fill="#F7FDF9"/>
<path d="M124.119 21.5498C124.677 23.5411 123.358 25.6013 121.112 26.2305C118.888 26.8537 116.712 25.7728 116.154 23.7815C115.596 21.7902 116.894 19.7359 119.118 19.1126C121.364 18.4835 123.561 19.5584 124.119 21.5498ZM122.88 21.897C122.455 20.3823 121.023 18.8988 119.222 19.4033C117.379 19.9197 116.958 21.9226 117.382 23.4373C117.807 24.9519 119.244 26.4113 121.045 25.9068C122.877 25.3934 123.304 23.4117 122.88 21.897Z" fill="#F7FDF9"/>
<path d="M125.492 17.6647L131.803 16.3533L132.083 17.6995L131.792 17.7599C131.28 17.0799 130.862 16.8522 130.377 16.9529C130.076 17.0156 129.361 17.4675 129.529 18.2752L130.397 22.454C130.5 22.9494 130.904 23.3261 131.401 23.3914L131.461 23.6822L128.715 24.2528L128.654 23.9621C129.089 23.7258 129.314 23.2409 129.215 22.767L128.327 18.4913C128.159 17.6836 127.34 17.584 127.039 17.6467C126.543 17.7496 126.261 18.1228 126.063 18.9506L125.772 19.011L125.492 17.6647Z" fill="#F7FDF9"/>
<path d="M142.827 18.3823C143.109 20.431 141.522 22.2925 139.211 22.61C136.923 22.9246 134.914 21.5574 134.632 19.5087C134.351 17.4599 135.916 15.6014 138.205 15.2869C140.515 14.9694 142.546 16.3335 142.827 18.3823ZM141.552 18.5575C141.338 16.9992 140.121 15.3344 138.268 15.589C136.372 15.8496 135.682 17.7766 135.896 19.3349C136.111 20.8933 137.336 22.5348 139.188 22.2801C141.073 22.021 141.766 20.1159 141.552 18.5575Z" fill="#F7FDF9"/>
<path d="M148.733 21.7116C148.722 21.7124 148.7 21.7139 148.689 21.7147C146.362 21.8738 144.429 20.3742 144.288 18.311C144.145 16.2149 145.814 14.502 148.184 14.3399C149.402 14.2566 150.487 14.6344 151.299 15.3947C151.359 15.4568 151.354 15.5454 151.291 15.5938L150.739 16.0725C150.677 16.1319 150.576 16.1058 150.538 16.0312C150.208 15.4032 149.333 14.5259 148.169 14.6055C146.49 14.7204 145.452 16.6327 145.561 18.2239C145.699 20.2432 147.003 21.5763 148.748 21.457C149.648 21.3954 150.28 20.9663 150.645 20.5003C150.97 20.0922 151.015 19.615 150.983 19.1541C150.943 18.5725 150.439 18.1328 149.858 18.1726L149.254 18.2139L149.228 17.8298L152.103 17.6331L152.108 17.699C152.246 19.7292 150.761 21.5508 148.733 21.7116Z" fill="#F7FDF9"/>
<path d="M158.895 18.228L161.062 21H158.158V20.703C158.279 20.659 158.389 20.604 158.477 20.538C158.796 20.318 158.84 19.878 158.609 19.581L157.817 18.591C157.696 18.426 157.498 18.338 157.289 18.338L156.332 18.338C156.178 18.338 156.046 18.459 156.046 18.613V19.581C156.046 20.087 156.365 20.538 156.838 20.703V21H154.044V20.703C154.506 20.538 154.825 20.087 154.825 19.581V15.291C154.825 14.807 154.517 14.367 154.055 14.202L154.044 14.191V13.894H157.674C159.313 13.894 160.413 14.785 160.413 16.105C160.413 17.051 159.841 17.777 158.917 18.118C158.884 18.14 158.862 18.184 158.895 18.228ZM157.124 18.052C158.004 18.052 159.148 17.37 159.148 16.105C159.148 14.62 158.004 14.191 157.124 14.191H156.332C156.178 14.191 156.046 14.312 156.046 14.466V17.766C156.046 17.92 156.178 18.052 156.332 18.052H157.124Z" fill="#F7FDF9"/>
<path d="M169.029 20.9726C169.106 21.1323 169.305 21.4546 169.712 21.6258L169.692 21.9221L166.959 21.7352L166.979 21.4389C167.17 21.3858 167.309 21.296 167.414 21.204C167.603 21.0295 167.666 20.7471 167.562 20.4974L167.507 20.3393C167.488 20.2939 167.446 20.258 167.391 20.2542L163.44 19.984C163.397 19.981 163.35 20.0109 163.325 20.0533L163.274 20.16C163.148 20.394 163.171 20.6933 163.356 20.8933C163.458 21.0106 163.605 21.1308 163.808 21.2219L163.788 21.5182L162.043 21.3989L162.063 21.1026C162.355 21.0233 162.548 20.7829 162.659 20.6141L162.747 20.4437L162.748 20.4328L165.519 15.2307C165.595 15.0816 165.606 14.917 165.562 14.7596L165.48 14.5114L166.27 14.5654C166.511 14.5819 166.711 14.7279 166.794 14.9541L169.029 20.9726ZM167.302 19.9504C167.324 19.9519 167.336 19.9307 167.327 19.908L165.793 15.4039C165.795 15.3819 165.762 15.3797 165.75 15.4009L163.519 19.6475C163.506 19.6687 163.516 19.6914 163.538 19.6929L167.302 19.9504Z" fill="#F7FDF9"/>
<path d="M177.492 15.7671C179.116 15.9902 180.084 17.0227 179.904 18.3304C179.725 19.6381 178.489 20.3899 176.887 20.1697L175.557 19.9869C175.405 19.966 175.258 20.0679 175.237 20.2204L175.109 21.1467C175.049 21.5826 175.218 22.05 175.582 22.311C175.634 22.3402 175.685 22.3695 175.737 22.3988L175.696 22.693L172.928 22.3126L172.969 22.0184C172.969 22.0184 172.969 22.0184 172.98 22.0199C173.472 21.9099 173.832 21.4709 173.901 20.9696L174.47 16.8285C174.539 16.3272 174.309 15.8182 173.865 15.5794C173.855 15.567 173.855 15.567 173.855 15.567L173.896 15.2728L177.492 15.7671ZM176.381 19.8115C177.253 19.9313 178.479 19.4114 178.651 18.1582C178.853 16.687 177.778 16.1062 176.907 15.9864L176.122 15.8786C175.969 15.8576 175.822 15.9595 175.801 16.1121L175.352 19.3813C175.331 19.5339 175.444 19.6826 175.596 19.7036L176.381 19.8115Z" fill="#F7FDF9"/>
<path d="M190.527 18.543L190.514 18.5516C190.029 18.6191 189.637 18.9872 189.539 19.4611L188.662 23.6829C188.563 24.1568 188.775 24.6503 189.192 24.9166L189.203 24.9188L189.142 25.2096L186.407 24.6411L186.467 24.3504C186.964 24.285 187.357 23.9061 187.46 23.4107L187.863 21.4721C187.878 21.3967 187.836 21.3317 187.76 21.316L184.034 20.5417C183.959 20.526 183.894 20.5687 183.878 20.6441L183.471 22.6042C183.372 23.0781 183.573 23.5693 183.99 23.8356L184.011 23.8401L183.951 24.1309L181.215 23.5624L181.276 23.2716C181.762 23.2041 182.166 22.8274 182.269 22.332L183.142 18.1317C183.24 17.6579 183.028 17.1644 182.609 16.9088L182.601 16.8958L182.661 16.6051L185.397 17.1735L185.336 17.4643L185.313 17.4706C184.827 17.5381 184.446 17.9085 184.348 18.3824L183.994 20.084C183.979 20.1594 184.019 20.2352 184.094 20.2509L187.821 21.0253C187.896 21.0409 187.963 20.9875 187.979 20.9121L188.328 19.232C188.431 18.7366 188.219 18.2431 187.792 17.9746L187.852 17.6838L190.588 18.2522L190.527 18.543Z" fill="#F7FDF9"/>
<path d="M197.08 26.038L197.366 26.1182L196.992 27.4528L191.22 25.8353L191.303 25.5387L191.313 25.5417C191.816 25.4999 192.233 25.1139 192.372 24.6161L193.494 20.6123C193.631 20.1251 193.475 19.5789 193.067 19.2818C193.07 19.2712 193.06 19.2682 193.06 19.2682L193.14 18.9822L198.775 20.5611L198.695 20.8471L198.404 21.8851L198.118 21.805C197.968 20.952 197.294 20.4659 197.254 20.4435L195.093 19.838C195.04 19.8232 194.986 19.8537 194.971 19.9067L194.223 22.5759C194.209 22.6288 194.236 22.6937 194.289 22.7085L195.338 23.0023C195.454 23.035 196.271 23.2181 196.845 22.5564L197.131 22.6365L196.597 24.5431L196.311 24.463C196.175 23.6825 195.448 23.3417 195.279 23.2942L194.209 22.9945C194.156 22.9796 194.102 23.0101 194.087 23.0631L193.268 25.9865C193.253 26.0395 193.283 26.0937 193.336 26.1086L195.635 26.7526C195.646 26.7555 196.504 26.7103 197.08 26.038Z" fill="#F7FDF9"/>
<path d="M204.203 27.0161L205.317 30.3538L202.58 29.3813L202.68 29.1014C202.808 29.1005 202.931 29.0855 203.036 29.0528C203.41 28.9523 203.599 28.5524 203.48 28.1952L203.066 26.9972C203.007 26.8012 202.85 26.652 202.653 26.582L201.751 26.2615C201.606 26.2099 201.441 26.2797 201.39 26.4248L201.065 27.3369C200.896 27.8137 201.045 28.3455 201.436 28.6594L201.336 28.9392L198.704 28.0036L198.803 27.7237C199.294 27.723 199.745 27.4048 199.915 26.928L201.352 22.8857C201.514 22.4297 201.371 21.912 200.991 21.6018L200.984 21.5877L201.083 21.3079L204.504 22.5235C206.048 23.0723 206.786 24.2803 206.344 25.5241C206.027 26.4154 205.245 26.908 204.261 26.9198C204.222 26.9295 204.187 26.9636 204.203 27.0161ZM202.593 26.2572C203.422 26.5519 204.729 26.2924 205.152 25.1004C205.65 23.7012 204.715 22.9138 203.886 22.6191L203.14 22.3539C202.995 22.3024 202.83 22.3722 202.778 22.5173L201.673 25.6267C201.622 25.7718 201.702 25.9404 201.847 25.992L202.593 26.2572Z" fill="#F7FDF9"/>
<path d="M221.01 33.2382C221.135 32.9973 221.281 32.8583 221.449 32.8214C221.617 32.7845 221.782 32.8082 221.945 32.8925C222.114 32.9802 222.232 33.1033 222.298 33.2617C222.372 33.4234 222.346 33.6248 222.221 33.8657C222.099 34.1001 221.95 34.2373 221.772 34.2774C221.601 34.3209 221.431 34.2987 221.261 34.211C221.099 34.1267 220.986 34.002 220.922 33.8371C220.859 33.6722 220.888 33.4726 221.01 33.2382Z" fill="#F7FDF9"/>
<path d="M238.575 47.0308C238.599 47.0741 238.57 47.1344 238.524 47.1423C237.388 47.5118 236.093 47.2851 234.988 46.5048C233.092 45.1663 232.548 42.7896 233.741 41.1002C234.933 39.4107 237.355 39.1273 239.26 40.4721C240.365 41.2524 241.001 42.3741 241.036 43.5836C241.037 43.6386 240.996 43.6772 240.948 43.6698L240.082 43.6375C240.027 43.6391 239.986 43.5831 240.008 43.5318C240.302 42.7156 240.075 41.3972 239.095 40.7058C237.603 39.6528 235.684 40.5599 234.777 41.845C233.876 43.1211 233.58 45.1611 235.162 46.2775C236.24 47.0387 237.657 46.6919 238.127 46.2162C238.168 46.1776 238.241 46.1887 238.267 46.2474L238.575 47.0308Z" fill="#F7FDF9"/>
<path d="M244.89 50.4372L244.822 53.9551L242.569 52.1224L242.757 51.892C242.878 51.9342 242.998 51.961 243.108 51.9653C243.495 51.996 243.806 51.6824 243.815 51.3063L243.825 50.0385C243.835 49.8341 243.737 49.6409 243.575 49.509L242.833 48.9051C242.713 48.8079 242.535 48.8184 242.437 48.9379L241.826 49.6888C241.507 50.0813 241.47 50.6325 241.733 51.059L241.545 51.2893L239.378 49.5261L239.565 49.2957C240.028 49.4593 240.56 49.3107 240.879 48.9182L243.587 45.5904C243.892 45.215 243.931 44.6793 243.677 44.2597L243.675 44.2443L243.862 44.0139L246.678 46.3047C247.95 47.3391 248.241 48.7244 247.408 49.7484C246.811 50.4822 245.909 50.6844 244.977 50.3658C244.937 50.362 244.893 50.3823 244.89 50.4372ZM243.628 49.183C244.31 49.7384 245.628 49.9313 246.426 48.95C247.364 47.7981 246.747 46.7434 246.064 46.188L245.45 45.6882C245.33 45.591 245.152 45.6016 245.054 45.721L242.972 48.2809C242.875 48.4003 242.894 48.586 243.013 48.6832L243.628 49.183Z" fill="#F7FDF9"/>
<path d="M252.666 59.3004L252.883 59.5031L251.937 60.516L247.556 56.4241L247.766 56.199L247.774 56.2065C248.24 56.4007 248.787 56.2497 249.14 55.8719L251.978 52.8331C252.324 52.4633 252.437 51.9068 252.211 51.4554C252.219 51.4473 252.211 51.4398 252.211 51.4398L252.414 51.2227L256.69 55.217L256.488 55.4341L255.752 56.2219L255.535 56.0192C255.795 55.1932 255.419 54.4511 255.394 54.413L253.754 52.8814C253.714 52.8438 253.652 52.8459 253.615 52.8861L251.722 54.912C251.685 54.9522 251.68 55.0224 251.72 55.06L252.516 55.8033C252.604 55.8859 253.245 56.4243 254.059 56.1008L254.276 56.3035L252.925 57.7506L252.708 57.5478C252.946 56.7925 252.458 56.1555 252.329 56.0354L251.517 55.277C251.477 55.2395 251.415 55.2416 251.377 55.2818L249.305 57.5006C249.267 57.5408 249.269 57.603 249.31 57.6406L251.054 59.2698C251.062 59.2773 251.845 59.6319 252.666 59.3004Z" fill="#F7FDF9"/>
<path d="M258.344 65.9756C258.292 66.145 258.217 66.516 258.397 66.9191L258.18 67.1218L256.311 65.1201L256.528 64.9174C256.704 65.009 256.866 65.0379 257.006 65.0427C257.263 65.0436 257.502 64.8806 257.596 64.627L257.664 64.4736C257.681 64.4275 257.675 64.3728 257.638 64.3327L254.935 61.4385C254.905 61.4064 254.85 61.3968 254.803 61.4107L254.693 61.4536C254.441 61.5384 254.254 61.7733 254.252 62.0456C254.247 62.2011 254.272 62.3887 254.358 62.594L254.141 62.7968L252.947 61.5185L253.164 61.3158C253.432 61.4573 253.737 61.4132 253.933 61.3654L254.114 61.3016L254.122 61.2941L259.698 59.3832C259.855 59.3263 259.976 59.2137 260.051 59.0684L260.16 58.8308L260.701 59.4097C260.866 59.5865 260.912 59.8294 260.819 60.0519L258.344 65.9756ZM257.78 64.0495C257.795 64.0656 257.818 64.0586 257.827 64.0356L259.78 59.6973C259.797 59.6823 259.774 59.6582 259.75 59.6652L255.221 61.246C255.198 61.253 255.189 61.276 255.204 61.2921L257.78 64.0495Z" fill="#F7FDF9"/>
<path d="M265.766 65.1004L269.834 70.1006L268.768 70.9684L268.58 70.738C268.948 69.9705 268.958 69.4945 268.646 69.1105C268.451 68.8716 267.721 68.4447 267.081 68.9653L263.77 71.6588C263.378 71.9782 263.229 72.5102 263.4 72.9813L263.17 73.1687L261.399 70.9928L261.63 70.8054C262.039 71.0821 262.573 71.0588 262.949 70.7533L266.336 67.9974C266.976 67.4767 266.688 66.7043 266.494 66.4654C266.174 66.0729 265.713 65.9942 264.887 66.1985L264.7 65.9681L265.766 65.1004Z" fill="#F7FDF9"/>
<path d="M273.587 75.8594C273.587 75.8594 273.58 75.8504 273.565 75.8477C273.148 75.5628 272.588 75.6082 272.175 75.9L268.778 78.2979C268.355 78.596 268.125 79.1088 268.254 79.5967C268.26 79.6057 268.266 79.6147 268.266 79.6147L268.015 79.7923L266.404 77.5097L266.655 77.3321L266.662 77.3411C267.078 77.626 267.645 77.5895 268.067 77.2914L271.464 74.8935C271.877 74.6017 272.102 74.08 271.973 73.5921C271.982 73.5857 271.975 73.5767 271.975 73.5767L272.218 73.4055L273.829 75.6881L273.587 75.8594Z" fill="#F7FDF9"/>
<path d="M279.38 84.3591L280.375 85.9944L280.121 86.1488C279.766 85.8622 278.865 85.8827 278.524 85.9356L272.394 86.5475L272.183 86.1997L275.969 80.4214C276.058 80.2511 276.169 79.926 276.091 79.5227L276.345 79.3684L277.866 81.8684L277.612 82.0228C277.6 82.004 277.585 82.0003 277.58 81.9909C277.153 81.6708 276.546 81.7952 276.241 82.2252L273.902 85.6179C273.788 85.7902 273.921 86.0309 274.136 86.0032L278.333 85.601C278.857 85.5526 279.235 85.0523 279.123 84.5285L279.126 84.5134L279.38 84.3591Z" fill="#F7FDF9"/>
<path d="M279.744 97.0868L279.881 97.3505L278.65 97.9881L275.892 92.6653L276.166 92.5236L276.171 92.5333C276.545 92.8723 277.111 92.9134 277.57 92.6755L281.262 90.7626C281.711 90.5298 282.004 90.0434 281.943 89.5424C281.953 89.5374 281.947 89.5276 281.947 89.5276L282.211 89.391L284.903 94.5869L284.64 94.7235L283.683 95.2195L283.546 94.9558C284.067 94.2644 283.962 93.4394 283.952 93.3953L282.919 91.4028C282.894 91.354 282.835 91.3352 282.786 91.3605L280.324 92.6358C280.276 92.6611 280.247 92.7255 280.272 92.7743L280.773 93.7412C280.829 93.8486 281.253 94.5707 282.128 94.5384L282.265 94.8021L280.507 95.713L280.37 95.4493C280.848 94.8176 280.601 94.0536 280.52 93.8974L280.009 92.9109C279.983 92.8621 279.924 92.8433 279.875 92.8686L277.18 94.2653C277.131 94.2906 277.112 94.3499 277.137 94.3988L278.235 96.5182C278.24 96.5279 278.859 97.1241 279.744 97.0868Z" fill="#F7FDF9"/>
<path d="M286.818 114.461C286.393 114.612 286.066 114.973 286.002 115.416C285.996 115.465 285.993 115.524 285.995 115.594L285.715 115.693L284.776 113.05L285.056 112.951C285.059 112.961 285.063 112.971 285.073 112.968C285.397 113.354 285.943 113.476 286.419 113.306L290.057 112.013C290.109 111.995 290.104 111.915 290.052 111.899L285.793 110.984L285.678 110.663L288.103 106.416C288.133 106.37 288.08 106.319 288.039 106.333L284.397 107.616C283.92 107.786 283.564 108.227 283.556 108.732L283.56 108.742L283.28 108.842L282.65 107.07L282.93 106.97C282.969 107.015 283.008 107.059 283.058 107.1C283.377 107.407 283.869 107.477 284.284 107.33L288.658 105.775C288.681 105.743 289.071 105.395 289.066 104.789L289.346 104.69L289.788 105.934L289.821 106.027L287.16 110.627C287.086 110.747 287.151 110.898 287.291 110.93L291.932 111.966L292.407 113.303L292.127 113.403C291.778 112.978 291.31 112.911 291.213 112.899L286.818 114.461Z" fill="#F7FDF9"/>
<path d="M293.911 119.695C293.911 119.695 293.908 119.685 293.895 119.677C293.598 119.269 293.055 119.124 292.567 119.261L288.564 120.383C288.066 120.522 287.677 120.928 287.635 121.431C287.638 121.442 287.641 121.452 287.641 121.452L287.344 121.535L286.591 118.845L286.887 118.762L286.89 118.773C287.187 119.18 287.733 119.336 288.231 119.196L292.235 118.075C292.722 117.938 293.108 117.521 293.15 117.019C293.161 117.016 293.158 117.005 293.158 117.005L293.444 116.925L294.197 119.615L293.911 119.695Z" fill="#F7FDF9"/>
<path d="M296.116 130.77C296.105 130.772 296.103 130.761 296.101 130.751C295.832 130.323 295.3 130.142 294.804 130.245L290.615 131.115C290.313 131.178 290.047 131.357 289.9 131.623C289.826 131.751 289.769 131.909 289.74 132.095L289.449 132.155L289.199 130.949C289.149 130.712 289.191 130.479 289.332 130.292L293.582 124.308C293.616 124.256 293.566 124.177 293.501 124.19L289.396 125.032C288.922 125.131 288.554 125.522 288.476 126.01L288.48 126.031L288.189 126.092L287.802 124.229L288.093 124.168C288.348 124.587 288.855 124.808 289.35 124.705L293.938 123.751C294.015 123.69 294.393 123.398 294.469 122.843L294.759 122.783L295.008 123.978C295.055 124.205 295.013 124.438 294.872 124.624L290.749 130.627C290.715 130.679 290.763 130.748 290.828 130.734L294.74 129.933C295.235 129.83 295.648 129.44 295.725 128.941C295.725 128.941 295.722 128.931 295.733 128.928L296.024 128.868L296.183 129.633L296.248 129.945L296.407 130.71L296.116 130.77Z" fill="#F7FDF9"/>
<path d="M297.705 136.778C298.051 139.295 296.877 141.177 294.785 141.465C292.693 141.753 291.005 140.219 290.665 137.745L290.223 134.531L290.517 134.49L290.519 134.501C290.769 134.944 291.289 135.172 291.79 135.104L295.909 134.537C296.41 134.468 296.849 134.108 296.959 133.616C296.97 133.614 296.969 133.603 296.969 133.603L297.263 133.563L297.705 136.778ZM290.956 137.683C291.2 139.459 293.053 140.415 294.611 140.201C296.17 139.987 297.655 138.594 297.408 136.796L297.265 135.761C297.252 135.663 297.167 135.608 297.079 135.62L290.955 136.462C290.857 136.475 290.801 136.55 290.814 136.648L290.956 137.683Z" fill="#F7FDF9"/>
<path d="M294.883 157.728C295.154 157.728 295.345 157.794 295.455 157.926C295.565 158.058 295.62 158.216 295.62 158.399C295.62 158.59 295.565 158.751 295.455 158.883C295.345 159.023 295.154 159.092 294.883 159.092C294.619 159.092 294.428 159.023 294.311 158.883C294.194 158.751 294.135 158.59 294.135 158.399C294.135 158.216 294.194 158.058 294.311 157.926C294.428 157.794 294.619 157.728 294.883 157.728Z" fill="#F7FDF9"/>
<path d="M291.755 177.859L291.715 178.153L290.352 177.966L291.115 172.419L291.409 172.459L291.407 172.47C291.519 172.952 291.913 173.317 292.392 173.383L296.664 173.97C297.144 174.036 297.622 173.791 297.848 173.355L297.86 173.346L298.155 173.386L297.774 176.154L297.48 176.114L297.47 176.102C297.362 175.598 296.921 175.249 296.42 175.18L292.181 174.597C291.603 174.518 291.07 174.922 290.991 175.5L290.849 176.535C290.854 176.58 291.021 177.38 291.755 177.859Z" fill="#F7FDF9"/>
<path d="M295.553 187.006C295.553 187.006 295.555 186.995 295.546 186.982C295.47 186.483 295.054 186.105 294.559 186.002L290.488 185.156C289.982 185.051 289.45 185.232 289.181 185.66C289.179 185.67 289.177 185.681 289.177 185.681L288.875 185.618L289.444 182.883L289.745 182.946L289.743 182.956C289.819 183.455 290.232 183.844 290.739 183.95L294.81 184.796C295.305 184.899 295.839 184.706 296.108 184.279C296.119 184.281 296.121 184.27 296.121 184.27L296.412 184.331L295.843 187.066L295.553 187.006Z" fill="#F7FDF9"/>
<path d="M294.325 193.365L292.746 199L292.46 198.92L292.463 198.91L291.425 198.619L291.505 198.333C292.355 198.194 292.841 197.519 292.864 197.48L293.469 195.319C293.484 195.266 293.453 195.212 293.4 195.197L290.731 194.449C290.678 194.434 290.613 194.462 290.599 194.515L290.308 195.553C290.272 195.68 290.089 196.497 290.751 197.071L290.67 197.356L288.764 196.822L288.844 196.536C289.625 196.401 289.965 195.674 290.013 195.504L290.313 194.435C290.327 194.382 290.297 194.327 290.244 194.313L287.914 193.66C287.879 193.661 287.359 193.721 287.014 194.219L286.718 194.136L287.472 191.445L287.768 191.528L287.765 191.539C287.807 192.042 288.193 192.458 288.691 192.598L292.695 193.72C293.182 193.856 293.728 193.701 294.025 193.293C294.036 193.296 294.039 193.285 294.039 193.285L294.325 193.365Z" fill="#F7FDF9"/>
<path d="M284.241 205.995L284.142 206.275L282.836 205.811L284.844 200.162L285.134 200.265L285.13 200.275C285.138 200.78 285.494 201.222 285.981 201.395L289.899 202.788C290.376 202.957 290.932 202.839 291.256 202.452C291.266 202.456 291.27 202.446 291.27 202.446L291.55 202.545L289.59 208.059L289.31 207.96L288.294 207.599L288.394 207.319C289.255 207.228 289.786 206.588 289.811 206.55L290.563 204.436C290.581 204.384 290.554 204.328 290.502 204.309L287.89 203.381C287.839 203.363 287.772 203.386 287.754 203.438L287.389 204.464C287.348 204.578 287.11 205.38 287.731 205.998L287.632 206.278L285.766 205.615L285.865 205.335C286.653 205.253 287.043 204.551 287.102 204.385L287.474 203.338C287.492 203.286 287.465 203.23 287.414 203.212L284.553 202.195C284.501 202.177 284.445 202.203 284.427 202.255L283.627 204.504C283.623 204.515 283.61 205.374 284.241 205.995Z" fill="#F7FDF9"/>
<path d="M276.873 221.89L276.737 222.153L275.516 221.521L278.092 216.55L278.355 216.686L278.35 216.696C278.294 217.187 278.543 217.663 278.973 217.886L282.801 219.869C283.231 220.092 283.763 220.021 284.122 219.687L284.137 219.682L284.401 219.819L283.116 222.299L282.852 222.163L282.847 222.148C282.914 221.637 282.615 221.161 282.166 220.928L278.367 218.959C277.849 218.691 277.212 218.893 276.943 219.411L276.463 220.339C276.452 220.383 276.342 221.193 276.873 221.89Z" fill="#F7FDF9"/>
<path d="M272.644 233.315C270.877 232.241 270.435 229.835 271.647 227.842C272.847 225.869 275.175 225.173 276.942 226.248C278.709 227.322 279.163 229.709 277.962 231.683C276.751 233.676 274.411 234.39 272.644 233.315ZM273.313 232.216C274.657 233.033 276.716 233.14 277.688 231.542C278.682 229.907 277.623 228.155 276.279 227.338C274.935 226.521 272.889 226.435 271.917 228.033C270.928 229.659 271.969 231.399 273.313 232.216Z" fill="#F7FDF9"/>
<path d="M269.856 242.861C269.847 242.855 269.854 242.846 269.86 242.837C269.989 242.349 269.759 241.836 269.345 241.544L265.849 239.077C265.598 238.899 265.285 238.827 264.99 238.901C264.846 238.934 264.692 239 264.536 239.106L264.294 238.935L265.004 237.928C265.144 237.73 265.342 237.601 265.575 237.577L272.849 236.599C272.911 236.589 272.935 236.498 272.881 236.46L269.463 234.034C269.068 233.755 268.531 233.753 268.12 234.028L268.108 234.046L267.865 233.875L268.962 232.32L269.205 232.492C269.073 232.964 269.258 233.485 269.671 233.777L273.5 236.479C273.597 236.494 274.068 236.571 274.525 236.247L274.768 236.418L274.064 237.416C273.93 237.605 273.732 237.734 273.499 237.758L266.298 238.842C266.237 238.852 266.219 238.934 266.273 238.972L269.529 241.284C269.943 241.576 270.509 241.612 270.926 241.327C270.926 241.327 270.932 241.318 270.941 241.325L271.184 241.496L270.733 242.134L270.549 242.394L270.099 243.033L269.856 242.861Z" fill="#F7FDF9"/>
<path d="M260.682 243.097C260.689 243.089 260.703 243.072 260.71 243.063C262.182 241.254 264.597 240.865 266.201 242.17C267.831 243.496 267.944 245.885 266.444 247.728C265.674 248.675 264.657 249.21 263.547 249.285C263.461 249.286 263.4 249.222 263.407 249.143L263.434 248.413C263.433 248.327 263.521 248.271 263.601 248.294C264.285 248.482 265.524 248.441 266.26 247.536C267.322 246.231 266.633 244.167 265.396 243.16C263.826 241.883 261.962 241.926 260.858 243.283C260.289 243.982 260.171 244.737 260.262 245.322C260.339 245.838 260.657 246.196 261.015 246.488C261.468 246.856 262.133 246.788 262.501 246.335L262.883 245.866L263.181 246.109L261.363 248.345L261.311 248.303C259.733 247.019 259.415 244.69 260.682 243.097Z" fill="#F7FDF9"/>
<path d="M248.105 258.395L247.888 258.598L246.95 257.593L251.042 253.771L251.245 253.988L251.237 253.996C251.019 254.44 251.094 254.971 251.425 255.325L254.368 258.476C254.698 258.83 255.224 258.941 255.674 258.747L255.689 258.747L255.892 258.964L253.85 260.871L253.647 260.654L253.648 260.639C253.882 260.18 253.76 259.631 253.415 259.261L250.494 256.134C250.096 255.708 249.428 255.685 249.002 256.083L248.238 256.796C248.213 256.834 247.838 257.561 248.105 258.395Z" fill="#F7FDF9"/>
<path d="M240.06 265.128L239.829 265.315L238.955 264.24L243.605 260.457L243.799 260.696L243.791 260.703C243.535 261.138 243.61 261.7 243.936 262.101L246.56 265.327C246.88 265.719 247.416 265.907 247.894 265.745C247.9 265.754 247.909 265.747 247.909 265.747L248.096 265.977L243.557 269.671L243.37 269.44L242.689 268.604L242.92 268.416C243.703 268.786 244.489 268.515 244.53 268.496L246.271 267.08C246.313 267.045 246.32 266.983 246.285 266.941L244.536 264.79C244.501 264.748 244.432 264.733 244.389 264.767L243.545 265.455C243.451 265.531 242.83 266.093 243.04 266.943L242.809 267.131L241.56 265.595L241.79 265.407C242.506 265.747 243.204 265.349 243.34 265.238L244.202 264.537C244.245 264.502 244.251 264.44 244.216 264.398L242.3 262.043C242.266 262 242.204 261.994 242.161 262.028L240.309 263.535C240.301 263.542 239.843 264.269 240.06 265.128Z" fill="#F7FDF9"/>
<path d="M232.673 269.844C232.513 269.769 232.155 269.644 231.731 269.768L231.56 269.526L233.798 267.946L233.969 268.189C233.854 268.351 233.804 268.508 233.78 268.646C233.744 268.9 233.873 269.159 234.111 269.287L234.254 269.375C234.297 269.398 234.352 269.4 234.397 269.368L237.632 267.084C237.668 267.059 237.685 267.006 237.678 266.958L237.65 266.843C237.601 266.581 237.393 266.364 237.124 266.326C236.971 266.299 236.781 266.298 236.566 266.356L236.395 266.113L237.824 265.104L237.995 265.347C237.818 265.593 237.821 265.901 237.841 266.102L237.88 266.29L237.886 266.299L239.02 272.083C239.055 272.247 239.15 272.382 239.284 272.476L239.504 272.616L238.857 273.073C238.659 273.213 238.413 273.225 238.205 273.103L232.673 269.844ZM234.658 269.547C234.64 269.56 234.644 269.584 234.666 269.596L238.698 272.122C238.71 272.14 238.737 272.121 238.733 272.097L237.784 267.394C237.78 267.37 237.759 267.359 237.741 267.371L234.658 269.547Z" fill="#F7FDF9"/>
<path d="M227.213 275.476L223.922 274.234L226.403 272.725L226.557 272.979C226.477 273.079 226.411 273.183 226.37 273.286C226.212 273.639 226.403 274.038 226.755 274.172L227.946 274.606C228.135 274.684 228.35 274.657 228.528 274.548L229.346 274.051C229.478 273.971 229.528 273.799 229.448 273.667L228.945 272.84C228.682 272.408 228.175 272.188 227.685 272.293L227.531 272.039L229.918 270.588L230.072 270.841C229.763 271.222 229.725 271.773 229.988 272.206L232.217 275.871C232.468 276.285 232.96 276.501 233.441 276.402L233.456 276.405L233.61 276.659L230.508 278.545C229.108 279.397 227.705 279.207 227.019 278.079C226.528 277.271 226.639 276.353 227.252 275.582C227.268 275.546 227.264 275.497 227.213 275.476ZM228.818 274.707C228.066 275.164 227.443 276.341 228.1 277.422C228.872 278.691 230.072 278.463 230.824 278.006L231.501 277.594C231.632 277.514 231.682 277.342 231.602 277.211L229.888 274.391C229.808 274.259 229.626 274.215 229.495 274.295L228.818 274.707Z" fill="#F7FDF9"/>
<path d="M217.53 285.296C217.525 285.286 217.535 285.281 217.545 285.276C217.884 284.902 217.915 284.341 217.682 283.892L215.713 280.093C215.572 279.819 215.328 279.611 215.031 279.542C214.888 279.504 214.721 279.492 214.534 279.514L214.397 279.251L215.491 278.684C215.706 278.572 215.942 278.549 216.16 278.635L223.069 281.113C223.128 281.132 223.191 281.062 223.16 281.004L221.242 277.277C221.019 276.848 220.543 276.599 220.052 276.655L220.033 276.665L219.896 276.401L221.586 275.526L221.722 275.79C221.388 276.149 221.312 276.696 221.545 277.145L223.701 281.306C223.781 281.364 224.164 281.648 224.718 281.571L224.855 281.835L223.771 282.397C223.566 282.503 223.33 282.526 223.112 282.441L216.22 280.09C216.161 280.071 216.108 280.136 216.138 280.195L217.965 283.745C218.198 284.194 218.684 284.487 219.185 284.426C219.185 284.426 219.195 284.421 219.2 284.431L219.337 284.694L218.643 285.054L218.36 285.201L217.667 285.56L217.53 285.296Z" fill="#F7FDF9"/>
<path d="M207.717 283.618L207.445 283.736L206.892 282.465L212.391 280.076L212.514 280.359L212.504 280.363C212.14 280.713 212.06 281.275 212.266 281.749L213.923 285.563C214.125 286.027 214.59 286.353 215.094 286.326C215.098 286.336 215.108 286.332 215.108 286.332L215.227 286.604L209.859 288.935L209.741 288.663L209.311 287.674L209.584 287.556C210.238 288.123 211.068 288.075 211.113 288.067L213.171 287.173C213.222 287.151 213.244 287.093 213.222 287.043L212.118 284.5C212.096 284.45 212.034 284.417 211.983 284.439L210.985 284.873C210.874 284.921 210.124 285.294 210.097 286.17L209.824 286.288L209.036 284.472L209.308 284.354C209.906 284.874 210.685 284.679 210.846 284.609L211.865 284.166C211.916 284.145 211.938 284.087 211.916 284.036L210.707 281.252C210.685 281.201 210.627 281.178 210.577 281.2L208.387 282.151C208.377 282.156 207.74 282.732 207.717 283.618Z" fill="#F7FDF9"/>
<path d="M201.575 287.354L198.605 285.468L201.341 284.495L201.44 284.775C201.341 284.857 201.256 284.946 201.195 285.037C200.968 285.351 201.074 285.781 201.391 285.983L202.469 286.651C202.638 286.766 202.854 286.782 203.051 286.712L203.953 286.392C204.098 286.34 204.182 286.182 204.13 286.037L203.806 285.125C203.637 284.648 203.185 284.33 202.684 284.333L202.585 284.053L205.217 283.117L205.317 283.397C204.937 283.707 204.787 284.239 204.957 284.716L206.393 288.758C206.555 289.214 206.993 289.526 207.484 289.527L207.498 289.533L207.597 289.813L204.177 291.029C202.632 291.578 201.297 291.106 200.855 289.863C200.539 288.971 200.834 288.096 201.591 287.465C201.615 287.433 201.621 287.384 201.575 287.354ZM203.303 286.927C202.473 287.221 201.624 288.247 202.047 289.439C202.545 290.838 203.766 290.859 204.595 290.565L205.342 290.299C205.487 290.248 205.571 290.09 205.519 289.945L204.414 286.835C204.362 286.69 204.194 286.61 204.049 286.661L203.303 286.927Z" fill="#F7FDF9"/>
</svg>
