<svg width="84" height="110" viewBox="0 0 84 110" fill="none" xmlns="http://www.w3.org/2000/svg">
<path d="M60.3333 50.4167H83.25L42 96.25L0.75 50.4167H23.6667V0H60.3333V50.4167ZM64.9167 100.833H19.0833V110H64.9167V100.833Z" fill="#F7FDF9"/>
<path d="M41.74 46.28C41.82 46.32 41.84 46.44 41.78 46.5C40.48 48.24 38.32 49.26 35.86 49.26C31.64 49.26 28.34 46.3 28.34 42.54C28.34 38.78 31.64 35.82 35.88 35.82C38.34 35.82 40.46 36.82 41.78 38.58C41.84 38.66 41.82 38.76 41.74 38.8L40.42 39.66C40.34 39.72 40.22 39.68 40.2 39.58C39.78 38.06 38.06 36.34 35.88 36.34C32.56 36.34 30.66 39.7 30.66 42.56C30.66 45.4 32.36 48.74 35.88 48.74C38.28 48.74 40.02 46.74 40.22 45.54C40.24 45.44 40.36 45.38 40.46 45.44L41.74 46.28ZM52.2886 36.08H55.7686V36.62C54.9886 36.9 54.1686 38.32 53.9286 38.9L49.0886 49H48.3486L42.9486 37.66C42.7686 37.36 42.3686 36.88 41.6686 36.62V36.08H46.9886V36.62C46.9486 36.62 46.9286 36.64 46.9086 36.64C46.0086 37 45.6286 38.06 46.0086 38.94L49.0686 45.78C49.2286 46.12 49.7286 46.14 49.8886 45.78L53.2286 38.88C53.6486 38.02 53.2286 36.96 52.3086 36.64L52.2886 36.62V36.08Z" fill="#0C2717"/>
</svg>
