<svg width="110" height="110" viewBox="0 0 110 110" fill="none" xmlns="http://www.w3.org/2000/svg">
<g clip-path="url(#clip0_92_4)">
<path fill-rule="evenodd" clip-rule="evenodd" d="M55 0C24.6308 0 0 24.6217 0 55C0 85.3737 24.6308 110 55 110C85.3737 110 110 85.3737 110 55C110 24.6217 85.3737 0 55 0ZM69.8867 84.095L68.1862 78.1596L72.2929 81.9775L76.175 85.5708L83.0729 91.6667V34.1092C83.0729 30.4517 80.1213 27.5 76.4958 27.5H33.5042C29.8787 27.5 26.9271 30.4517 26.9271 34.1092V77.4858C26.9271 81.1433 29.8787 84.095 33.5042 84.095H69.8867ZM64.1117 69.4008L61.9942 66.8021C66.1971 65.615 67.8013 62.9842 67.8013 62.9842C66.4858 63.8504 65.2346 64.46 64.1117 64.8771C62.5075 65.5508 60.9675 66 59.4596 66.2567C56.3796 66.8342 53.5563 66.6738 51.15 66.2246C49.3213 65.8717 47.7492 65.3583 46.4338 64.845C45.6958 64.5563 44.8937 64.2033 44.0917 63.7542L43.9633 63.6808L43.9313 63.6671L43.8029 63.5938L43.6746 63.4975L42.7763 62.9521C42.7763 62.9521 44.3162 65.5188 48.3908 66.7379L46.2412 69.4008C39.1508 69.1763 36.4558 64.5242 36.4558 64.5242C36.4558 54.1933 41.0758 45.8196 41.0758 45.8196C45.6958 42.3546 50.0913 42.4508 50.0913 42.4508L50.4121 42.8358C44.6371 44.5042 41.9742 47.0387 41.9742 47.0387L43.8671 46.1083C47.3 44.6004 50.0271 44.1833 51.15 44.0871L51.6954 44.0229C53.6525 43.7663 55.8663 43.7021 58.1763 43.9587C61.2242 44.3117 64.4967 45.21 67.8333 47.0387C67.8333 47.0387 65.2988 44.6325 59.8446 42.9642L60.2938 42.4508C60.2938 42.4508 64.6892 42.3546 69.3092 45.8196C69.3092 45.8196 73.9292 54.1933 73.9292 64.5242C73.9292 64.5242 71.3029 69.0021 64.1117 69.4008ZM60.9033 54.4179C59.0746 54.4179 57.6308 56.0221 57.6308 57.9792C57.6308 59.9362 59.1067 61.5404 60.9033 61.5404C62.7321 61.5404 64.1758 59.9362 64.1758 57.9792C64.1758 56.0221 62.7321 54.4179 60.9033 54.4179ZM49.1929 54.4179C47.3642 54.4179 45.9204 56.0221 45.9204 57.9792C45.9204 59.9362 47.3963 61.5404 49.1929 61.5404C51.0217 61.5404 52.4654 59.9362 52.4654 57.9792C52.4975 56.0221 51.0217 54.4179 49.1929 54.4179Z" fill="#F7FDF9"/>
</g>
<defs>
<clipPath id="clip0_92_4">
<rect width="110" height="110" fill="white"/>
</clipPath>
</defs>
</svg>
