<svg width="30" height="18" viewBox="0 0 30 18" fill="none" xmlns="http://www.w3.org/2000/svg">
<path d="M15 0C6.45 0 0 3.22344 0 7.49638C0 11.1696 4.785 14.0632 11.565 14.8128L10.935 15.4275C10.7944 15.5669 10.6828 15.7327 10.6067 15.9154C10.5305 16.0981 10.4913 16.2941 10.4913 16.492C10.4913 16.69 10.5305 16.8859 10.6067 17.0686C10.6828 17.2513 10.7944 17.4171 10.935 17.5565C11.0744 17.697 11.2403 17.8086 11.4231 17.8847C11.6059 17.9608 11.802 18 12 18C12.198 18 12.3941 17.9608 12.5769 17.8847C12.7597 17.8086 12.9256 17.697 13.065 17.5565L16.065 14.558C16.2016 14.4154 16.3086 14.2472 16.38 14.0632C16.53 13.6982 16.53 13.2888 16.38 12.9238C16.3086 12.7397 16.2016 12.5716 16.065 12.429L13.065 9.43044C12.7825 9.14812 12.3995 8.98952 12 8.98952C11.6005 8.98952 11.2175 9.14812 10.935 9.43044C10.6525 9.71276 10.4939 10.0957 10.4939 10.4949C10.4939 10.8942 10.6525 11.2771 10.935 11.5594L11.115 11.7243C6 11.0047 3 8.99565 3 7.49638C3 5.66726 7.68 2.99855 15 2.99855C22.32 2.99855 27 5.66726 27 7.49638C27 8.74078 24.825 10.4949 20.685 11.3945C20.489 11.432 20.3025 11.5082 20.1364 11.6187C19.9703 11.7291 19.8279 11.8716 19.7175 12.0378C19.6072 12.2039 19.5311 12.3904 19.4938 12.5863C19.4564 12.7822 19.4585 12.9836 19.5 13.1786C19.541 13.3718 19.6197 13.555 19.7317 13.7176C19.8436 13.8803 19.9867 14.0193 20.1525 14.1265C20.3184 14.2338 20.5038 14.3073 20.6982 14.3427C20.8925 14.3782 21.0919 14.3749 21.285 14.3331C26.76 13.1337 30 10.5849 30 7.49638C30 3.22344 23.55 0 15 0Z" fill="#FFB247"/>
</svg>
