<svg width="110" height="110" viewBox="0 0 110 110" fill="none" xmlns="http://www.w3.org/2000/svg">
<path d="M87.0833 0H22.9167C10.2621 0 0 10.2621 0 22.9167V87.0833C0 99.7379 10.2621 110 22.9167 110H87.0833C99.7425 110 110 99.7379 110 87.0833V22.9167C110 10.2621 99.7425 0 87.0833 0ZM36.6667 87.0833H22.9167V36.6667H36.6667V87.0833ZM29.7917 30.855C25.3642 30.855 21.7708 27.2342 21.7708 22.77C21.7708 18.3058 25.3642 14.685 29.7917 14.685C34.2192 14.685 37.8125 18.3058 37.8125 22.77C37.8125 27.2342 34.2238 30.855 29.7917 30.855ZM91.6667 87.0833H77.9167V61.3983C77.9167 45.9617 59.5833 47.1304 59.5833 61.3983V87.0833H45.8333V36.6667H59.5833V44.7563C65.9817 32.9038 91.6667 32.0283 91.6667 56.1046V87.0833Z" fill="#F7FDF9"/>
<rect x="12" y="15" width="85" height="78" fill="#F7FDF9"/>
<path d="M35.04 83H22.88V43.88H35.04V83ZM29.04 26.92C32.96 26.92 35.36 29.56 35.44 33C35.44 36.36 32.96 39.08 28.88 39.08C25.04 39.08 22.56 36.36 22.56 33C22.56 29.56 25.12 26.92 29.04 26.92ZM44.8331 83V56.36C44.8331 51.48 44.6731 47.4 44.5131 43.88H55.0731L55.6331 49.32H55.8731C57.4731 46.76 61.3931 43 67.9531 43C75.9531 43 81.9531 48.36 81.9531 59.88V83H69.7931V61.32C69.7931 56.28 68.0331 52.84 63.6331 52.84C60.2731 52.84 58.2731 55.16 57.3931 57.4C57.0731 58.2 56.9931 59.32 56.9931 60.44V83H44.8331Z" fill="black"/>
</svg>
