<svg width="156" height="211" viewBox="0 0 156 211" fill="none" xmlns="http://www.w3.org/2000/svg">
<path d="M118.325 28.325C118.325 25.55 120.75 23.675 124.35 23.675C126.925 23.675 129.225 24.75 130.65 26.575C130.75 26.7 130.725 26.925 130.575 27.025L129.325 27.875C129.175 27.975 128.95 27.925 128.875 27.75C128.325 26.425 126.8 24.35 124.35 24.35C122.4 24.35 121.175 26.125 121.175 27.6C121.175 29.075 122.35 30.15 123.85 30.8L125.875 31.625C128.825 32.875 130.075 34.225 130.075 36.1C130.075 38.675 127.725 40.475 124.4 40.475C122.175 40.475 120.3 39.625 119.125 38.125C119.025 37.975 119.05 37.775 119.2 37.675L120.45 36.775C120.6 36.675 120.8 36.725 120.9 36.875C121.55 38.125 122.625 39.75 124.4 39.75C126.125 39.75 127.225 38.325 127.225 37C127.225 35.6 125.95 34.25 124.725 33.725L122.6 32.875C119.525 31.625 118.325 30.35 118.325 28.325ZM103.708 27.125H103.033V23.975L116.658 23.975V24.675H116.633C115.558 25.075 114.883 26.175 114.883 27.35V36.8C114.883 37.95 115.558 39.05 116.633 39.45C116.633 39.475 116.658 39.475 116.658 39.475V40.15H103.358V39.475V37.025H104.033C104.883 38.8 106.658 39.45 106.758 39.475H111.858C111.983 39.475 112.083 39.375 112.083 39.25V32.95C112.083 32.825 111.983 32.7 111.858 32.7H109.383C109.108 32.7 107.208 32.8 106.358 34.6H105.683V30.1H106.358C107.133 31.725 108.933 32.025 109.333 32.025H111.858C111.983 32.025 112.083 31.925 112.083 31.8V24.9C112.083 24.775 111.983 24.675 111.858 24.675H106.433C106.408 24.675 104.558 25.3 103.708 27.125ZM88.2516 40.15H83.9016V39.475C84.8766 39.125 85.9016 37.35 86.2016 36.625L92.2516 24H93.1766L99.9266 38.175C100.152 38.55 100.652 39.15 101.527 39.475V40.15L94.8766 40.15V39.475C94.9266 39.475 94.9516 39.45 94.9766 39.45C96.1016 39 96.5766 37.675 96.1016 36.575L92.2766 28.025C92.0766 27.6 91.4516 27.575 91.2516 28.025L87.0766 36.65C86.5516 37.725 87.0766 39.05 88.2266 39.45L88.2516 39.475V40.15ZM69.592 27.125H68.917V23.975H82.542V24.675H82.517C81.442 25.075 80.767 26.175 80.767 27.35V36.8C80.767 37.95 81.442 39.05 82.517 39.45C82.517 39.475 82.542 39.475 82.542 39.475V40.15H69.242V39.475V37.025H69.917C70.767 38.8 72.542 39.45 72.642 39.475H77.742C77.867 39.475 77.967 39.375 77.967 39.25V32.95C77.967 32.825 77.867 32.7 77.742 32.7H75.267C74.992 32.7 73.092 32.8 72.242 34.6H71.567V30.1H72.242C73.017 31.725 74.817 32.025 75.217 32.025H77.742C77.867 32.025 77.967 31.925 77.967 31.8V24.9C77.967 24.775 77.867 24.675 77.742 24.675H72.317C72.292 24.675 70.442 25.3 69.592 27.125ZM55.9604 30.3L51.0354 24H57.6354V24.675C57.3604 24.775 57.1104 24.9 56.9104 25.05C56.1854 25.55 56.0854 26.55 56.6104 27.225L58.4104 29.475C58.6854 29.85 59.1354 30.05 59.6104 30.05H61.7854C62.1354 30.05 62.4354 29.775 62.4354 29.425V27.225C62.4354 26.075 61.7104 25.05 60.6354 24.675V24H66.9854V24.675C65.9354 25.05 65.2104 26.075 65.2104 27.225V36.975C65.2104 38.075 65.9104 39.075 66.9604 39.45L66.9854 39.475V40.15H58.7354C55.0104 40.15 52.5104 38.125 52.5104 35.125C52.5104 32.975 53.8104 31.325 55.9104 30.55C55.9854 30.5 56.0354 30.4 55.9604 30.3ZM59.9854 30.7C57.9854 30.7 55.3854 32.25 55.3854 35.125C55.3854 38.5 57.9854 39.475 59.9854 39.475H61.7854C62.1354 39.475 62.4354 39.2 62.4354 38.85V31.35C62.4354 31 62.1354 30.7 61.7854 30.7H59.9854ZM43.1744 39.475C43.1744 39.475 43.1994 39.475 43.2244 39.45C44.2994 39.05 44.9494 37.95 44.9494 36.8V27.35C44.9494 26.175 44.2994 25.075 43.2244 24.675C43.1994 24.675 43.1744 24.675 43.1744 24.675V23.975H49.5244V24.675H49.4994C48.4244 25.075 47.7494 26.175 47.7494 27.35V36.8C47.7494 37.95 48.4244 39.05 49.4994 39.45C49.4994 39.475 49.5244 39.475 49.5244 39.475V40.15L43.1744 40.15V39.475ZM22.9896 39.475C22.9896 39.45 23.0146 39.45 23.0396 39.45C24.1146 39.05 24.7646 37.95 24.7646 36.8V27.075C24.7646 26.375 24.4896 25.7 23.9646 25.25C23.7146 25.025 23.3896 24.825 22.9896 24.675V24H25.7896C26.3396 24 26.8396 24.2 27.1896 24.6L38.5396 36.825C38.6396 36.925 38.8396 36.85 38.8396 36.7L38.8646 27.175C38.8646 26.075 38.1646 25.075 37.1146 24.675H37.0646V24H41.3896V24.675C40.3396 25.05 39.6146 26.075 39.6146 27.225V37.875C39.7146 38.075 40.1896 39.05 41.3896 39.475V40.15H38.6146C38.0896 40.15 37.5896 39.95 37.2396 39.55L25.7896 27.6C25.6896 27.5 25.5146 27.575 25.5146 27.725L25.4896 36.8C25.4896 37.95 26.1646 39.05 27.2396 39.45C27.2396 39.45 27.2646 39.45 27.2646 39.475V40.15H25.4896H24.7646H22.9896V39.475Z" fill="#FFB247"/>
<path d="M12.54 86.86C14.76 86.86 16.26 88.8 16.26 91.68C16.26 93.74 15.4 95.58 13.94 96.72C13.84 96.8 13.66 96.78 13.58 96.66L12.9 95.66C12.82 95.54 12.86 95.36 13 95.3C14.06 94.86 15.72 93.64 15.72 91.68C15.72 90.12 14.3 89.14 13.12 89.14C11.94 89.14 11.08 90.08 10.56 91.28L9.9 92.9C8.9 95.26 7.82 96.26 6.32 96.26C4.26 96.26 2.82 94.38 2.82 91.72C2.82 89.94 3.5 88.44 4.7 87.5C4.82 87.42 4.98 87.44 5.06 87.56L5.78 88.56C5.86 88.68 5.82 88.84 5.7 88.92C4.7 89.44 3.4 90.3 3.4 91.72C3.4 93.1 4.54 93.98 5.6 93.98C6.72 93.98 7.8 92.96 8.22 91.98L8.9 90.28C9.9 87.82 10.92 86.86 12.54 86.86ZM13.5 75.1666V74.6266H16.02V85.5266H15.46V85.5066C15.14 84.6466 14.26 84.1066 13.32 84.1066H5.76C4.84 84.1066 3.96 84.6466 3.64 85.5066C3.62 85.5066 3.62 85.5266 3.62 85.5266H3.08L3.08 74.8866H3.62H5.58L5.58 75.4266C4.16 76.1066 3.64 77.5266 3.62 77.6066L3.62 81.6866C3.62 81.7866 3.7 81.8666 3.8 81.8666H8.84C8.94 81.8666 9.04 81.7866 9.04 81.6866V79.7066C9.04 79.4866 8.96 77.9666 7.52 77.2866V76.7466H11.12V77.2866C9.82 77.9066 9.58 79.3466 9.58 79.6666V81.6866C9.58 81.7866 9.66 81.8666 9.76 81.8666H15.28C15.38 81.8666 15.46 81.7866 15.46 81.6866V77.3466C15.46 77.3266 14.96 75.8466 13.5 75.1666ZM3.08 62.8012V59.3212H3.62C3.9 60.1012 5.32 60.9212 5.9 61.1612L16 66.0012V66.7412L4.66 72.1412C4.36 72.3212 3.88 72.7212 3.62 73.4213H3.08L3.08 68.1012H3.62C3.62 68.1413 3.64 68.1612 3.64 68.1812C4 69.0812 5.06 69.4612 5.94 69.0812L12.78 66.0212C13.12 65.8612 13.14 65.3612 12.78 65.2012L5.88 61.8612C5.02 61.4412 3.96 61.8612 3.64 62.7812L3.62 62.8012H3.08ZM13.5 47.8736V47.3336H16.02V58.2336H15.46V58.2136C15.14 57.3536 14.26 56.8136 13.32 56.8136H5.76C4.84 56.8136 3.96 57.3536 3.64 58.2136C3.62 58.2136 3.62 58.2336 3.62 58.2336H3.08L3.08 47.5936H3.62H5.58V48.1336C4.16 48.8136 3.64 50.2336 3.62 50.3136V54.3936C3.62 54.4936 3.7 54.5736 3.8 54.5736H8.84C8.94 54.5736 9.04 54.4936 9.04 54.3936L9.04 52.4136C9.04 52.1936 8.96 50.6736 7.52 49.9936V49.4536H11.12V49.9936C9.82 50.6136 9.58 52.0536 9.58 52.3736L9.58 54.3936C9.58 54.4936 9.66 54.5736 9.76 54.5736H15.28C15.38 54.5736 15.46 54.4936 15.46 54.3936L15.46 50.0536C15.46 50.0336 14.96 48.5536 13.5 47.8736ZM10.96 36.9683L16 33.0283V38.3083H15.46C15.38 38.0883 15.28 37.8883 15.16 37.7283C14.76 37.1483 13.96 37.0683 13.42 37.4883L11.62 38.9283C11.32 39.1483 11.16 39.5083 11.16 39.8883V41.6283C11.16 41.9083 11.38 42.1483 11.66 42.1483H13.42C14.34 42.1483 15.16 41.5683 15.46 40.7083H16V45.7883H15.46C15.16 44.9483 14.34 44.3683 13.42 44.3683H5.62C4.74 44.3683 3.94 44.9283 3.64 45.7683L3.62 45.7883H3.08L3.08 39.1883C3.08 36.2083 4.7 34.2083 7.1 34.2083C8.82 34.2083 10.14 35.2483 10.76 36.9283C10.8 36.9883 10.88 37.0283 10.96 36.9683ZM10.64 40.1883C10.64 38.5883 9.4 36.5083 7.1 36.5083C4.4 36.5083 3.62 38.5883 3.62 40.1883V41.6283C3.62 41.9083 3.84 42.1483 4.12 42.1483H10.12C10.4 42.1483 10.64 41.9083 10.64 41.6283V40.1883ZM3.62 26.7395C3.62 26.7395 3.62 26.7595 3.64 26.7795C3.96 27.6395 4.84 28.1595 5.76 28.1595H13.32C14.26 28.1595 15.14 27.6395 15.46 26.7795C15.46 26.7595 15.46 26.7395 15.46 26.7395H16.02V31.8195H15.46V31.7995C15.14 30.9395 14.26 30.3995 13.32 30.3995H5.76C4.84 30.3995 3.96 30.9395 3.64 31.7995C3.62 31.7995 3.62 31.8195 3.62 31.8195H3.08L3.08 26.7395H3.62ZM3.62 10.5917C3.64 10.5917 3.64 10.6117 3.64 10.6317C3.96 11.4917 4.84 12.0117 5.76 12.0117H13.54C14.1 12.0117 14.64 11.7917 15 11.3717C15.18 11.1717 15.34 10.9117 15.46 10.5917H16V12.8317C16 13.2717 15.84 13.6717 15.52 13.9517L5.74 23.0317C5.66 23.1117 5.72 23.2717 5.84 23.2717L13.46 23.2917C14.34 23.2917 15.14 22.7317 15.46 21.8917V21.8517H16V25.3117H15.46C15.16 24.4717 14.34 23.8917 13.42 23.8917H4.9C4.74 23.9717 3.96 24.3517 3.62 25.3117H3.08V23.0917C3.08 22.6717 3.24 22.2717 3.56 21.9917L13.12 12.8317C13.2 12.7517 13.14 12.6117 13.02 12.6117L5.76 12.5917C4.84 12.5917 3.96 13.1317 3.64 13.9917C3.64 13.9917 3.64 14.0117 3.62 14.0117H3.08L3.08 12.5917V12.0117V10.5917H3.62Z" fill="#FFB247"/>
<path d="M110.75 169.3C110.75 168.275 110.225 167.3 109.325 166.825C109.225 166.775 109.1 166.725 108.95 166.675V166H115.325V166.675C115.3 166.675 115.275 166.675 115.275 166.7C114.2 167.1 113.525 168.175 113.525 169.325V178.1C113.525 178.225 113.7 178.275 113.775 178.175L118.975 169.75H119.75L127 178.175C127.075 178.275 127.225 178.2 127.225 178.1L127.25 169.325C127.25 168.175 126.575 167.075 125.5 166.675H125.475V166H129.75V166.675C129.625 166.725 129.5 166.775 129.375 166.85C128.475 167.3 127.95 168.3 127.95 169.3V179.85C128 179.925 128.45 181.025 129.75 181.475V182.15H126.75H126.525L118.7 172.95C118.5 172.7 118.125 172.725 117.95 173L112.2 182.15H108.975V181.475C110.15 181.05 110.65 180.1 110.75 179.9V169.3ZM91.8115 168.05C91.6115 167.7 91.1115 167 90.1615 166.675V166H96.3865V166.675C95.9615 166.825 95.6615 167.05 95.4365 167.275C95.0365 167.7 94.9365 168.35 95.2115 168.9L95.3615 169.25C95.4115 169.35 95.5115 169.425 95.6365 169.425H104.637C104.737 169.425 104.837 169.35 104.887 169.25L104.987 169C105.237 168.45 105.137 167.775 104.687 167.35C104.437 167.1 104.087 166.85 103.612 166.675V166H107.587V166.675C106.937 166.9 106.537 167.475 106.312 167.875L106.137 168.275V168.3L100.662 180.525C100.512 180.875 100.512 181.25 100.637 181.6L100.862 182.15H99.0615C98.5115 182.15 98.0365 181.85 97.8115 181.35L91.8115 168.05ZM95.8865 170.1C95.8365 170.1 95.8115 170.15 95.8365 170.2L100.012 180.175C100.012 180.225 100.087 180.225 100.112 180.175L104.512 170.2C104.537 170.15 104.512 170.1 104.462 170.1H95.8865ZM73.4354 169.4C73.3354 169.35 73.3104 169.2 73.3854 169.125C75.0104 166.95 77.7104 165.675 80.7854 165.675C86.0604 165.675 90.1854 169.375 90.1854 174.075C90.1854 178.775 86.0604 182.475 80.7604 182.475C77.6854 182.475 75.0354 181.225 73.3854 179.025C73.3104 178.925 73.3354 178.8 73.4354 178.75L75.0854 177.675C75.1854 177.6 75.3354 177.65 75.3604 177.775C75.8854 179.675 78.0354 181.825 80.7604 181.825C84.9104 181.825 87.2854 177.625 87.2854 174.05C87.2854 170.5 85.1604 166.325 80.7604 166.325C77.7604 166.325 75.5854 168.825 75.3354 170.325C75.3104 170.45 75.1604 170.525 75.0354 170.45L73.4354 169.4ZM53.4984 181.475L53.5234 181.45C54.5734 181.075 55.2734 180.075 55.2734 178.975V169.175C55.2734 168.075 54.5734 167.075 53.5234 166.675H53.4984V166H59.8484V166.675C58.7734 167.05 58.0734 168.075 58.0734 169.225V173.725C58.0734 173.9 58.1984 174.025 58.3734 174.025H67.0234C67.1984 174.025 67.3234 173.9 67.3234 173.725V169.175C67.3234 168.075 66.6484 167.075 65.5984 166.675H65.5484V166H71.8984V166.675C70.8484 167.05 70.1234 168.075 70.1234 169.225V178.975C70.1234 180.075 70.8234 181.075 71.8734 181.45L71.8984 181.475V182.15H65.5484V181.475L65.5984 181.45C66.6484 181.075 67.3234 180.075 67.3234 178.975V175.025C67.3234 174.85 67.1984 174.7 67.0234 174.7H58.3734C58.1984 174.7 58.0734 174.85 58.0734 175.025V178.925C58.0734 180.075 58.7734 181.075 59.8484 181.475V182.15H53.4984V181.475ZM36.3525 168.05C36.1525 167.7 35.6525 167 34.7025 166.675V166H40.9275V166.675C40.5025 166.825 40.2025 167.05 39.9775 167.275C39.5775 167.7 39.4775 168.35 39.7525 168.9L39.9025 169.25C39.9525 169.35 40.0525 169.425 40.1775 169.425H49.1775C49.2775 169.425 49.3775 169.35 49.4275 169.25L49.5275 169C49.7775 168.45 49.6775 167.775 49.2275 167.35C48.9775 167.1 48.6275 166.85 48.1525 166.675V166H52.1275V166.675C51.4775 166.9 51.0775 167.475 50.8525 167.875L50.6775 168.275V168.3L45.2025 180.525C45.0525 180.875 45.0525 181.25 45.1775 181.6L45.4025 182.15H43.6025C43.0525 182.15 42.5775 181.85 42.3525 181.35L36.3525 168.05ZM40.4275 170.1C40.3775 170.1 40.3525 170.15 40.3775 170.2L44.5525 180.175C44.5525 180.225 44.6275 180.225 44.6525 180.175L49.0525 170.2C49.0775 170.15 49.0525 170.1 49.0025 170.1H40.4275ZM20.6162 169.125H19.9412V166H33.2912V167.275L23.1912 180.925C23.0162 181.15 23.1912 181.475 23.4662 181.475H29.3412C30.3412 181.375 31.1162 180.675 31.8912 179.05H32.5662V182.175L20.3412 182.15V180.925L30.0412 167.225C30.1912 166.975 30.0412 166.675 29.7412 166.675H23.3912C22.2662 166.675 21.4412 167.35 20.6162 169.125Z" fill="#FFB247"/>
<path d="M13.36 184.6C14.18 184.6 14.96 184.18 15.34 183.46C15.38 183.38 15.42 183.28 15.46 183.16H16V188.26H15.46C15.46 188.24 15.46 188.22 15.44 188.22C15.12 187.36 14.26 186.82 13.34 186.82H6.32C6.22 186.82 6.18 186.96 6.26 187.02L13 191.18V191.8L6.26 197.6C6.18 197.66 6.24 197.78 6.32 197.78L13.34 197.8C14.26 197.8 15.14 197.26 15.46 196.4V196.38H16V199.8H15.46C15.42 199.7 15.38 199.6 15.32 199.5C14.96 198.78 14.16 198.36 13.36 198.36H4.92C4.86 198.4 3.98 198.76 3.62 199.8H3.08V197.4V197.22L10.44 190.96C10.64 190.8 10.62 190.5 10.4 190.36L3.08 185.76V183.18H3.62C3.96 184.12 4.72 184.52 4.88 184.6H13.36ZM14.36 169.449C14.64 169.289 15.2 168.889 15.46 168.129H16L16 173.109H15.46C15.34 172.769 15.16 172.529 14.98 172.349C14.64 172.029 14.12 171.949 13.68 172.169L13.4 172.289C13.32 172.329 13.26 172.409 13.26 172.509V179.709C13.26 179.789 13.32 179.869 13.4 179.909L13.6 179.989C14.04 180.189 14.58 180.109 14.92 179.749C15.12 179.549 15.32 179.269 15.46 178.889H16V182.069H15.46C15.28 181.549 14.82 181.229 14.5 181.049L14.18 180.909H14.16L4.38 176.529C4.1 176.409 3.8 176.409 3.52 176.509L3.08 176.689V175.249C3.08 174.809 3.32 174.429 3.72 174.249L14.36 169.449ZM12.72 172.709C12.72 172.669 12.68 172.649 12.64 172.669L4.66 176.009C4.62 176.009 4.62 176.069 4.66 176.089L12.64 179.609C12.68 179.629 12.72 179.609 12.72 179.569V172.709ZM13.28 154.748C13.32 154.668 13.44 154.648 13.5 154.708C15.24 156.008 16.26 158.168 16.26 160.628C16.26 164.848 13.3 168.148 9.54 168.148C5.78 168.148 2.82 164.848 2.82 160.608C2.82 158.148 3.82 156.028 5.58 154.708C5.66 154.648 5.76 154.668 5.8 154.748L6.66 156.068C6.72 156.148 6.68 156.268 6.58 156.288C5.06 156.708 3.34 158.428 3.34 160.608C3.34 163.928 6.7 165.828 9.56 165.828C12.4 165.828 15.74 164.128 15.74 160.608C15.74 158.208 13.74 156.468 12.54 156.268C12.44 156.248 12.38 156.128 12.44 156.028L13.28 154.748ZM3.62 138.799L3.64 138.819C3.94 139.659 4.74 140.219 5.62 140.219H13.46C14.34 140.219 15.14 139.659 15.46 138.819V138.799H16V143.879H15.46C15.16 143.019 14.34 142.459 13.42 142.459H9.82C9.68 142.459 9.58 142.559 9.58 142.699V149.619C9.58 149.759 9.68 149.859 9.82 149.859H13.46C14.34 149.859 15.14 149.319 15.46 148.479V148.439H16V153.519H15.46C15.16 152.679 14.34 152.099 13.42 152.099H5.62C4.74 152.099 3.94 152.659 3.64 153.499L3.62 153.519H3.08L3.08 148.439H3.62L3.64 148.479C3.94 149.319 4.74 149.859 5.62 149.859H8.78C8.92 149.859 9.04 149.759 9.04 149.619V142.699C9.04 142.559 8.92 142.459 8.78 142.459H5.66C4.74 142.459 3.94 143.019 3.62 143.879H3.08V138.799H3.62ZM14.36 125.082C14.64 124.922 15.2 124.522 15.46 123.762H16V128.742H15.46C15.34 128.402 15.16 128.162 14.98 127.982C14.64 127.662 14.12 127.582 13.68 127.802L13.4 127.922C13.32 127.962 13.26 128.042 13.26 128.142V135.342C13.26 135.422 13.32 135.502 13.4 135.542L13.6 135.622C14.04 135.822 14.58 135.742 14.92 135.382C15.12 135.182 15.32 134.902 15.46 134.522H16V137.702H15.46C15.28 137.182 14.82 136.862 14.5 136.682L14.18 136.542H14.16L4.38 132.162C4.1 132.042 3.8 132.042 3.52 132.142L3.08 132.322L3.08 130.882C3.08 130.442 3.32 130.062 3.72 129.882L14.36 125.082ZM12.72 128.342C12.72 128.302 12.68 128.282 12.64 128.302L4.66 131.642C4.62 131.642 4.62 131.702 4.66 131.722L12.64 135.242C12.68 135.262 12.72 135.242 12.72 135.202V128.342ZM13.5 112.493V111.953H16L16 122.633H14.98L4.06 114.553C3.88 114.413 3.62 114.553 3.62 114.773L3.62 119.473C3.7 120.273 4.26 120.893 5.56 121.513V122.053H3.06L3.08 112.273H4.06L15.02 120.033C15.22 120.153 15.46 120.033 15.46 119.793V114.713C15.46 113.813 14.92 113.153 13.5 112.493Z" fill="#FFB247"/>
<path d="M146.54 84.86C148.76 84.86 150.26 86.8 150.26 89.68C150.26 91.74 149.4 93.58 147.94 94.72C147.84 94.8 147.66 94.78 147.58 94.66L146.9 93.66C146.82 93.54 146.86 93.36 147 93.3C148.06 92.86 149.72 91.64 149.72 89.68C149.72 88.12 148.3 87.14 147.12 87.14C145.94 87.14 145.08 88.08 144.56 89.28L143.9 90.9C142.9 93.26 141.82 94.26 140.32 94.26C138.26 94.26 136.82 92.38 136.82 89.72C136.82 87.94 137.5 86.44 138.7 85.5C138.82 85.42 138.98 85.44 139.06 85.56L139.78 86.56C139.86 86.68 139.82 86.84 139.7 86.92C138.7 87.44 137.4 88.3 137.4 89.72C137.4 91.1 138.54 91.98 139.6 91.98C140.72 91.98 141.8 90.96 142.22 89.98L142.9 88.28C143.9 85.82 144.92 84.86 146.54 84.86ZM147.5 73.1666V72.6266H150.02V83.5266H149.46V83.5066C149.14 82.6466 148.26 82.1066 147.32 82.1066H139.76C138.84 82.1066 137.96 82.6466 137.64 83.5066C137.62 83.5066 137.62 83.5266 137.62 83.5266H137.08V72.8866H137.62H139.58V73.4266C138.16 74.1066 137.64 75.5266 137.62 75.6066V79.6866C137.62 79.7866 137.7 79.8666 137.8 79.8666H142.84C142.94 79.8666 143.04 79.7866 143.04 79.6866V77.7066C143.04 77.4866 142.96 75.9666 141.52 75.2866V74.7466H145.12V75.2866C143.82 75.9066 143.58 77.3466 143.58 77.6666V79.6866C143.58 79.7866 143.66 79.8666 143.76 79.8666H149.28C149.38 79.8666 149.46 79.7866 149.46 79.6866V75.3466C149.46 75.3266 148.96 73.8466 147.5 73.1666ZM137.08 60.8012V57.3212H137.62C137.9 58.1012 139.32 58.9212 139.9 59.1612L150 64.0012V64.7412L138.66 70.1412C138.36 70.3212 137.88 70.7212 137.62 71.4213H137.08V66.1012H137.62C137.62 66.1413 137.64 66.1612 137.64 66.1812C138 67.0812 139.06 67.4612 139.94 67.0812L146.78 64.0212C147.12 63.8612 147.14 63.3612 146.78 63.2012L139.88 59.8612C139.02 59.4412 137.96 59.8612 137.64 60.7812L137.62 60.8012H137.08ZM147.5 45.8736V45.3336H150.02V56.2336H149.46V56.2136C149.14 55.3536 148.26 54.8136 147.32 54.8136H139.76C138.84 54.8136 137.96 55.3536 137.64 56.2136C137.62 56.2136 137.62 56.2336 137.62 56.2336H137.08V45.5936H137.62H139.58V46.1336C138.16 46.8136 137.64 48.2336 137.62 48.3136V52.3936C137.62 52.4936 137.7 52.5736 137.8 52.5736H142.84C142.94 52.5736 143.04 52.4936 143.04 52.3936V50.4136C143.04 50.1936 142.96 48.6736 141.52 47.9936V47.4536H145.12V47.9936C143.82 48.6136 143.58 50.0536 143.58 50.3736V52.3936C143.58 52.4936 143.66 52.5736 143.76 52.5736H149.28C149.38 52.5736 149.46 52.4936 149.46 52.3936V48.0536C149.46 48.0336 148.96 46.5536 147.5 45.8736ZM144.96 34.9683L150 31.0283V36.3083H149.46C149.38 36.0883 149.28 35.8883 149.16 35.7283C148.76 35.1483 147.96 35.0683 147.42 35.4883L145.62 36.9283C145.32 37.1483 145.16 37.5083 145.16 37.8883V39.6283C145.16 39.9083 145.38 40.1483 145.66 40.1483H147.42C148.34 40.1483 149.16 39.5683 149.46 38.7083H150V43.7883H149.46C149.16 42.9483 148.34 42.3683 147.42 42.3683H139.62C138.74 42.3683 137.94 42.9283 137.64 43.7683L137.62 43.7883H137.08V37.1883C137.08 34.2083 138.7 32.2083 141.1 32.2083C142.82 32.2083 144.14 33.2483 144.76 34.9283C144.8 34.9883 144.88 35.0283 144.96 34.9683ZM144.64 38.1883C144.64 36.5883 143.4 34.5083 141.1 34.5083C138.4 34.5083 137.62 36.5883 137.62 38.1883V39.6283C137.62 39.9083 137.84 40.1483 138.12 40.1483H144.12C144.4 40.1483 144.64 39.9083 144.64 39.6283V38.1883ZM137.62 24.7395C137.62 24.7395 137.62 24.7595 137.64 24.7795C137.96 25.6395 138.84 26.1595 139.76 26.1595H147.32C148.26 26.1595 149.14 25.6395 149.46 24.7795C149.46 24.7595 149.46 24.7395 149.46 24.7395H150.02V29.8195H149.46V29.7995C149.14 28.9395 148.26 28.3995 147.32 28.3995H139.76C138.84 28.3995 137.96 28.9395 137.64 29.7995C137.62 29.7995 137.62 29.8195 137.62 29.8195H137.08V24.7395H137.62ZM137.62 8.59172C137.64 8.59172 137.64 8.61172 137.64 8.63172C137.96 9.49172 138.84 10.0117 139.76 10.0117H147.54C148.1 10.0117 148.64 9.79172 149 9.37172C149.18 9.17172 149.34 8.91172 149.46 8.59172H150V10.8317C150 11.2717 149.84 11.6717 149.52 11.9517L139.74 21.0317C139.66 21.1117 139.72 21.2717 139.84 21.2717L147.46 21.2917C148.34 21.2917 149.14 20.7317 149.46 19.8917V19.8517H150V23.3117H149.46C149.16 22.4717 148.34 21.8917 147.42 21.8917H138.9C138.74 21.9717 137.96 22.3517 137.62 23.3117H137.08V21.0917C137.08 20.6717 137.24 20.2717 137.56 19.9917L147.12 10.8317C147.2 10.7517 147.14 10.6117 147.02 10.6117L139.76 10.5917C138.84 10.5917 137.96 11.1317 137.64 11.9917C137.64 11.9917 137.64 12.0117 137.62 12.0117H137.08V10.5917V10.0117V8.59172H137.62Z" fill="#FFB247"/>
<path d="M147.36 182.6C148.18 182.6 148.96 182.18 149.34 181.46C149.38 181.38 149.42 181.28 149.46 181.16H150V186.26H149.46C149.46 186.24 149.46 186.22 149.44 186.22C149.12 185.36 148.26 184.82 147.34 184.82H140.32C140.22 184.82 140.18 184.96 140.26 185.02L147 189.18V189.8L140.26 195.6C140.18 195.66 140.24 195.78 140.32 195.78L147.34 195.8C148.26 195.8 149.14 195.26 149.46 194.4V194.38H150V197.8H149.46C149.42 197.7 149.38 197.6 149.32 197.5C148.96 196.78 148.16 196.36 147.36 196.36H138.92C138.86 196.4 137.98 196.76 137.62 197.8H137.08V195.4V195.22L144.44 188.96C144.64 188.8 144.62 188.5 144.4 188.36L137.08 183.76V181.18H137.62C137.96 182.12 138.72 182.52 138.88 182.6H147.36ZM148.36 167.449C148.64 167.289 149.2 166.889 149.46 166.129H150V171.109H149.46C149.34 170.769 149.16 170.529 148.98 170.349C148.64 170.029 148.12 169.949 147.68 170.169L147.4 170.289C147.32 170.329 147.26 170.409 147.26 170.509V177.709C147.26 177.789 147.32 177.869 147.4 177.909L147.6 177.989C148.04 178.189 148.58 178.109 148.92 177.749C149.12 177.549 149.32 177.269 149.46 176.889H150V180.069H149.46C149.28 179.549 148.82 179.229 148.5 179.049L148.18 178.909H148.16L138.38 174.529C138.1 174.409 137.8 174.409 137.52 174.509L137.08 174.689V173.249C137.08 172.809 137.32 172.429 137.72 172.249L148.36 167.449ZM146.72 170.709C146.72 170.669 146.68 170.649 146.64 170.669L138.66 174.009C138.62 174.009 138.62 174.069 138.66 174.089L146.64 177.609C146.68 177.629 146.72 177.609 146.72 177.569V170.709ZM147.28 152.748C147.32 152.668 147.44 152.648 147.5 152.708C149.24 154.008 150.26 156.168 150.26 158.628C150.26 162.848 147.3 166.148 143.54 166.148C139.78 166.148 136.82 162.848 136.82 158.608C136.82 156.148 137.82 154.028 139.58 152.708C139.66 152.648 139.76 152.668 139.8 152.748L140.66 154.068C140.72 154.148 140.68 154.268 140.58 154.288C139.06 154.708 137.34 156.428 137.34 158.608C137.34 161.928 140.7 163.828 143.56 163.828C146.4 163.828 149.74 162.128 149.74 158.608C149.74 156.208 147.74 154.468 146.54 154.268C146.44 154.248 146.38 154.128 146.44 154.028L147.28 152.748ZM137.62 136.799L137.64 136.819C137.94 137.659 138.74 138.219 139.62 138.219H147.46C148.34 138.219 149.14 137.659 149.46 136.819V136.799H150V141.879H149.46C149.16 141.019 148.34 140.459 147.42 140.459H143.82C143.68 140.459 143.58 140.559 143.58 140.699V147.619C143.58 147.759 143.68 147.859 143.82 147.859H147.46C148.34 147.859 149.14 147.319 149.46 146.479V146.439H150V151.519H149.46C149.16 150.679 148.34 150.099 147.42 150.099H139.62C138.74 150.099 137.94 150.659 137.64 151.499L137.62 151.519H137.08V146.439H137.62L137.64 146.479C137.94 147.319 138.74 147.859 139.62 147.859H142.78C142.92 147.859 143.04 147.759 143.04 147.619V140.699C143.04 140.559 142.92 140.459 142.78 140.459H139.66C138.74 140.459 137.94 141.019 137.62 141.879H137.08V136.799H137.62ZM148.36 123.082C148.64 122.922 149.2 122.522 149.46 121.762H150V126.742H149.46C149.34 126.402 149.16 126.162 148.98 125.982C148.64 125.662 148.12 125.582 147.68 125.802L147.4 125.922C147.32 125.962 147.26 126.042 147.26 126.142V133.342C147.26 133.422 147.32 133.502 147.4 133.542L147.6 133.622C148.04 133.822 148.58 133.742 148.92 133.382C149.12 133.182 149.32 132.902 149.46 132.522H150V135.702H149.46C149.28 135.182 148.82 134.862 148.5 134.682L148.18 134.542H148.16L138.38 130.162C138.1 130.042 137.8 130.042 137.52 130.142L137.08 130.322V128.882C137.08 128.442 137.32 128.062 137.72 127.882L148.36 123.082ZM146.72 126.342C146.72 126.302 146.68 126.282 146.64 126.302L138.66 129.642C138.62 129.642 138.62 129.702 138.66 129.722L146.64 133.242C146.68 133.262 146.72 133.242 146.72 133.202V126.342ZM147.5 110.493V109.953H150V120.633H148.98L138.06 112.553C137.88 112.413 137.62 112.553 137.62 112.773V117.473C137.7 118.273 138.26 118.893 139.56 119.513V120.053H137.06L137.08 110.273H138.06L149.02 118.033C149.22 118.153 149.46 118.033 149.46 117.793V112.713C149.46 111.813 148.92 111.153 147.5 110.493Z" fill="#FFB247"/>
<path d="M33.675 15.675C33.675 18.45 31.25 20.325 27.65 20.325C25.075 20.325 22.775 19.25 21.35 17.425C21.25 17.3 21.275 17.075 21.425 16.975L22.675 16.125C22.825 16.025 23.05 16.075 23.125 16.25C23.675 17.575 25.2 19.65 27.65 19.65C29.6 19.65 30.825 17.875 30.825 16.4C30.825 14.925 29.65 13.85 28.15 13.2L26.125 12.375C23.175 11.125 21.925 9.775 21.925 7.9C21.925 5.325 24.275 3.525 27.6 3.525C29.825 3.525 31.7 4.375 32.875 5.875C32.975 6.025 32.95 6.225 32.8 6.325L31.55 7.225C31.4 7.325 31.2 7.275 31.1 7.125C30.45 5.875 29.375 4.25 27.6 4.25C25.875 4.25 24.775 5.675 24.775 7C24.775 8.4 26.05 9.75 27.275 10.275L29.4 11.125C32.475 12.375 33.675 13.65 33.675 15.675ZM48.2918 16.875H48.9668V20.025H35.3418V19.325H35.3668C36.4418 18.925 37.1168 17.825 37.1168 16.65V7.2C37.1168 6.05 36.4418 4.95 35.3668 4.55C35.3668 4.525 35.3418 4.525 35.3418 4.525V3.85H48.6418V4.525V6.975H47.9668C47.1168 5.2 45.3418 4.55 45.2418 4.525H40.1418C40.0168 4.525 39.9168 4.625 39.9168 4.75V11.05C39.9168 11.175 40.0168 11.3 40.1418 11.3H42.6168C42.8918 11.3 44.7918 11.2 45.6418 9.4H46.3168V13.9H45.6418C44.8668 12.275 43.0668 11.975 42.6668 11.975H40.1418C40.0168 11.975 39.9168 12.075 39.9168 12.2V19.1C39.9168 19.225 40.0168 19.325 40.1418 19.325H45.5668C45.5918 19.325 47.4418 18.7 48.2918 16.875ZM63.7484 3.85H68.0984V4.525C67.1234 4.875 66.0984 6.65 65.7984 7.375L59.7484 20H58.8234L52.0734 5.825C51.8484 5.45 51.3484 4.85 50.4734 4.525V3.85H57.1234V4.525C57.0734 4.525 57.0484 4.55 57.0234 4.55C55.8984 5 55.4234 6.325 55.8984 7.425L59.7234 15.975C59.9234 16.4 60.5484 16.425 60.7484 15.975L64.9234 7.35C65.4484 6.275 64.9234 4.95 63.7734 4.55L63.7484 4.525V3.85ZM82.408 16.875H83.083V20.025H69.458V19.325H69.483C70.558 18.925 71.233 17.825 71.233 16.65V7.2C71.233 6.05 70.558 4.95 69.483 4.55C69.483 4.525 69.458 4.525 69.458 4.525V3.85H82.758V4.525V6.975H82.083C81.233 5.2 79.458 4.55 79.358 4.525H74.258C74.133 4.525 74.033 4.625 74.033 4.75V11.05C74.033 11.175 74.133 11.3 74.258 11.3H76.733C77.008 11.3 78.908 11.2 79.758 9.4H80.433V13.9H79.758C78.983 12.275 77.183 11.975 76.783 11.975H74.258C74.133 11.975 74.033 12.075 74.033 12.2V19.1C74.033 19.225 74.133 19.325 74.258 19.325H79.683C79.708 19.325 81.558 18.7 82.408 16.875ZM96.0396 13.7L100.965 20H94.3646V19.325C94.6396 19.225 94.8896 19.1 95.0896 18.95C95.8146 18.45 95.9146 17.45 95.3896 16.775L93.5896 14.525C93.3146 14.15 92.8646 13.95 92.3896 13.95H90.2146C89.8646 13.95 89.5646 14.225 89.5646 14.575V16.775C89.5646 17.925 90.2896 18.95 91.3646 19.325V20H85.0146V19.325C86.0646 18.95 86.7896 17.925 86.7896 16.775V7.025C86.7896 5.925 86.0896 4.925 85.0396 4.55L85.0146 4.525V3.85H93.2646C96.9896 3.85 99.4896 5.875 99.4896 8.875C99.4896 11.025 98.1896 12.675 96.0896 13.45C96.0146 13.5 95.9646 13.6 96.0396 13.7ZM92.0146 13.3C94.0146 13.3 96.6146 11.75 96.6146 8.875C96.6146 5.5 94.0146 4.525 92.0146 4.525H90.2146C89.8646 4.525 89.5646 4.8 89.5646 5.15V12.65C89.5646 13 89.8646 13.3 90.2146 13.3H92.0146ZM108.826 4.525C108.826 4.525 108.801 4.525 108.776 4.55C107.701 4.95 107.051 6.05 107.051 7.2V16.65C107.051 17.825 107.701 18.925 108.776 19.325C108.801 19.325 108.826 19.325 108.826 19.325V20.025H102.476V19.325H102.501C103.576 18.925 104.251 17.825 104.251 16.65V7.2C104.251 6.05 103.576 4.95 102.501 4.55C102.501 4.525 102.476 4.525 102.476 4.525V3.85H108.826V4.525ZM129.01 4.525C129.01 4.55 128.985 4.55 128.96 4.55C127.885 4.95 127.235 6.05 127.235 7.2V16.925C127.235 17.625 127.51 18.3 128.035 18.75C128.285 18.975 128.61 19.175 129.01 19.325V20H126.21C125.66 20 125.16 19.8 124.81 19.4L113.46 7.175C113.36 7.075 113.16 7.15 113.16 7.3L113.135 16.825C113.135 17.925 113.835 18.925 114.885 19.325H114.935V20H110.61V19.325C111.66 18.95 112.385 17.925 112.385 16.775V6.125C112.285 5.925 111.81 4.95 110.61 4.525V3.85H113.385C113.91 3.85 114.41 4.05 114.76 4.45L126.21 16.4C126.31 16.5 126.485 16.425 126.485 16.275L126.51 7.2C126.51 6.05 125.835 4.95 124.76 4.55C124.76 4.55 124.735 4.55 124.735 4.525V3.85H126.51H127.235H129.01V4.525Z" fill="#E0F6E9"/>
<path d="M39.25 202.7C39.25 203.725 39.775 204.7 40.675 205.175C40.775 205.225 40.9 205.275 41.05 205.325V206H34.675V205.325C34.7 205.325 34.725 205.325 34.725 205.3C35.8 204.9 36.475 203.825 36.475 202.675V193.9C36.475 193.775 36.3 193.725 36.225 193.825L31.025 202.25H30.25L23 193.825C22.925 193.725 22.775 193.8 22.775 193.9L22.75 202.675C22.75 203.825 23.425 204.925 24.5 205.325H24.525V206H20.25V205.325C20.375 205.275 20.5 205.225 20.625 205.15C21.525 204.7 22.05 203.7 22.05 202.7V192.15C22 192.075 21.55 190.975 20.25 190.525V189.85H23.25H23.475L31.3 199.05C31.5 199.3 31.875 199.275 32.05 199L37.8 189.85H41.025V190.525C39.85 190.95 39.35 191.9 39.25 192.1V202.7ZM58.1885 203.95C58.3885 204.3 58.8885 205 59.8385 205.325V206H53.6135V205.325C54.0385 205.175 54.3385 204.95 54.5635 204.725C54.9635 204.3 55.0635 203.65 54.7885 203.1L54.6385 202.75C54.5885 202.65 54.4885 202.575 54.3635 202.575H45.3635C45.2635 202.575 45.1635 202.65 45.1135 202.75L45.0135 203C44.7635 203.55 44.8635 204.225 45.3135 204.65C45.5635 204.9 45.9135 205.15 46.3885 205.325V206H42.4135V205.325C43.0635 205.1 43.4635 204.525 43.6885 204.125L43.8635 203.725V203.7L49.3385 191.475C49.4885 191.125 49.4885 190.75 49.3635 190.4L49.1385 189.85H50.9385C51.4885 189.85 51.9635 190.15 52.1885 190.65L58.1885 203.95ZM54.1135 201.9C54.1635 201.9 54.1885 201.85 54.1635 201.8L49.9885 191.825C49.9885 191.775 49.9135 191.775 49.8885 191.825L45.4885 201.8C45.4635 201.85 45.4885 201.9 45.5385 201.9H54.1135ZM76.5646 202.6C76.6646 202.65 76.6896 202.8 76.6146 202.875C74.9896 205.05 72.2896 206.325 69.2146 206.325C63.9396 206.325 59.8146 202.625 59.8146 197.925C59.8146 193.225 63.9396 189.525 69.2396 189.525C72.3146 189.525 74.9646 190.775 76.6146 192.975C76.6896 193.075 76.6646 193.2 76.5646 193.25L74.9146 194.325C74.8146 194.4 74.6646 194.35 74.6396 194.225C74.1146 192.325 71.9646 190.175 69.2396 190.175C65.0896 190.175 62.7146 194.375 62.7146 197.95C62.7146 201.5 64.8396 205.675 69.2396 205.675C72.2396 205.675 74.4146 203.175 74.6646 201.675C74.6896 201.55 74.8396 201.475 74.9646 201.55L76.5646 202.6ZM96.5016 190.525L96.4766 190.55C95.4266 190.925 94.7266 191.925 94.7266 193.025V202.825C94.7266 203.925 95.4266 204.925 96.4766 205.325H96.5016V206H90.1516V205.325C91.2266 204.95 91.9266 203.925 91.9266 202.775V198.275C91.9266 198.1 91.8016 197.975 91.6266 197.975H82.9766C82.8016 197.975 82.6766 198.1 82.6766 198.275V202.825C82.6766 203.925 83.3516 204.925 84.4016 205.325H84.4516V206H78.1016V205.325C79.1516 204.95 79.8766 203.925 79.8766 202.775V193.025C79.8766 191.925 79.1766 190.925 78.1266 190.55L78.1016 190.525V189.85H84.4516V190.525L84.4016 190.55C83.3516 190.925 82.6766 191.925 82.6766 193.025V196.975C82.6766 197.15 82.8016 197.3 82.9766 197.3H91.6266C91.8016 197.3 91.9266 197.15 91.9266 196.975V193.075C91.9266 191.925 91.2266 190.925 90.1516 190.525V189.85H96.5016V190.525ZM113.647 203.95C113.847 204.3 114.347 205 115.297 205.325V206H109.072V205.325C109.497 205.175 109.797 204.95 110.022 204.725C110.422 204.3 110.522 203.65 110.247 203.1L110.097 202.75C110.047 202.65 109.947 202.575 109.822 202.575H100.822C100.722 202.575 100.622 202.65 100.572 202.75L100.472 203C100.222 203.55 100.322 204.225 100.772 204.65C101.022 204.9 101.372 205.15 101.847 205.325V206H97.8725V205.325C98.5225 205.1 98.9225 204.525 99.1475 204.125L99.3225 203.725V203.7L104.797 191.475C104.947 191.125 104.947 190.75 104.822 190.4L104.597 189.85H106.397C106.947 189.85 107.422 190.15 107.647 190.65L113.647 203.95ZM109.572 201.9C109.622 201.9 109.647 201.85 109.622 201.8L105.447 191.825C105.447 191.775 105.372 191.775 105.347 191.825L100.947 201.8C100.922 201.85 100.947 201.9 100.997 201.9H109.572ZM129.384 202.875H130.059V206H116.709V204.725L126.809 191.075C126.984 190.85 126.809 190.525 126.534 190.525H120.659C119.659 190.625 118.884 191.325 118.109 192.95H117.434V189.825L129.659 189.85V191.075L119.959 204.775C119.809 205.025 119.959 205.325 120.259 205.325H126.609C127.734 205.325 128.559 204.65 129.384 202.875Z" fill="#E0F6E9"/>
</svg>
