<svg width="21" height="21" viewBox="0 0 21 21" fill="none" xmlns="http://www.w3.org/2000/svg">
<g filter="url(#filter0_d_26_17)">
<path d="M16.7282 6.80667C16.6406 6.73428 16.5345 6.68795 16.4219 6.67293C16.3093 6.65791 16.1947 6.67482 16.0912 6.72174C15.4497 7.01529 14.7522 7.16638 14.0468 7.1646C12.7417 7.16303 11.4902 6.64557 10.5652 5.72505C9.64011 4.80453 9.11649 3.55561 9.10849 2.2506C9.11125 1.84161 9.16216 1.43436 9.26016 1.03727C9.28095 0.931429 9.27315 0.821959 9.23756 0.720137C9.20197 0.618314 9.13988 0.527822 9.05767 0.457982C8.97547 0.388143 8.87614 0.341482 8.76991 0.322807C8.66367 0.304131 8.55438 0.314117 8.45329 0.351736C7.50223 0.77938 6.67549 1.44177 6.05074 2.27668C5.42599 3.11159 5.02373 4.09161 4.88175 5.12468C4.73977 6.15775 4.86274 7.20995 5.23909 8.18245C5.61544 9.15494 6.23284 10.0158 7.03326 10.6842C7.83369 11.3525 8.79088 11.8064 9.81492 12.0033C10.839 12.2001 11.8962 12.1334 12.8874 11.8094C13.8786 11.4854 14.7711 10.9148 15.4812 10.1511C16.1912 9.3874 16.6955 8.45576 16.9466 7.44367C16.9772 7.32779 16.9728 7.20545 16.9339 7.09208C16.895 6.97872 16.8235 6.8794 16.7282 6.80667ZM10.9649 10.8653C9.94676 10.8581 8.95573 10.5364 8.1275 9.94419C7.29928 9.352 6.67434 8.51828 6.33826 7.55719C6.00217 6.5961 5.97138 5.55462 6.25008 4.57535C6.52879 3.59608 7.10337 2.7269 7.89516 2.0868V2.2506C7.89676 3.88162 8.54539 5.44537 9.69869 6.59867C10.852 7.75197 12.4157 8.4006 14.0468 8.4022C14.475 8.40377 14.9021 8.35903 15.3208 8.26874C14.9021 9.06075 14.2751 9.72343 13.5075 10.1853C12.7399 10.6471 11.8607 10.8906 10.9649 10.8895V10.8653Z" fill="#FFB247"/>
</g>
<defs>
<filter id="filter0_d_26_17" x="0.824463" y="0.313644" width="20.1423" height="19.8002" filterUnits="userSpaceOnUse" color-interpolation-filters="sRGB">
<feFlood flood-opacity="0" result="BackgroundImageFix"/>
<feColorMatrix in="SourceAlpha" type="matrix" values="0 0 0 0 0 0 0 0 0 0 0 0 0 0 0 0 0 0 127 0" result="hardAlpha"/>
<feOffset dy="4"/>
<feGaussianBlur stdDeviation="2"/>
<feComposite in2="hardAlpha" operator="out"/>
<feColorMatrix type="matrix" values="0 0 0 0 0 0 0 0 0 0 0 0 0 0 0 0 0 0 0.25 0"/>
<feBlend mode="normal" in2="BackgroundImageFix" result="effect1_dropShadow_26_17"/>
<feBlend mode="normal" in="SourceGraphic" in2="effect1_dropShadow_26_17" result="shape"/>
</filter>
</defs>
</svg>
