<svg width="317" height="425" viewBox="0 0 317 425" fill="none" xmlns="http://www.w3.org/2000/svg">
<path d="M67.35 159.35C67.35 164.9 62.5 168.65 55.3 168.65C50.15 168.65 45.55 166.5 42.7 162.85C42.5 162.6 42.55 162.15 42.85 161.95L45.35 160.25C45.65 160.05 46.1 160.15 46.25 160.5C47.35 163.15 50.4 167.3 55.3 167.3C59.2 167.3 61.65 163.75 61.65 160.8C61.65 157.85 59.3 155.7 56.3 154.4L52.25 152.75C46.35 150.25 43.85 147.55 43.85 143.8C43.85 138.65 48.55 135.05 55.2 135.05C59.65 135.05 63.4 136.75 65.75 139.75C65.95 140.05 65.9 140.45 65.6 140.65L63.1 142.45C62.8 142.65 62.4 142.55 62.2 142.25C60.9 139.75 58.75 136.5 55.2 136.5C51.75 136.5 49.55 139.35 49.55 142C49.55 144.8 52.1 147.5 54.55 148.55L58.8 150.25C64.95 152.75 67.35 155.3 67.35 159.35ZM96.5836 161.75H97.9336V168.05H70.6836V166.65H70.7336C72.8836 165.85 74.2336 163.65 74.2336 161.3V142.4C74.2336 140.1 72.8836 137.9 70.7336 137.1C70.7336 137.05 70.6836 137.05 70.6836 137.05V135.7H97.2836V137.05V141.95H95.9336C94.2336 138.4 90.6836 137.1 90.4836 137.05H80.2836C80.0336 137.05 79.8336 137.25 79.8336 137.5V150.1C79.8336 150.35 80.0336 150.6 80.2836 150.6H85.2336C85.7836 150.6 89.5836 150.4 91.2836 146.8H92.6336V155.8H91.2836C89.7336 152.55 86.1336 151.95 85.3336 151.95H80.2836C80.0336 151.95 79.8336 152.15 79.8336 152.4V166.2C79.8336 166.45 80.0336 166.65 80.2836 166.65H91.1336C91.1836 166.65 94.8836 165.4 96.5836 161.75ZM127.497 135.7H136.197V137.05C134.247 137.75 132.197 141.3 131.597 142.75L119.497 168H117.647L104.147 139.65C103.697 138.9 102.697 137.7 100.947 137.05V135.7H114.247V137.05C114.147 137.05 114.097 137.1 114.047 137.1C111.797 138 110.847 140.65 111.797 142.85L119.447 159.95C119.847 160.8 121.097 160.85 121.497 159.95L129.847 142.7C130.897 140.55 129.847 137.9 127.547 137.1L127.497 137.05V135.7ZM164.816 161.75H166.166V168.05H138.916V166.65H138.966C141.116 165.85 142.466 163.65 142.466 161.3V142.4C142.466 140.1 141.116 137.9 138.966 137.1C138.966 137.05 138.916 137.05 138.916 137.05V135.7H165.516V137.05V141.95H164.166C162.466 138.4 158.916 137.1 158.716 137.05H148.516C148.266 137.05 148.066 137.25 148.066 137.5V150.1C148.066 150.35 148.266 150.6 148.516 150.6H153.466C154.016 150.6 157.816 150.4 159.516 146.8H160.866V155.8H159.516C157.966 152.55 154.366 151.95 153.566 151.95H148.516C148.266 151.95 148.066 152.15 148.066 152.4V166.2C148.066 166.45 148.266 166.65 148.516 166.65H159.366C159.416 166.65 163.116 165.4 164.816 161.75ZM192.079 155.4L201.929 168H188.729V166.65C189.279 166.45 189.779 166.2 190.179 165.9C191.629 164.9 191.829 162.9 190.779 161.55L187.179 157.05C186.629 156.3 185.729 155.9 184.779 155.9H180.429C179.729 155.9 179.129 156.45 179.129 157.15V161.55C179.129 163.85 180.579 165.9 182.729 166.65V168H170.029V166.65C172.129 165.9 173.579 163.85 173.579 161.55V142.05C173.579 139.85 172.179 137.85 170.079 137.1L170.029 137.05V135.7H186.529C193.979 135.7 198.979 139.75 198.979 145.75C198.979 150.05 196.379 153.35 192.179 154.9C192.029 155 191.929 155.2 192.079 155.4ZM184.029 154.6C188.029 154.6 193.229 151.5 193.229 145.75C193.229 139 188.029 137.05 184.029 137.05H180.429C179.729 137.05 179.129 137.6 179.129 138.3V153.3C179.129 154 179.729 154.6 180.429 154.6H184.029ZM217.651 137.05C217.651 137.05 217.601 137.05 217.551 137.1C215.401 137.9 214.101 140.1 214.101 142.4V161.3C214.101 163.65 215.401 165.85 217.551 166.65C217.601 166.65 217.651 166.65 217.651 166.65V168.05H204.951V166.65H205.001C207.151 165.85 208.501 163.65 208.501 161.3V142.4C208.501 140.1 207.151 137.9 205.001 137.1C205.001 137.05 204.951 137.05 204.951 137.05V135.7H217.651V137.05ZM258.021 137.05C258.021 137.1 257.971 137.1 257.921 137.1C255.771 137.9 254.471 140.1 254.471 142.4V161.85C254.471 163.25 255.021 164.6 256.071 165.5C256.571 165.95 257.221 166.35 258.021 166.65V168H252.421C251.321 168 250.321 167.6 249.621 166.8L226.921 142.35C226.721 142.15 226.321 142.3 226.321 142.6L226.271 161.65C226.271 163.85 227.671 165.85 229.771 166.65H229.871V168H221.221V166.65C223.321 165.9 224.771 163.85 224.771 161.55V140.25C224.571 139.85 223.621 137.9 221.221 137.05V135.7H226.771C227.821 135.7 228.821 136.1 229.521 136.9L252.421 160.8C252.621 161 252.971 160.85 252.971 160.55L253.021 142.4C253.021 140.1 251.671 137.9 249.521 137.1C249.521 137.1 249.471 137.1 249.471 137.05V135.7H253.021H254.471H258.021V137.05Z" fill="#E0F6E9"/>
<path d="M80.5 288.4C80.5 290.45 81.55 292.4 83.35 293.35C83.55 293.45 83.8 293.55 84.1 293.65V295H71.35V293.65C71.4 293.65 71.45 293.65 71.45 293.6C73.6 292.8 74.95 290.65 74.95 288.35V270.8C74.95 270.55 74.6 270.45 74.45 270.65L64.05 287.5H62.5L48 270.65C47.85 270.45 47.55 270.6 47.55 270.8L47.5 288.35C47.5 290.65 48.85 292.85 51 293.65H51.05V295H42.5V293.65C42.75 293.55 43 293.45 43.25 293.3C45.05 292.4 46.1 290.4 46.1 288.4V267.3C46 267.15 45.1 264.95 42.5 264.05V262.7H48.5H48.95L64.6 281.1C65 281.6 65.75 281.55 66.1 281L77.6 262.7H84.05V264.05C81.7 264.9 80.7 266.8 80.5 267.2V288.4ZM118.377 290.9C118.777 291.6 119.777 293 121.677 293.65V295H109.227V293.65C110.077 293.35 110.677 292.9 111.127 292.45C111.927 291.6 112.127 290.3 111.577 289.2L111.277 288.5C111.177 288.3 110.977 288.15 110.727 288.15H92.727C92.527 288.15 92.327 288.3 92.227 288.5L92.027 289C91.527 290.1 91.727 291.45 92.627 292.3C93.127 292.8 93.827 293.3 94.777 293.65V295H86.827V293.65C88.127 293.2 88.927 292.05 89.377 291.25L89.727 290.45V290.4L100.677 265.95C100.977 265.25 100.977 264.5 100.727 263.8L100.277 262.7H103.877C104.977 262.7 105.927 263.3 106.377 264.3L118.377 290.9ZM110.227 286.8C110.327 286.8 110.377 286.7 110.327 286.6L101.977 266.65C101.977 266.55 101.827 266.55 101.777 266.65L92.977 286.6C92.927 286.7 92.977 286.8 93.077 286.8H110.227ZM155.129 288.2C155.329 288.3 155.379 288.6 155.229 288.75C151.979 293.1 146.579 295.65 140.429 295.65C129.879 295.65 121.629 288.25 121.629 278.85C121.629 269.45 129.879 262.05 140.479 262.05C146.629 262.05 151.929 264.55 155.229 268.95C155.379 269.15 155.329 269.4 155.129 269.5L151.829 271.65C151.629 271.8 151.329 271.7 151.279 271.45C150.229 267.65 145.929 263.35 140.479 263.35C132.179 263.35 127.429 271.75 127.429 278.9C127.429 286 131.679 294.35 140.479 294.35C146.479 294.35 150.829 289.35 151.329 286.35C151.379 286.1 151.679 285.95 151.929 286.1L155.129 288.2ZM195.003 264.05L194.953 264.1C192.853 264.85 191.453 266.85 191.453 269.05V288.65C191.453 290.85 192.853 292.85 194.953 293.65H195.003V295H182.303V293.65C184.453 292.9 185.853 290.85 185.853 288.55V279.55C185.853 279.2 185.603 278.95 185.253 278.95H167.953C167.603 278.95 167.353 279.2 167.353 279.55V288.65C167.353 290.85 168.703 292.85 170.803 293.65H170.903V295H158.203V293.65C160.303 292.9 161.753 290.85 161.753 288.55V269.05C161.753 266.85 160.353 264.85 158.253 264.1L158.203 264.05V262.7H170.903V264.05L170.803 264.1C168.703 264.85 167.353 266.85 167.353 269.05V276.95C167.353 277.3 167.603 277.6 167.953 277.6H185.253C185.603 277.6 185.853 277.3 185.853 276.95V269.15C185.853 266.85 184.453 264.85 182.303 264.05V262.7H195.003V264.05ZM229.295 290.9C229.695 291.6 230.695 293 232.595 293.65V295H220.145V293.65C220.995 293.35 221.595 292.9 222.045 292.45C222.845 291.6 223.045 290.3 222.495 289.2L222.195 288.5C222.095 288.3 221.895 288.15 221.645 288.15H203.645C203.445 288.15 203.245 288.3 203.145 288.5L202.945 289C202.445 290.1 202.645 291.45 203.545 292.3C204.045 292.8 204.745 293.3 205.695 293.65V295H197.745V293.65C199.045 293.2 199.845 292.05 200.295 291.25L200.645 290.45V290.4L211.595 265.95C211.895 265.25 211.895 264.5 211.645 263.8L211.195 262.7H214.795C215.895 262.7 216.845 263.3 217.295 264.3L229.295 290.9ZM221.145 286.8C221.245 286.8 221.295 286.7 221.245 286.6L212.895 266.65C212.895 266.55 212.745 266.55 212.695 266.65L203.895 286.6C203.845 286.7 203.895 286.8 203.995 286.8H221.145ZM260.768 288.75H262.118V295H235.418V292.45L255.618 265.15C255.968 264.7 255.618 264.05 255.068 264.05H243.318C241.318 264.25 239.768 265.65 238.218 268.9H236.868V262.65L261.318 262.7V265.15L241.918 292.55C241.618 293.05 241.918 293.65 242.518 293.65H255.218C257.468 293.65 259.118 292.3 260.768 288.75Z" fill="#E0F6E9"/>
<path d="M224.5 226.6C224.5 224.55 223.45 222.6 221.65 221.65C221.45 221.55 221.2 221.45 220.9 221.35V220H233.65V221.35C233.6 221.35 233.55 221.35 233.55 221.4C231.4 222.2 230.05 224.35 230.05 226.65V244.2C230.05 244.45 230.4 244.55 230.55 244.35L240.95 227.5H242.5L257 244.35C257.15 244.55 257.45 244.4 257.45 244.2L257.5 226.65C257.5 224.35 256.15 222.15 254 221.35H253.95V220H262.5V221.35C262.25 221.45 262 221.55 261.75 221.7C259.95 222.6 258.9 224.6 258.9 226.6V247.7C259 247.85 259.9 250.05 262.5 250.95V252.3H256.5H256.05L240.4 233.9C240 233.4 239.25 233.45 238.9 234L227.4 252.3H220.95V250.95C223.3 250.1 224.3 248.2 224.5 247.8V226.6ZM186.623 224.1C186.223 223.4 185.223 222 183.323 221.35V220H195.773V221.35C194.923 221.65 194.323 222.1 193.873 222.55C193.073 223.4 192.873 224.7 193.423 225.8L193.723 226.5C193.823 226.7 194.023 226.85 194.273 226.85H212.273C212.473 226.85 212.673 226.7 212.773 226.5L212.973 226C213.473 224.9 213.273 223.55 212.373 222.7C211.873 222.2 211.173 221.7 210.223 221.35V220H218.173V221.35C216.873 221.8 216.073 222.95 215.623 223.75L215.273 224.55V224.6L204.323 249.05C204.023 249.75 204.023 250.5 204.273 251.2L204.723 252.3H201.123C200.023 252.3 199.073 251.7 198.623 250.7L186.623 224.1ZM194.773 228.2C194.673 228.2 194.623 228.3 194.673 228.4L203.023 248.35C203.023 248.45 203.173 248.45 203.223 248.35L212.023 228.4C212.073 228.3 212.023 228.2 211.923 228.2H194.773ZM149.871 226.8C149.671 226.7 149.621 226.4 149.771 226.25C153.021 221.9 158.421 219.35 164.571 219.35C175.121 219.35 183.371 226.75 183.371 236.15C183.371 245.55 175.121 252.95 164.521 252.95C158.371 252.95 153.071 250.45 149.771 246.05C149.621 245.85 149.671 245.6 149.871 245.5L153.171 243.35C153.371 243.2 153.671 243.3 153.721 243.55C154.771 247.35 159.071 251.65 164.521 251.65C172.821 251.65 177.571 243.25 177.571 236.1C177.571 229 173.321 220.65 164.521 220.65C158.521 220.65 154.171 225.65 153.671 228.65C153.621 228.9 153.321 229.05 153.071 228.9L149.871 226.8ZM109.997 250.95L110.047 250.9C112.147 250.15 113.547 248.15 113.547 245.95V226.35C113.547 224.15 112.147 222.15 110.047 221.35H109.997V220H122.697V221.35C120.547 222.1 119.147 224.15 119.147 226.45V235.45C119.147 235.8 119.397 236.05 119.747 236.05H137.047C137.397 236.05 137.647 235.8 137.647 235.45V226.35C137.647 224.15 136.297 222.15 134.197 221.35H134.097V220H146.797V221.35C144.697 222.1 143.247 224.15 143.247 226.45V245.95C143.247 248.15 144.647 250.15 146.747 250.9L146.797 250.95V252.3H134.097V250.95L134.197 250.9C136.297 250.15 137.647 248.15 137.647 245.95V238.05C137.647 237.7 137.397 237.4 137.047 237.4H119.747C119.397 237.4 119.147 237.7 119.147 238.05V245.85C119.147 248.15 120.547 250.15 122.697 250.95V252.3H109.997V250.95ZM75.7051 224.1C75.3051 223.4 74.3051 222 72.4051 221.35V220H84.8551V221.35C84.0051 221.65 83.4051 222.1 82.9551 222.55C82.1551 223.4 81.9551 224.7 82.5051 225.8L82.8051 226.5C82.9051 226.7 83.1051 226.85 83.3551 226.85H101.355C101.555 226.85 101.755 226.7 101.855 226.5L102.055 226C102.555 224.9 102.355 223.55 101.455 222.7C100.955 222.2 100.255 221.7 99.3051 221.35V220H107.255V221.35C105.955 221.8 105.155 222.95 104.705 223.75L104.355 224.55V224.6L93.4051 249.05C93.1051 249.75 93.1051 250.5 93.3551 251.2L93.8051 252.3H90.2051C89.1051 252.3 88.1551 251.7 87.7051 250.7L75.7051 224.1ZM83.8551 228.2C83.7551 228.2 83.7051 228.3 83.7551 228.4L92.1051 248.35C92.1051 248.45 92.2551 248.45 92.3051 248.35L101.105 228.4C101.155 228.3 101.105 228.2 101.005 228.2H83.8551ZM44.2324 226.25H42.8824V220H69.5824V222.55L49.3824 249.85C49.0324 250.3 49.3824 250.95 49.9324 250.95H61.6824C63.6824 250.75 65.2324 249.35 66.7824 246.1H68.1324V252.35L43.6824 252.3V249.85L63.0824 222.45C63.3824 221.95 63.0824 221.35 62.4824 221.35H49.7824C47.5324 221.35 45.8824 222.7 44.2324 226.25Z" fill="#FFB247"/>
<path d="M224.5 314.6C224.5 312.55 223.45 310.6 221.65 309.65C221.45 309.55 221.2 309.45 220.9 309.35V308H233.65V309.35C233.6 309.35 233.55 309.35 233.55 309.4C231.4 310.2 230.05 312.35 230.05 314.65V332.2C230.05 332.45 230.4 332.55 230.55 332.35L240.95 315.5H242.5L257 332.35C257.15 332.55 257.45 332.4 257.45 332.2L257.5 314.65C257.5 312.35 256.15 310.15 254 309.35H253.95V308H262.5V309.35C262.25 309.45 262 309.55 261.75 309.7C259.95 310.6 258.9 312.6 258.9 314.6V335.7C259 335.85 259.9 338.05 262.5 338.95V340.3H256.5H256.05L240.4 321.9C240 321.4 239.25 321.45 238.9 322L227.4 340.3H220.95V338.95C223.3 338.1 224.3 336.2 224.5 335.8V314.6ZM186.623 312.1C186.223 311.4 185.223 310 183.323 309.35V308H195.773V309.35C194.923 309.65 194.323 310.1 193.873 310.55C193.073 311.4 192.873 312.7 193.423 313.8L193.723 314.5C193.823 314.7 194.023 314.85 194.273 314.85H212.273C212.473 314.85 212.673 314.7 212.773 314.5L212.973 314C213.473 312.9 213.273 311.55 212.373 310.7C211.873 310.2 211.173 309.7 210.223 309.35V308H218.173V309.35C216.873 309.8 216.073 310.95 215.623 311.75L215.273 312.55V312.6L204.323 337.05C204.023 337.75 204.023 338.5 204.273 339.2L204.723 340.3H201.123C200.023 340.3 199.073 339.7 198.623 338.7L186.623 312.1ZM194.773 316.2C194.673 316.2 194.623 316.3 194.673 316.4L203.023 336.35C203.023 336.45 203.173 336.45 203.223 336.35L212.023 316.4C212.073 316.3 212.023 316.2 211.923 316.2H194.773ZM149.871 314.8C149.671 314.7 149.621 314.4 149.771 314.25C153.021 309.9 158.421 307.35 164.571 307.35C175.121 307.35 183.371 314.75 183.371 324.15C183.371 333.55 175.121 340.95 164.521 340.95C158.371 340.95 153.071 338.45 149.771 334.05C149.621 333.85 149.671 333.6 149.871 333.5L153.171 331.35C153.371 331.2 153.671 331.3 153.721 331.55C154.771 335.35 159.071 339.65 164.521 339.65C172.821 339.65 177.571 331.25 177.571 324.1C177.571 317 173.321 308.65 164.521 308.65C158.521 308.65 154.171 313.65 153.671 316.65C153.621 316.9 153.321 317.05 153.071 316.9L149.871 314.8ZM109.997 338.95L110.047 338.9C112.147 338.15 113.547 336.15 113.547 333.95V314.35C113.547 312.15 112.147 310.15 110.047 309.35H109.997V308H122.697V309.35C120.547 310.1 119.147 312.15 119.147 314.45V323.45C119.147 323.8 119.397 324.05 119.747 324.05H137.047C137.397 324.05 137.647 323.8 137.647 323.45V314.35C137.647 312.15 136.297 310.15 134.197 309.35H134.097V308H146.797V309.35C144.697 310.1 143.247 312.15 143.247 314.45V333.95C143.247 336.15 144.647 338.15 146.747 338.9L146.797 338.95V340.3H134.097V338.95L134.197 338.9C136.297 338.15 137.647 336.15 137.647 333.95V326.05C137.647 325.7 137.397 325.4 137.047 325.4H119.747C119.397 325.4 119.147 325.7 119.147 326.05V333.85C119.147 336.15 120.547 338.15 122.697 338.95V340.3H109.997V338.95ZM75.7051 312.1C75.3051 311.4 74.3051 310 72.4051 309.35V308H84.8551V309.35C84.0051 309.65 83.4051 310.1 82.9551 310.55C82.1551 311.4 81.9551 312.7 82.5051 313.8L82.8051 314.5C82.9051 314.7 83.1051 314.85 83.3551 314.85H101.355C101.555 314.85 101.755 314.7 101.855 314.5L102.055 314C102.555 312.9 102.355 311.55 101.455 310.7C100.955 310.2 100.255 309.7 99.3051 309.35V308H107.255V309.35C105.955 309.8 105.155 310.95 104.705 311.75L104.355 312.55V312.6L93.4051 337.05C93.1051 337.75 93.1051 338.5 93.3551 339.2L93.8051 340.3H90.2051C89.1051 340.3 88.1551 339.7 87.7051 338.7L75.7051 312.1ZM83.8551 316.2C83.7551 316.2 83.7051 316.3 83.7551 316.4L92.1051 336.35C92.1051 336.45 92.2551 336.45 92.3051 336.35L101.105 316.4C101.155 316.3 101.105 316.2 101.005 316.2H83.8551ZM44.2324 314.25H42.8824V308H69.5824V310.55L49.3824 337.85C49.0324 338.3 49.3824 338.95 49.9324 338.95H61.6824C63.6824 338.75 65.2324 337.35 66.7824 334.1H68.1324V340.35L43.6824 340.3V337.85L63.0824 310.45C63.3824 309.95 63.0824 309.35 62.4824 309.35H49.7824C47.5324 309.35 45.8824 310.7 44.2324 314.25Z" fill="#FFB247"/>
<path d="M296.06 384.35C297.905 384.35 299.66 383.405 300.515 381.785C300.605 381.605 300.695 381.38 300.785 381.11H302V392.585H300.785C300.785 392.54 300.785 392.495 300.74 392.495C300.02 390.56 298.085 389.345 296.015 389.345H280.22C279.995 389.345 279.905 389.66 280.085 389.795L295.25 399.155V400.55L280.085 413.6C279.905 413.735 280.04 414.005 280.22 414.005L296.015 414.05C298.085 414.05 300.065 412.835 300.785 410.9V410.855H302V418.55H300.785C300.695 418.325 300.605 418.1 300.47 417.875C299.66 416.255 297.86 415.31 296.06 415.31H277.07C276.935 415.4 274.955 416.21 274.145 418.55H272.93V413.15V412.745L289.49 398.66C289.94 398.3 289.895 397.625 289.4 397.31L272.93 386.96V381.155H274.145C274.91 383.27 276.62 384.17 276.98 384.35H296.06ZM298.31 350.261C298.94 349.901 300.2 349.001 300.785 347.291H302V358.496H300.785C300.515 357.731 300.11 357.191 299.705 356.786C298.94 356.066 297.77 355.886 296.78 356.381L296.15 356.651C295.97 356.741 295.835 356.921 295.835 357.146V373.346C295.835 373.526 295.97 373.706 296.15 373.796L296.6 373.976C297.59 374.426 298.805 374.246 299.57 373.436C300.02 372.986 300.47 372.356 300.785 371.501H302V378.656H300.785C300.38 377.486 299.345 376.766 298.625 376.361L297.905 376.046H297.86L275.855 366.191C275.225 365.921 274.55 365.921 273.92 366.146L272.93 366.551V363.311C272.93 362.321 273.47 361.466 274.37 361.061L298.31 350.261ZM294.62 357.596C294.62 357.506 294.53 357.461 294.44 357.506L276.485 365.021C276.395 365.021 276.395 365.156 276.485 365.201L294.44 373.121C294.53 373.166 294.62 373.121 294.62 373.031V357.596ZM295.88 317.184C295.97 317.004 296.24 316.959 296.375 317.094C300.29 320.019 302.585 324.879 302.585 330.414C302.585 339.909 295.925 347.334 287.465 347.334C279.005 347.334 272.345 339.909 272.345 330.369C272.345 324.834 274.595 320.064 278.555 317.094C278.735 316.959 278.96 317.004 279.05 317.184L280.985 320.154C281.12 320.334 281.03 320.604 280.805 320.649C277.385 321.594 273.515 325.464 273.515 330.369C273.515 337.839 281.075 342.114 287.51 342.114C293.9 342.114 301.415 338.289 301.415 330.369C301.415 324.969 296.915 321.054 294.215 320.604C293.99 320.559 293.855 320.289 293.99 320.064L295.88 317.184ZM274.145 281.297L274.19 281.342C274.865 283.232 276.665 284.492 278.645 284.492H296.285C298.265 284.492 300.065 283.232 300.785 281.342V281.297H302V292.727H300.785C300.11 290.792 298.265 289.532 296.195 289.532H288.095C287.78 289.532 287.555 289.757 287.555 290.072V305.642C287.555 305.957 287.78 306.182 288.095 306.182H296.285C298.265 306.182 300.065 304.967 300.785 303.077V302.987H302V314.417H300.785C300.11 312.527 298.265 311.222 296.195 311.222H278.645C276.665 311.222 274.865 312.482 274.19 314.372L274.145 314.417H272.93V302.987H274.145L274.19 303.077C274.865 304.967 276.665 306.182 278.645 306.182H285.755C286.07 306.182 286.34 305.957 286.34 305.642V290.072C286.34 289.757 286.07 289.532 285.755 289.532H278.735C276.665 289.532 274.865 290.792 274.145 292.727H272.93V281.297H274.145ZM298.31 250.435C298.94 250.075 300.2 249.175 300.785 247.465H302V258.67H300.785C300.515 257.905 300.11 257.365 299.705 256.96C298.94 256.24 297.77 256.06 296.78 256.555L296.15 256.825C295.97 256.915 295.835 257.095 295.835 257.32V273.52C295.835 273.7 295.97 273.88 296.15 273.97L296.6 274.15C297.59 274.6 298.805 274.42 299.57 273.61C300.02 273.16 300.47 272.53 300.785 271.675H302V278.83H300.785C300.38 277.66 299.345 276.94 298.625 276.535L297.905 276.22H297.86L275.855 266.365C275.225 266.095 274.55 266.095 273.92 266.32L272.93 266.725V263.485C272.93 262.495 273.47 261.64 274.37 261.235L298.31 250.435ZM294.62 257.77C294.62 257.68 294.53 257.635 294.44 257.68L276.485 265.195C276.395 265.195 276.395 265.33 276.485 265.375L294.44 273.295C294.53 273.34 294.62 273.295 294.62 273.205V257.77ZM296.375 222.109V220.894H302V244.924H299.705L275.135 226.744C274.73 226.429 274.145 226.744 274.145 227.239V237.814C274.325 239.614 275.585 241.009 278.51 242.404V243.619H272.885L272.93 221.614H275.135L299.795 239.074C300.245 239.344 300.785 239.074 300.785 238.534V227.104C300.785 225.079 299.57 223.594 296.375 222.109Z" fill="#FFB247"/>
<path d="M29.06 384.35C30.905 384.35 32.66 383.405 33.515 381.785C33.605 381.605 33.695 381.38 33.785 381.11H35L35 392.585H33.785C33.785 392.54 33.785 392.495 33.74 392.495C33.02 390.56 31.085 389.345 29.015 389.345H13.22C12.995 389.345 12.905 389.66 13.085 389.795L28.25 399.155V400.55L13.085 413.6C12.905 413.735 13.04 414.005 13.22 414.005L29.015 414.05C31.085 414.05 33.065 412.835 33.785 410.9V410.855H35V418.55H33.785C33.695 418.325 33.605 418.1 33.47 417.875C32.66 416.255 30.86 415.31 29.06 415.31H10.07C9.935 415.4 7.955 416.21 7.145 418.55H5.93L5.93 413.15V412.745L22.49 398.66C22.94 398.3 22.895 397.625 22.4 397.31L5.93 386.96L5.93 381.155H7.145C7.91 383.27 9.62 384.17 9.98 384.35H29.06ZM31.31 350.261C31.94 349.901 33.2 349.001 33.785 347.291H35V358.496H33.785C33.515 357.731 33.11 357.191 32.705 356.786C31.94 356.066 30.77 355.886 29.78 356.381L29.15 356.651C28.97 356.741 28.835 356.921 28.835 357.146V373.346C28.835 373.526 28.97 373.706 29.15 373.796L29.6 373.976C30.59 374.426 31.805 374.246 32.57 373.436C33.02 372.986 33.47 372.356 33.785 371.501H35V378.656H33.785C33.38 377.486 32.345 376.766 31.625 376.361L30.905 376.046H30.86L8.855 366.191C8.225 365.921 7.55 365.921 6.92 366.146L5.93 366.551V363.311C5.93 362.321 6.47 361.466 7.37 361.061L31.31 350.261ZM27.62 357.596C27.62 357.506 27.53 357.461 27.44 357.506L9.485 365.021C9.395 365.021 9.395 365.156 9.485 365.201L27.44 373.121C27.53 373.166 27.62 373.121 27.62 373.031V357.596ZM28.88 317.184C28.97 317.004 29.24 316.959 29.375 317.094C33.29 320.019 35.585 324.879 35.585 330.414C35.585 339.909 28.925 347.334 20.465 347.334C12.005 347.334 5.345 339.909 5.345 330.369C5.345 324.834 7.595 320.064 11.555 317.094C11.735 316.959 11.96 317.004 12.05 317.184L13.985 320.154C14.12 320.334 14.03 320.604 13.805 320.649C10.385 321.594 6.515 325.464 6.515 330.369C6.515 337.839 14.075 342.114 20.51 342.114C26.9 342.114 34.415 338.289 34.415 330.369C34.415 324.969 29.915 321.054 27.215 320.604C26.99 320.559 26.855 320.289 26.99 320.064L28.88 317.184ZM7.145 281.297L7.19 281.342C7.865 283.232 9.665 284.492 11.645 284.492H29.285C31.265 284.492 33.065 283.232 33.785 281.342V281.297H35L35 292.727H33.785C33.11 290.792 31.265 289.532 29.195 289.532H21.095C20.78 289.532 20.555 289.757 20.555 290.072L20.555 305.642C20.555 305.957 20.78 306.182 21.095 306.182H29.285C31.265 306.182 33.065 304.967 33.785 303.077V302.987H35V314.417H33.785C33.11 312.527 31.265 311.222 29.195 311.222H11.645C9.665 311.222 7.865 312.482 7.19 314.372L7.145 314.417H5.93L5.93 302.987H7.145L7.19 303.077C7.865 304.967 9.665 306.182 11.645 306.182H18.755C19.07 306.182 19.34 305.957 19.34 305.642L19.34 290.072C19.34 289.757 19.07 289.532 18.755 289.532H11.735C9.665 289.532 7.865 290.792 7.145 292.727H5.93L5.93 281.297H7.145ZM31.31 250.435C31.94 250.075 33.2 249.175 33.785 247.465H35V258.67H33.785C33.515 257.905 33.11 257.365 32.705 256.96C31.94 256.24 30.77 256.06 29.78 256.555L29.15 256.825C28.97 256.915 28.835 257.095 28.835 257.32L28.835 273.52C28.835 273.7 28.97 273.88 29.15 273.97L29.6 274.15C30.59 274.6 31.805 274.42 32.57 273.61C33.02 273.16 33.47 272.53 33.785 271.675H35V278.83H33.785C33.38 277.66 32.345 276.94 31.625 276.535L30.905 276.22H30.86L8.855 266.365C8.225 266.095 7.55 266.095 6.92 266.32L5.93 266.725V263.485C5.93 262.495 6.47 261.64 7.37 261.235L31.31 250.435ZM27.62 257.77C27.62 257.68 27.53 257.635 27.44 257.68L9.485 265.195C9.395 265.195 9.395 265.33 9.485 265.375L27.44 273.295C27.53 273.34 27.62 273.295 27.62 273.205L27.62 257.77ZM29.375 222.109V220.894H35L35 244.924H32.705L8.135 226.744C7.73 226.429 7.145 226.744 7.145 227.239L7.145 237.814C7.325 239.614 8.585 241.009 11.51 242.404V243.619H5.885L5.93 221.614H8.135L32.795 239.074C33.245 239.344 33.785 239.074 33.785 238.534L33.785 227.104C33.785 225.079 32.57 223.594 29.375 222.109Z" fill="#FFB247"/>
<path d="M224.5 353.6C224.5 351.55 223.45 349.6 221.65 348.65C221.45 348.55 221.2 348.45 220.9 348.35V347H233.65V348.35C233.6 348.35 233.55 348.35 233.55 348.4C231.4 349.2 230.05 351.35 230.05 353.65V371.2C230.05 371.45 230.4 371.55 230.55 371.35L240.95 354.5H242.5L257 371.35C257.15 371.55 257.45 371.4 257.45 371.2L257.5 353.65C257.5 351.35 256.15 349.15 254 348.35H253.95V347H262.5V348.35C262.25 348.45 262 348.55 261.75 348.7C259.95 349.6 258.9 351.6 258.9 353.6V374.7C259 374.85 259.9 377.05 262.5 377.95V379.3H256.5H256.05L240.4 360.9C240 360.4 239.25 360.45 238.9 361L227.4 379.3H220.95V377.95C223.3 377.1 224.3 375.2 224.5 374.8V353.6ZM186.623 351.1C186.223 350.4 185.223 349 183.323 348.35V347H195.773V348.35C194.923 348.65 194.323 349.1 193.873 349.55C193.073 350.4 192.873 351.7 193.423 352.8L193.723 353.5C193.823 353.7 194.023 353.85 194.273 353.85H212.273C212.473 353.85 212.673 353.7 212.773 353.5L212.973 353C213.473 351.9 213.273 350.55 212.373 349.7C211.873 349.2 211.173 348.7 210.223 348.35V347H218.173V348.35C216.873 348.8 216.073 349.95 215.623 350.75L215.273 351.55V351.6L204.323 376.05C204.023 376.75 204.023 377.5 204.273 378.2L204.723 379.3H201.123C200.023 379.3 199.073 378.7 198.623 377.7L186.623 351.1ZM194.773 355.2C194.673 355.2 194.623 355.3 194.673 355.4L203.023 375.35C203.023 375.45 203.173 375.45 203.223 375.35L212.023 355.4C212.073 355.3 212.023 355.2 211.923 355.2H194.773ZM149.871 353.8C149.671 353.7 149.621 353.4 149.771 353.25C153.021 348.9 158.421 346.35 164.571 346.35C175.121 346.35 183.371 353.75 183.371 363.15C183.371 372.55 175.121 379.95 164.521 379.95C158.371 379.95 153.071 377.45 149.771 373.05C149.621 372.85 149.671 372.6 149.871 372.5L153.171 370.35C153.371 370.2 153.671 370.3 153.721 370.55C154.771 374.35 159.071 378.65 164.521 378.65C172.821 378.65 177.571 370.25 177.571 363.1C177.571 356 173.321 347.65 164.521 347.65C158.521 347.65 154.171 352.65 153.671 355.65C153.621 355.9 153.321 356.05 153.071 355.9L149.871 353.8ZM109.997 377.95L110.047 377.9C112.147 377.15 113.547 375.15 113.547 372.95V353.35C113.547 351.15 112.147 349.15 110.047 348.35H109.997V347H122.697V348.35C120.547 349.1 119.147 351.15 119.147 353.45V362.45C119.147 362.8 119.397 363.05 119.747 363.05H137.047C137.397 363.05 137.647 362.8 137.647 362.45V353.35C137.647 351.15 136.297 349.15 134.197 348.35H134.097V347H146.797V348.35C144.697 349.1 143.247 351.15 143.247 353.45V372.95C143.247 375.15 144.647 377.15 146.747 377.9L146.797 377.95V379.3H134.097V377.95L134.197 377.9C136.297 377.15 137.647 375.15 137.647 372.95V365.05C137.647 364.7 137.397 364.4 137.047 364.4H119.747C119.397 364.4 119.147 364.7 119.147 365.05V372.85C119.147 375.15 120.547 377.15 122.697 377.95V379.3H109.997V377.95ZM75.7051 351.1C75.3051 350.4 74.3051 349 72.4051 348.35V347H84.8551V348.35C84.0051 348.65 83.4051 349.1 82.9551 349.55C82.1551 350.4 81.9551 351.7 82.5051 352.8L82.8051 353.5C82.9051 353.7 83.1051 353.85 83.3551 353.85H101.355C101.555 353.85 101.755 353.7 101.855 353.5L102.055 353C102.555 351.9 102.355 350.55 101.455 349.7C100.955 349.2 100.255 348.7 99.3051 348.35V347H107.255V348.35C105.955 348.8 105.155 349.95 104.705 350.75L104.355 351.55V351.6L93.4051 376.05C93.1051 376.75 93.1051 377.5 93.3551 378.2L93.8051 379.3H90.2051C89.1051 379.3 88.1551 378.7 87.7051 377.7L75.7051 351.1ZM83.8551 355.2C83.7551 355.2 83.7051 355.3 83.7551 355.4L92.1051 375.35C92.1051 375.45 92.2551 375.45 92.3051 375.35L101.105 355.4C101.155 355.3 101.105 355.2 101.005 355.2H83.8551ZM44.2324 353.25H42.8824V347H69.5824V349.55L49.3824 376.85C49.0324 377.3 49.3824 377.95 49.9324 377.95H61.6824C63.6824 377.75 65.2324 376.35 66.7824 373.1H68.1324V379.35L43.6824 379.3V376.85L63.0824 349.45C63.3824 348.95 63.0824 348.35 62.4824 348.35H49.7824C47.5324 348.35 45.8824 349.7 44.2324 353.25Z" fill="#FFB247"/>
<path d="M224.5 392.6C224.5 390.55 223.45 388.6 221.65 387.65C221.45 387.55 221.2 387.45 220.9 387.35V386H233.65V387.35C233.6 387.35 233.55 387.35 233.55 387.4C231.4 388.2 230.05 390.35 230.05 392.65V410.2C230.05 410.45 230.4 410.55 230.55 410.35L240.95 393.5H242.5L257 410.35C257.15 410.55 257.45 410.4 257.45 410.2L257.5 392.65C257.5 390.35 256.15 388.15 254 387.35H253.95V386H262.5V387.35C262.25 387.45 262 387.55 261.75 387.7C259.95 388.6 258.9 390.6 258.9 392.6V413.7C259 413.85 259.9 416.05 262.5 416.95V418.3H256.5H256.05L240.4 399.9C240 399.4 239.25 399.45 238.9 400L227.4 418.3H220.95V416.95C223.3 416.1 224.3 414.2 224.5 413.8V392.6ZM186.623 390.1C186.223 389.4 185.223 388 183.323 387.35V386H195.773V387.35C194.923 387.65 194.323 388.1 193.873 388.55C193.073 389.4 192.873 390.7 193.423 391.8L193.723 392.5C193.823 392.7 194.023 392.85 194.273 392.85H212.273C212.473 392.85 212.673 392.7 212.773 392.5L212.973 392C213.473 390.9 213.273 389.55 212.373 388.7C211.873 388.2 211.173 387.7 210.223 387.35V386H218.173V387.35C216.873 387.8 216.073 388.95 215.623 389.75L215.273 390.55V390.6L204.323 415.05C204.023 415.75 204.023 416.5 204.273 417.2L204.723 418.3H201.123C200.023 418.3 199.073 417.7 198.623 416.7L186.623 390.1ZM194.773 394.2C194.673 394.2 194.623 394.3 194.673 394.4L203.023 414.35C203.023 414.45 203.173 414.45 203.223 414.35L212.023 394.4C212.073 394.3 212.023 394.2 211.923 394.2H194.773ZM149.871 392.8C149.671 392.7 149.621 392.4 149.771 392.25C153.021 387.9 158.421 385.35 164.571 385.35C175.121 385.35 183.371 392.75 183.371 402.15C183.371 411.55 175.121 418.95 164.521 418.95C158.371 418.95 153.071 416.45 149.771 412.05C149.621 411.85 149.671 411.6 149.871 411.5L153.171 409.35C153.371 409.2 153.671 409.3 153.721 409.55C154.771 413.35 159.071 417.65 164.521 417.65C172.821 417.65 177.571 409.25 177.571 402.1C177.571 395 173.321 386.65 164.521 386.65C158.521 386.65 154.171 391.65 153.671 394.65C153.621 394.9 153.321 395.05 153.071 394.9L149.871 392.8ZM109.997 416.95L110.047 416.9C112.147 416.15 113.547 414.15 113.547 411.95V392.35C113.547 390.15 112.147 388.15 110.047 387.35H109.997V386H122.697V387.35C120.547 388.1 119.147 390.15 119.147 392.45V401.45C119.147 401.8 119.397 402.05 119.747 402.05H137.047C137.397 402.05 137.647 401.8 137.647 401.45V392.35C137.647 390.15 136.297 388.15 134.197 387.35H134.097V386H146.797V387.35C144.697 388.1 143.247 390.15 143.247 392.45V411.95C143.247 414.15 144.647 416.15 146.747 416.9L146.797 416.95V418.3H134.097V416.95L134.197 416.9C136.297 416.15 137.647 414.15 137.647 411.95V404.05C137.647 403.7 137.397 403.4 137.047 403.4H119.747C119.397 403.4 119.147 403.7 119.147 404.05V411.85C119.147 414.15 120.547 416.15 122.697 416.95V418.3H109.997V416.95ZM75.7051 390.1C75.3051 389.4 74.3051 388 72.4051 387.35V386H84.8551V387.35C84.0051 387.65 83.4051 388.1 82.9551 388.55C82.1551 389.4 81.9551 390.7 82.5051 391.8L82.8051 392.5C82.9051 392.7 83.1051 392.85 83.3551 392.85H101.355C101.555 392.85 101.755 392.7 101.855 392.5L102.055 392C102.555 390.9 102.355 389.55 101.455 388.7C100.955 388.2 100.255 387.7 99.3051 387.35V386H107.255V387.35C105.955 387.8 105.155 388.95 104.705 389.75L104.355 390.55V390.6L93.4051 415.05C93.1051 415.75 93.1051 416.5 93.3551 417.2L93.8051 418.3H90.2051C89.1051 418.3 88.1551 417.7 87.7051 416.7L75.7051 390.1ZM83.8551 394.2C83.7551 394.2 83.7051 394.3 83.7551 394.4L92.1051 414.35C92.1051 414.45 92.2551 414.45 92.3051 414.35L101.105 394.4C101.155 394.3 101.105 394.2 101.005 394.2H83.8551ZM44.2324 392.25H42.8824V386H69.5824V388.55L49.3824 415.85C49.0324 416.3 49.3824 416.95 49.9324 416.95H61.6824C63.6824 416.75 65.2324 415.35 66.7824 412.1H68.1324V418.35L43.6824 418.3V415.85L63.0824 388.45C63.3824 387.95 63.0824 387.35 62.4824 387.35H49.7824C47.5324 387.35 45.8824 388.7 44.2324 392.25Z" fill="#FFB247"/>
<path d="M233.65 187.65C233.65 182.1 238.5 178.35 245.7 178.35C250.85 178.35 255.45 180.5 258.3 184.15C258.5 184.4 258.45 184.85 258.15 185.05L255.65 186.75C255.35 186.95 254.9 186.85 254.75 186.5C253.65 183.85 250.6 179.7 245.7 179.7C241.8 179.7 239.35 183.25 239.35 186.2C239.35 189.15 241.7 191.3 244.7 192.6L248.75 194.25C254.65 196.75 257.15 199.45 257.15 203.2C257.15 208.35 252.45 211.95 245.8 211.95C241.35 211.95 237.6 210.25 235.25 207.25C235.05 206.95 235.1 206.55 235.4 206.35L237.9 204.55C238.2 204.35 238.6 204.45 238.8 204.75C240.1 207.25 242.25 210.5 245.8 210.5C249.25 210.5 251.45 207.65 251.45 205C251.45 202.2 248.9 199.5 246.45 198.45L242.2 196.75C236.05 194.25 233.65 191.7 233.65 187.65ZM204.416 185.25H203.066V178.95H230.316V180.35H230.266C228.116 181.15 226.766 183.35 226.766 185.7V204.6C226.766 206.9 228.116 209.1 230.266 209.9C230.266 209.95 230.316 209.95 230.316 209.95V211.3H203.716V209.95V205.05H205.066C206.766 208.6 210.316 209.9 210.516 209.95H220.716C220.966 209.95 221.166 209.75 221.166 209.5V196.9C221.166 196.65 220.966 196.4 220.716 196.4H215.766C215.216 196.4 211.416 196.6 209.716 200.2H208.366V191.2H209.716C211.266 194.45 214.866 195.05 215.666 195.05H220.716C220.966 195.05 221.166 194.85 221.166 194.6V180.8C221.166 180.55 220.966 180.35 220.716 180.35H209.866C209.816 180.35 206.116 181.6 204.416 185.25ZM173.503 211.3H164.803V209.95C166.753 209.25 168.803 205.7 169.403 204.25L181.503 179H183.353L196.853 207.35C197.303 208.1 198.303 209.3 200.053 209.95V211.3L186.753 211.3V209.95C186.853 209.95 186.903 209.9 186.953 209.9C189.203 209 190.153 206.35 189.203 204.15L181.553 187.05C181.153 186.2 179.903 186.15 179.503 187.05L171.153 204.3C170.103 206.45 171.153 209.1 173.453 209.9L173.503 209.95V211.3ZM136.184 185.25H134.834V178.95H162.084V180.35H162.034C159.884 181.15 158.534 183.35 158.534 185.7V204.6C158.534 206.9 159.884 209.1 162.034 209.9C162.034 209.95 162.084 209.95 162.084 209.95V211.3H135.484V209.95V205.05H136.834C138.534 208.6 142.084 209.9 142.284 209.95H152.484C152.734 209.95 152.934 209.75 152.934 209.5V196.9C152.934 196.65 152.734 196.4 152.484 196.4H147.534C146.984 196.4 143.184 196.6 141.484 200.2H140.134V191.2H141.484C143.034 194.45 146.634 195.05 147.434 195.05H152.484C152.734 195.05 152.934 194.85 152.934 194.6V180.8C152.934 180.55 152.734 180.35 152.484 180.35H141.634C141.584 180.35 137.884 181.6 136.184 185.25ZM108.921 191.6L99.0707 179H112.271V180.35C111.721 180.55 111.221 180.8 110.821 181.1C109.371 182.1 109.171 184.1 110.221 185.45L113.821 189.95C114.371 190.7 115.271 191.1 116.221 191.1H120.571C121.271 191.1 121.871 190.55 121.871 189.85V185.45C121.871 183.15 120.421 181.1 118.271 180.35V179H130.971V180.35C128.871 181.1 127.421 183.15 127.421 185.45V204.95C127.421 207.15 128.821 209.15 130.921 209.9L130.971 209.95V211.3H114.471C107.021 211.3 102.021 207.25 102.021 201.25C102.021 196.95 104.621 193.65 108.821 192.1C108.971 192 109.071 191.8 108.921 191.6ZM116.971 192.4C112.971 192.4 107.771 195.5 107.771 201.25C107.771 208 112.971 209.95 116.971 209.95H120.571C121.271 209.95 121.871 209.4 121.871 208.7V193.7C121.871 193 121.271 192.4 120.571 192.4H116.971ZM83.3488 209.95C83.3488 209.95 83.3988 209.95 83.4488 209.9C85.5988 209.1 86.8988 206.9 86.8988 204.6V185.7C86.8988 183.35 85.5988 181.15 83.4488 180.35C83.3988 180.35 83.3488 180.35 83.3488 180.35V178.95H96.0488V180.35H95.9988C93.8488 181.15 92.4988 183.35 92.4988 185.7V204.6C92.4988 206.9 93.8488 209.1 95.9988 209.9C95.9988 209.95 96.0488 209.95 96.0488 209.95V211.3H83.3488V209.95ZM42.9793 209.95C42.9793 209.9 43.0293 209.9 43.0793 209.9C45.2293 209.1 46.5293 206.9 46.5293 204.6V185.15C46.5293 183.75 45.9793 182.4 44.9293 181.5C44.4293 181.05 43.7793 180.65 42.9793 180.35V179H48.5793C49.6793 179 50.6793 179.4 51.3793 180.2L74.0793 204.65C74.2793 204.85 74.6793 204.7 74.6793 204.4L74.7293 185.35C74.7293 183.15 73.3293 181.15 71.2293 180.35H71.1293V179L79.7793 179V180.35C77.6793 181.1 76.2293 183.15 76.2293 185.45V206.75C76.4293 207.15 77.3793 209.1 79.7793 209.95V211.3H74.2293C73.1793 211.3 72.1793 210.9 71.4793 210.1L48.5793 186.2C48.3793 186 48.0293 186.15 48.0293 186.45L47.9793 204.6C47.9793 206.9 49.3293 209.1 51.4793 209.9C51.4793 209.9 51.5293 209.9 51.5293 209.95V211.3H47.9793H46.5293H42.9793V209.95Z" fill="#FFB247"/>
<path d="M233.65 105.65C233.65 100.1 238.5 96.35 245.7 96.35C250.85 96.35 255.45 98.5 258.3 102.15C258.5 102.4 258.45 102.85 258.15 103.05L255.65 104.75C255.35 104.95 254.9 104.85 254.75 104.5C253.65 101.85 250.6 97.7 245.7 97.7C241.8 97.7 239.35 101.25 239.35 104.2C239.35 107.15 241.7 109.3 244.7 110.6L248.75 112.25C254.65 114.75 257.15 117.45 257.15 121.2C257.15 126.35 252.45 129.95 245.8 129.95C241.35 129.95 237.6 128.25 235.25 125.25C235.05 124.95 235.1 124.55 235.4 124.35L237.9 122.55C238.2 122.35 238.6 122.45 238.8 122.75C240.1 125.25 242.25 128.5 245.8 128.5C249.25 128.5 251.45 125.65 251.45 123C251.45 120.2 248.9 117.5 246.45 116.45L242.2 114.75C236.05 112.25 233.65 109.7 233.65 105.65ZM204.416 103.25H203.066V96.95L230.316 96.95V98.35H230.266C228.116 99.15 226.766 101.35 226.766 103.7V122.6C226.766 124.9 228.116 127.1 230.266 127.9C230.266 127.95 230.316 127.95 230.316 127.95V129.3H203.716V127.95V123.05H205.066C206.766 126.6 210.316 127.9 210.516 127.95L220.716 127.95C220.966 127.95 221.166 127.75 221.166 127.5V114.9C221.166 114.65 220.966 114.4 220.716 114.4L215.766 114.4C215.216 114.4 211.416 114.6 209.716 118.2H208.366V109.2H209.716C211.266 112.45 214.866 113.05 215.666 113.05L220.716 113.05C220.966 113.05 221.166 112.85 221.166 112.6V98.8C221.166 98.55 220.966 98.35 220.716 98.35H209.866C209.816 98.35 206.116 99.6 204.416 103.25ZM173.503 129.3H164.803V127.95C166.753 127.25 168.803 123.7 169.403 122.25L181.503 97H183.353L196.853 125.35C197.303 126.1 198.303 127.3 200.053 127.95V129.3L186.753 129.3V127.95C186.853 127.95 186.903 127.9 186.953 127.9C189.203 127 190.153 124.35 189.203 122.15L181.553 105.05C181.153 104.2 179.903 104.15 179.503 105.05L171.153 122.3C170.103 124.45 171.153 127.1 173.453 127.9L173.503 127.95V129.3ZM136.184 103.25H134.834V96.95H162.084V98.35H162.034C159.884 99.15 158.534 101.35 158.534 103.7V122.6C158.534 124.9 159.884 127.1 162.034 127.9C162.034 127.95 162.084 127.95 162.084 127.95V129.3H135.484V127.95V123.05H136.834C138.534 126.6 142.084 127.9 142.284 127.95H152.484C152.734 127.95 152.934 127.75 152.934 127.5V114.9C152.934 114.65 152.734 114.4 152.484 114.4H147.534C146.984 114.4 143.184 114.6 141.484 118.2H140.134V109.2H141.484C143.034 112.45 146.634 113.05 147.434 113.05H152.484C152.734 113.05 152.934 112.85 152.934 112.6V98.8C152.934 98.55 152.734 98.35 152.484 98.35H141.634C141.584 98.35 137.884 99.6 136.184 103.25ZM108.921 109.6L99.0707 97H112.271V98.35C111.721 98.55 111.221 98.8 110.821 99.1C109.371 100.1 109.171 102.1 110.221 103.45L113.821 107.95C114.371 108.7 115.271 109.1 116.221 109.1H120.571C121.271 109.1 121.871 108.55 121.871 107.85V103.45C121.871 101.15 120.421 99.1 118.271 98.35V97H130.971V98.35C128.871 99.1 127.421 101.15 127.421 103.45V122.95C127.421 125.15 128.821 127.15 130.921 127.9L130.971 127.95V129.3H114.471C107.021 129.3 102.021 125.25 102.021 119.25C102.021 114.95 104.621 111.65 108.821 110.1C108.971 110 109.071 109.8 108.921 109.6ZM116.971 110.4C112.971 110.4 107.771 113.5 107.771 119.25C107.771 126 112.971 127.95 116.971 127.95H120.571C121.271 127.95 121.871 127.4 121.871 126.7V111.7C121.871 111 121.271 110.4 120.571 110.4H116.971ZM83.3488 127.95C83.3488 127.95 83.3988 127.95 83.4488 127.9C85.5988 127.1 86.8988 124.9 86.8988 122.6V103.7C86.8988 101.35 85.5988 99.15 83.4488 98.35C83.3988 98.35 83.3488 98.35 83.3488 98.35V96.95H96.0488V98.35H95.9988C93.8488 99.15 92.4988 101.35 92.4988 103.7V122.6C92.4988 124.9 93.8488 127.1 95.9988 127.9C95.9988 127.95 96.0488 127.95 96.0488 127.95V129.3H83.3488V127.95ZM42.9793 127.95C42.9793 127.9 43.0293 127.9 43.0793 127.9C45.2293 127.1 46.5293 124.9 46.5293 122.6V103.15C46.5293 101.75 45.9793 100.4 44.9293 99.5C44.4293 99.05 43.7793 98.65 42.9793 98.35V97H48.5793C49.6793 97 50.6793 97.4 51.3793 98.2L74.0793 122.65C74.2793 122.85 74.6793 122.7 74.6793 122.4L74.7293 103.35C74.7293 101.15 73.3293 99.15 71.2293 98.35H71.1293V97L79.7793 97V98.35C77.6793 99.1 76.2293 101.15 76.2293 103.45V124.75C76.4293 125.15 77.3793 127.1 79.7793 127.95V129.3H74.2293C73.1793 129.3 72.1793 128.9 71.4793 128.1L48.5793 104.2C48.3793 104 48.0293 104.15 48.0293 104.45L47.9793 122.6C47.9793 124.9 49.3293 127.1 51.4793 127.9C51.4793 127.9 51.5293 127.9 51.5293 127.95V129.3H47.9793H46.5293H42.9793V127.95Z" fill="#FFB247"/>
<path d="M233.65 70.65C233.65 65.1 238.5 61.35 245.7 61.35C250.85 61.35 255.45 63.5 258.3 67.15C258.5 67.4 258.45 67.85 258.15 68.05L255.65 69.75C255.35 69.95 254.9 69.85 254.75 69.5C253.65 66.85 250.6 62.7 245.7 62.7C241.8 62.7 239.35 66.25 239.35 69.2C239.35 72.15 241.7 74.3 244.7 75.6L248.75 77.25C254.65 79.75 257.15 82.45 257.15 86.2C257.15 91.35 252.45 94.95 245.8 94.95C241.35 94.95 237.6 93.25 235.25 90.25C235.05 89.95 235.1 89.55 235.4 89.35L237.9 87.55C238.2 87.35 238.6 87.45 238.8 87.75C240.1 90.25 242.25 93.5 245.8 93.5C249.25 93.5 251.45 90.65 251.45 88C251.45 85.2 248.9 82.5 246.45 81.45L242.2 79.75C236.05 77.25 233.65 74.7 233.65 70.65ZM204.416 68.25H203.066V61.95L230.316 61.95V63.35H230.266C228.116 64.15 226.766 66.35 226.766 68.7V87.6C226.766 89.9 228.116 92.1 230.266 92.9C230.266 92.95 230.316 92.95 230.316 92.95V94.3L203.716 94.3V92.95V88.05H205.066C206.766 91.6 210.316 92.9 210.516 92.95L220.716 92.95C220.966 92.95 221.166 92.75 221.166 92.5V79.9C221.166 79.65 220.966 79.4 220.716 79.4L215.766 79.4C215.216 79.4 211.416 79.6 209.716 83.2H208.366V74.2H209.716C211.266 77.45 214.866 78.05 215.666 78.05L220.716 78.05C220.966 78.05 221.166 77.85 221.166 77.6V63.8C221.166 63.55 220.966 63.35 220.716 63.35H209.866C209.816 63.35 206.116 64.6 204.416 68.25ZM173.503 94.3H164.803V92.95C166.753 92.25 168.803 88.7 169.403 87.25L181.503 62H183.353L196.853 90.35C197.303 91.1 198.303 92.3 200.053 92.95V94.3H186.753V92.95C186.853 92.95 186.903 92.9 186.953 92.9C189.203 92 190.153 89.35 189.203 87.15L181.553 70.05C181.153 69.2 179.903 69.15 179.503 70.05L171.153 87.3C170.103 89.45 171.153 92.1 173.453 92.9L173.503 92.95V94.3ZM136.184 68.25H134.834V61.95L162.084 61.95V63.35H162.034C159.884 64.15 158.534 66.35 158.534 68.7V87.6C158.534 89.9 159.884 92.1 162.034 92.9C162.034 92.95 162.084 92.95 162.084 92.95V94.3L135.484 94.3V92.95V88.05H136.834C138.534 91.6 142.084 92.9 142.284 92.95H152.484C152.734 92.95 152.934 92.75 152.934 92.5V79.9C152.934 79.65 152.734 79.4 152.484 79.4H147.534C146.984 79.4 143.184 79.6 141.484 83.2H140.134V74.2H141.484C143.034 77.45 146.634 78.05 147.434 78.05H152.484C152.734 78.05 152.934 77.85 152.934 77.6V63.8C152.934 63.55 152.734 63.35 152.484 63.35H141.634C141.584 63.35 137.884 64.6 136.184 68.25ZM108.921 74.6L99.0707 62L112.271 62V63.35C111.721 63.55 111.221 63.8 110.821 64.1C109.371 65.1 109.171 67.1 110.221 68.45L113.821 72.95C114.371 73.7 115.271 74.1 116.221 74.1H120.571C121.271 74.1 121.871 73.55 121.871 72.85V68.45C121.871 66.15 120.421 64.1 118.271 63.35V62H130.971V63.35C128.871 64.1 127.421 66.15 127.421 68.45V87.95C127.421 90.15 128.821 92.15 130.921 92.9L130.971 92.95V94.3H114.471C107.021 94.3 102.021 90.25 102.021 84.25C102.021 79.95 104.621 76.65 108.821 75.1C108.971 75 109.071 74.8 108.921 74.6ZM116.971 75.4C112.971 75.4 107.771 78.5 107.771 84.25C107.771 91 112.971 92.95 116.971 92.95H120.571C121.271 92.95 121.871 92.4 121.871 91.7V76.7C121.871 76 121.271 75.4 120.571 75.4H116.971ZM83.3488 92.95C83.3488 92.95 83.3988 92.95 83.4488 92.9C85.5988 92.1 86.8988 89.9 86.8988 87.6V68.7C86.8988 66.35 85.5988 64.15 83.4488 63.35C83.3988 63.35 83.3488 63.35 83.3488 63.35V61.95H96.0488V63.35H95.9988C93.8488 64.15 92.4988 66.35 92.4988 68.7V87.6C92.4988 89.9 93.8488 92.1 95.9988 92.9C95.9988 92.95 96.0488 92.95 96.0488 92.95V94.3L83.3488 94.3V92.95ZM42.9793 92.95C42.9793 92.9 43.0293 92.9 43.0793 92.9C45.2293 92.1 46.5293 89.9 46.5293 87.6V68.15C46.5293 66.75 45.9793 65.4 44.9293 64.5C44.4293 64.05 43.7793 63.65 42.9793 63.35V62H48.5793C49.6793 62 50.6793 62.4 51.3793 63.2L74.0793 87.65C74.2793 87.85 74.6793 87.7 74.6793 87.4L74.7293 68.35C74.7293 66.15 73.3293 64.15 71.2293 63.35H71.1293V62L79.7793 62V63.35C77.6793 64.1 76.2293 66.15 76.2293 68.45V89.75C76.4293 90.15 77.3793 92.1 79.7793 92.95V94.3H74.2293C73.1793 94.3 72.1793 93.9 71.4793 93.1L48.5793 69.2C48.3793 69 48.0293 69.15 48.0293 69.45L47.9793 87.6C47.9793 89.9 49.3293 92.1 51.4793 92.9C51.4793 92.9 51.5293 92.9 51.5293 92.95V94.3H47.9793H46.5293H42.9793V92.95Z" fill="#FFB247"/>
<path d="M233.65 31.65C233.65 26.1 238.5 22.35 245.7 22.35C250.85 22.35 255.45 24.5 258.3 28.15C258.5 28.4 258.45 28.85 258.15 29.05L255.65 30.75C255.35 30.95 254.9 30.85 254.75 30.5C253.65 27.85 250.6 23.7 245.7 23.7C241.8 23.7 239.35 27.25 239.35 30.2C239.35 33.15 241.7 35.3 244.7 36.6L248.75 38.25C254.65 40.75 257.15 43.45 257.15 47.2C257.15 52.35 252.45 55.95 245.8 55.95C241.35 55.95 237.6 54.25 235.25 51.25C235.05 50.95 235.1 50.55 235.4 50.35L237.9 48.55C238.2 48.35 238.6 48.45 238.8 48.75C240.1 51.25 242.25 54.5 245.8 54.5C249.25 54.5 251.45 51.65 251.45 49C251.45 46.2 248.9 43.5 246.45 42.45L242.2 40.75C236.05 38.25 233.65 35.7 233.65 31.65ZM204.416 29.25H203.066V22.95L230.316 22.95V24.35H230.266C228.116 25.15 226.766 27.35 226.766 29.7V48.6C226.766 50.9 228.116 53.1 230.266 53.9C230.266 53.95 230.316 53.95 230.316 53.95V55.3L203.716 55.3V53.95V49.05H205.066C206.766 52.6 210.316 53.9 210.516 53.95L220.716 53.95C220.966 53.95 221.166 53.75 221.166 53.5V40.9C221.166 40.65 220.966 40.4 220.716 40.4L215.766 40.4C215.216 40.4 211.416 40.6 209.716 44.2H208.366V35.2H209.716C211.266 38.45 214.866 39.05 215.666 39.05L220.716 39.05C220.966 39.05 221.166 38.85 221.166 38.6V24.8C221.166 24.55 220.966 24.35 220.716 24.35H209.866C209.816 24.35 206.116 25.6 204.416 29.25ZM173.503 55.3L164.803 55.3V53.95C166.753 53.25 168.803 49.7 169.403 48.25L181.503 23H183.353L196.853 51.35C197.303 52.1 198.303 53.3 200.053 53.95V55.3H186.753V53.95C186.853 53.95 186.903 53.9 186.953 53.9C189.203 53 190.153 50.35 189.203 48.15L181.553 31.05C181.153 30.2 179.903 30.15 179.503 31.05L171.153 48.3C170.103 50.45 171.153 53.1 173.453 53.9L173.503 53.95V55.3ZM136.184 29.25H134.834V22.95L162.084 22.95V24.35H162.034C159.884 25.15 158.534 27.35 158.534 29.7V48.6C158.534 50.9 159.884 53.1 162.034 53.9C162.034 53.95 162.084 53.95 162.084 53.95V55.3L135.484 55.3V53.95V49.05H136.834C138.534 52.6 142.084 53.9 142.284 53.95L152.484 53.95C152.734 53.95 152.934 53.75 152.934 53.5V40.9C152.934 40.65 152.734 40.4 152.484 40.4L147.534 40.4C146.984 40.4 143.184 40.6 141.484 44.2H140.134V35.2H141.484C143.034 38.45 146.634 39.05 147.434 39.05L152.484 39.05C152.734 39.05 152.934 38.85 152.934 38.6V24.8C152.934 24.55 152.734 24.35 152.484 24.35H141.634C141.584 24.35 137.884 25.6 136.184 29.25ZM108.921 35.6L99.0707 23L112.271 23V24.35C111.721 24.55 111.221 24.8 110.821 25.1C109.371 26.1 109.171 28.1 110.221 29.45L113.821 33.95C114.371 34.7 115.271 35.1 116.221 35.1H120.571C121.271 35.1 121.871 34.55 121.871 33.85V29.45C121.871 27.15 120.421 25.1 118.271 24.35V23H130.971V24.35C128.871 25.1 127.421 27.15 127.421 29.45V48.95C127.421 51.15 128.821 53.15 130.921 53.9L130.971 53.95V55.3H114.471C107.021 55.3 102.021 51.25 102.021 45.25C102.021 40.95 104.621 37.65 108.821 36.1C108.971 36 109.071 35.8 108.921 35.6ZM116.971 36.4C112.971 36.4 107.771 39.5 107.771 45.25C107.771 52 112.971 53.95 116.971 53.95H120.571C121.271 53.95 121.871 53.4 121.871 52.7V37.7C121.871 37 121.271 36.4 120.571 36.4H116.971ZM83.3488 53.95C83.3488 53.95 83.3988 53.95 83.4488 53.9C85.5988 53.1 86.8988 50.9 86.8988 48.6V29.7C86.8988 27.35 85.5988 25.15 83.4488 24.35C83.3988 24.35 83.3488 24.35 83.3488 24.35V22.95H96.0488V24.35H95.9988C93.8488 25.15 92.4988 27.35 92.4988 29.7V48.6C92.4988 50.9 93.8488 53.1 95.9988 53.9C95.9988 53.95 96.0488 53.95 96.0488 53.95V55.3H83.3488V53.95ZM42.9793 53.95C42.9793 53.9 43.0293 53.9 43.0793 53.9C45.2293 53.1 46.5293 50.9 46.5293 48.6V29.15C46.5293 27.75 45.9793 26.4 44.9293 25.5C44.4293 25.05 43.7793 24.65 42.9793 24.35V23H48.5793C49.6793 23 50.6793 23.4 51.3793 24.2L74.0793 48.65C74.2793 48.85 74.6793 48.7 74.6793 48.4L74.7293 29.35C74.7293 27.15 73.3293 25.15 71.2293 24.35H71.1293V23L79.7793 23V24.35C77.6793 25.1 76.2293 27.15 76.2293 29.45V50.75C76.4293 51.15 77.3793 53.1 79.7793 53.95V55.3H74.2293C73.1793 55.3 72.1793 54.9 71.4793 54.1L48.5793 30.2C48.3793 30 48.0293 30.15 48.0293 30.45L47.9793 48.6C47.9793 50.9 49.3293 53.1 51.4793 53.9C51.4793 53.9 51.5293 53.9 51.5293 53.95V55.3H47.9793H46.5293H42.9793V53.95Z" fill="#FFB247"/>
<path d="M290.215 195.185C295.21 195.185 298.585 199.55 298.585 206.03C298.585 210.665 296.65 214.805 293.365 217.37C293.14 217.55 292.735 217.505 292.555 217.235L291.025 214.985C290.845 214.715 290.935 214.31 291.25 214.175C293.635 213.185 297.37 210.44 297.37 206.03C297.37 202.52 294.175 200.315 291.52 200.315C288.865 200.315 286.93 202.43 285.76 205.13L284.275 208.775C282.025 214.085 279.595 216.335 276.22 216.335C271.585 216.335 268.345 212.105 268.345 206.12C268.345 202.115 269.875 198.74 272.575 196.625C272.845 196.445 273.205 196.49 273.385 196.76L275.005 199.01C275.185 199.28 275.095 199.64 274.825 199.82C272.575 200.99 269.65 202.925 269.65 206.12C269.65 209.225 272.215 211.205 274.6 211.205C277.12 211.205 279.55 208.91 280.495 206.705L282.025 202.88C284.275 197.345 286.57 195.185 290.215 195.185ZM292.375 168.875V167.66H298.045V192.185H296.785V192.14C296.065 190.205 294.085 188.99 291.97 188.99H274.96C272.89 188.99 270.91 190.205 270.19 192.14C270.145 192.14 270.145 192.185 270.145 192.185H268.93V168.245H270.145H274.555V169.46C271.36 170.99 270.19 174.185 270.145 174.365V183.545C270.145 183.77 270.325 183.95 270.55 183.95H281.89C282.115 183.95 282.34 183.77 282.34 183.545V179.09C282.34 178.595 282.16 175.175 278.92 173.645V172.43H287.02V173.645C284.095 175.04 283.555 178.28 283.555 179V183.545C283.555 183.77 283.735 183.95 283.96 183.95H296.38C296.605 183.95 296.785 183.77 296.785 183.545V173.78C296.785 173.735 295.66 170.405 292.375 168.875ZM268.93 141.053V133.223H270.145C270.775 134.978 273.97 136.823 275.275 137.363L298 148.253V149.918L272.485 162.068C271.81 162.473 270.73 163.373 270.145 164.948H268.93V152.978H270.145C270.145 153.068 270.19 153.113 270.19 153.158C271 155.183 273.385 156.038 275.365 155.183L290.755 148.298C291.52 147.938 291.565 146.813 290.755 146.453L275.23 138.938C273.295 137.993 270.91 138.938 270.19 141.008L270.145 141.053H268.93ZM292.375 107.466V106.251H298.045V130.776H296.785V130.731C296.065 128.796 294.085 127.581 291.97 127.581H274.96C272.89 127.581 270.91 128.796 270.19 130.731C270.145 130.731 270.145 130.776 270.145 130.776H268.93V106.836H270.145H274.555V108.051C271.36 109.581 270.19 112.776 270.145 112.956V122.136C270.145 122.361 270.325 122.541 270.55 122.541H281.89C282.115 122.541 282.34 122.361 282.34 122.136V117.681C282.34 117.186 282.16 113.766 278.92 112.236V111.021H287.02V112.236C284.095 113.631 283.555 116.871 283.555 117.591V122.136C283.555 122.361 283.735 122.541 283.96 122.541H296.38C296.605 122.541 296.785 122.361 296.785 122.136V112.371C296.785 112.326 295.66 108.996 292.375 107.466ZM286.66 82.9286L298 74.0636V85.9436H296.785C296.605 85.4486 296.38 84.9986 296.11 84.6386C295.21 83.3336 293.41 83.1536 292.195 84.0986L288.145 87.3386C287.47 87.8336 287.11 88.6436 287.11 89.4986V93.4136C287.11 94.0436 287.605 94.5836 288.235 94.5836H292.195C294.265 94.5836 296.11 93.2786 296.785 91.3436H298V102.774H296.785C296.11 100.884 294.265 99.5786 292.195 99.5786H274.645C272.665 99.5786 270.865 100.839 270.19 102.729L270.145 102.774H268.93V87.9236C268.93 81.2186 272.575 76.7186 277.975 76.7186C281.845 76.7186 284.815 79.0586 286.21 82.8386C286.3 82.9736 286.48 83.0636 286.66 82.9286ZM285.94 90.1736C285.94 86.5736 283.15 81.8936 277.975 81.8936C271.9 81.8936 270.145 86.5736 270.145 90.1736V93.4136C270.145 94.0436 270.64 94.5836 271.27 94.5836H284.77C285.4 94.5836 285.94 94.0436 285.94 93.4136V90.1736ZM270.145 59.9139C270.145 59.9139 270.145 59.9589 270.19 60.0039C270.91 61.9389 272.89 63.1089 274.96 63.1089H291.97C294.085 63.1089 296.065 61.9389 296.785 60.0039C296.785 59.9589 296.785 59.9139 296.785 59.9139H298.045V71.3439H296.785V71.2989C296.065 69.3639 294.085 68.1489 291.97 68.1489H274.96C272.89 68.1489 270.91 69.3639 270.19 71.2989C270.145 71.2989 270.145 71.3439 270.145 71.3439H268.93V59.9139H270.145ZM270.145 23.5814C270.19 23.5814 270.19 23.6264 270.19 23.6714C270.91 25.6064 272.89 26.7764 274.96 26.7764H292.465C293.725 26.7764 294.94 26.2814 295.75 25.3364C296.155 24.8864 296.515 24.3014 296.785 23.5814H298V28.6214C298 29.6114 297.64 30.5114 296.92 31.1414L274.915 51.5714C274.735 51.7514 274.87 52.1114 275.14 52.1114L292.285 52.1564C294.265 52.1564 296.065 50.8964 296.785 49.0064V48.9164H298V56.7014H296.785C296.11 54.8114 294.265 53.5064 292.195 53.5064H273.025C272.665 53.6864 270.91 54.5414 270.145 56.7014H268.93V51.7064C268.93 50.7614 269.29 49.8614 270.01 49.2314L291.52 28.6214C291.7 28.4414 291.565 28.1264 291.295 28.1264L274.96 28.0814C272.89 28.0814 270.91 29.2964 270.19 31.2314C270.19 31.2314 270.19 31.2764 270.145 31.2764H268.93V28.0814V26.7764V23.5814H270.145Z" fill="#FFB247"/>
<path d="M27.215 195.185C32.21 195.185 35.585 199.55 35.585 206.03C35.585 210.665 33.65 214.805 30.365 217.37C30.14 217.55 29.735 217.505 29.555 217.235L28.025 214.985C27.845 214.715 27.935 214.31 28.25 214.175C30.635 213.185 34.37 210.44 34.37 206.03C34.37 202.52 31.175 200.315 28.52 200.315C25.865 200.315 23.93 202.43 22.76 205.13L21.275 208.775C19.025 214.085 16.595 216.335 13.22 216.335C8.585 216.335 5.345 212.105 5.345 206.12C5.345 202.115 6.875 198.74 9.575 196.625C9.845 196.445 10.205 196.49 10.385 196.76L12.005 199.01C12.185 199.28 12.095 199.64 11.825 199.82C9.575 200.99 6.65 202.925 6.65 206.12C6.65 209.225 9.215 211.205 11.6 211.205C14.12 211.205 16.55 208.91 17.495 206.705L19.025 202.88C21.275 197.345 23.57 195.185 27.215 195.185ZM29.375 168.875V167.66H35.045V192.185H33.785V192.14C33.065 190.205 31.085 188.99 28.97 188.99H11.96C9.89 188.99 7.91 190.205 7.19 192.14C7.145 192.14 7.145 192.185 7.145 192.185H5.93V168.245H7.145H11.555V169.46C8.36 170.99 7.19 174.185 7.145 174.365V183.545C7.145 183.77 7.325 183.95 7.55 183.95H18.89C19.115 183.95 19.34 183.77 19.34 183.545V179.09C19.34 178.595 19.16 175.175 15.92 173.645V172.43H24.02V173.645C21.095 175.04 20.555 178.28 20.555 179V183.545C20.555 183.77 20.735 183.95 20.96 183.95H33.38C33.605 183.95 33.785 183.77 33.785 183.545V173.78C33.785 173.735 32.66 170.405 29.375 168.875ZM5.93 141.053V133.223H7.145C7.775 134.978 10.97 136.823 12.275 137.363L35 148.253V149.918L9.485 162.068C8.81 162.473 7.73 163.373 7.145 164.948H5.93L5.93 152.978H7.145C7.145 153.068 7.19 153.113 7.19 153.158C8 155.183 10.385 156.038 12.365 155.183L27.755 148.298C28.52 147.938 28.565 146.813 27.755 146.453L12.23 138.938C10.295 137.993 7.91 138.938 7.19 141.008L7.145 141.053H5.93ZM29.375 107.466V106.251H35.045V130.776H33.785V130.731C33.065 128.796 31.085 127.581 28.97 127.581H11.96C9.89 127.581 7.91 128.796 7.19 130.731C7.145 130.731 7.145 130.776 7.145 130.776H5.93L5.93 106.836H7.145H11.555V108.051C8.36 109.581 7.19 112.776 7.145 112.956V122.136C7.145 122.361 7.325 122.541 7.55 122.541H18.89C19.115 122.541 19.34 122.361 19.34 122.136V117.681C19.34 117.186 19.16 113.766 15.92 112.236V111.021H24.02V112.236C21.095 113.631 20.555 116.871 20.555 117.591V122.136C20.555 122.361 20.735 122.541 20.96 122.541H33.38C33.605 122.541 33.785 122.361 33.785 122.136V112.371C33.785 112.326 32.66 108.996 29.375 107.466ZM23.66 82.9286L35 74.0636V85.9436H33.785C33.605 85.4486 33.38 84.9986 33.11 84.6386C32.21 83.3336 30.41 83.1536 29.195 84.0986L25.145 87.3386C24.47 87.8336 24.11 88.6436 24.11 89.4986V93.4136C24.11 94.0436 24.605 94.5836 25.235 94.5836H29.195C31.265 94.5836 33.11 93.2786 33.785 91.3436H35V102.774H33.785C33.11 100.884 31.265 99.5786 29.195 99.5786H11.645C9.665 99.5786 7.865 100.839 7.19 102.729L7.145 102.774H5.93L5.93 87.9236C5.93 81.2186 9.575 76.7186 14.975 76.7186C18.845 76.7186 21.815 79.0586 23.21 82.8386C23.3 82.9736 23.48 83.0636 23.66 82.9286ZM22.94 90.1736C22.94 86.5736 20.15 81.8936 14.975 81.8936C8.9 81.8936 7.145 86.5736 7.145 90.1736L7.145 93.4136C7.145 94.0436 7.64 94.5836 8.27 94.5836H21.77C22.4 94.5836 22.94 94.0436 22.94 93.4136V90.1736ZM7.145 59.9139C7.145 59.9139 7.145 59.9589 7.19 60.0039C7.91 61.9389 9.89 63.1089 11.96 63.1089H28.97C31.085 63.1089 33.065 61.9389 33.785 60.0039C33.785 59.9589 33.785 59.9139 33.785 59.9139H35.045V71.3439H33.785V71.2989C33.065 69.3639 31.085 68.1489 28.97 68.1489H11.96C9.89 68.1489 7.91 69.3639 7.19 71.2989C7.145 71.2989 7.145 71.3439 7.145 71.3439H5.93V59.9139H7.145ZM7.145 23.5814C7.19 23.5814 7.19 23.6264 7.19 23.6714C7.91 25.6064 9.89 26.7764 11.96 26.7764H29.465C30.725 26.7764 31.94 26.2814 32.75 25.3364C33.155 24.8864 33.515 24.3014 33.785 23.5814H35V28.6214C35 29.6114 34.64 30.5114 33.92 31.1414L11.915 51.5714C11.735 51.7514 11.87 52.1114 12.14 52.1114L29.285 52.1564C31.265 52.1564 33.065 50.8964 33.785 49.0064V48.9164H35V56.7014H33.785C33.11 54.8114 31.265 53.5064 29.195 53.5064H10.025C9.665 53.6864 7.91 54.5414 7.145 56.7014H5.93L5.93 51.7064C5.93 50.7614 6.29 49.8614 7.01 49.2314L28.52 28.6214C28.7 28.4414 28.565 28.1264 28.295 28.1264L11.96 28.0814C9.89 28.0814 7.91 29.2964 7.19 31.2314C7.19 31.2314 7.19 31.2764 7.145 31.2764H5.93V28.0814V26.7764V23.5814H7.145Z" fill="#FFB247"/>
</svg>
