<svg width="314" height="425" viewBox="0 0 314 425" fill="none" xmlns="http://www.w3.org/2000/svg">
<path d="M64.35 159.35C64.35 164.9 59.5 168.65 52.3 168.65C47.15 168.65 42.55 166.5 39.7 162.85C39.5 162.6 39.55 162.15 39.85 161.95L42.35 160.25C42.65 160.05 43.1 160.15 43.25 160.5C44.35 163.15 47.4 167.3 52.3 167.3C56.2 167.3 58.65 163.75 58.65 160.8C58.65 157.85 56.3 155.7 53.3 154.4L49.25 152.75C43.35 150.25 40.85 147.55 40.85 143.8C40.85 138.65 45.55 135.05 52.2 135.05C56.65 135.05 60.4 136.75 62.75 139.75C62.95 140.05 62.9 140.45 62.6 140.65L60.1 142.45C59.8 142.65 59.4 142.55 59.2 142.25C57.9 139.75 55.75 136.5 52.2 136.5C48.75 136.5 46.55 139.35 46.55 142C46.55 144.8 49.1 147.5 51.55 148.55L55.8 150.25C61.95 152.75 64.35 155.3 64.35 159.35ZM93.5836 161.75H94.9336V168.05H67.6836V166.65H67.7336C69.8836 165.85 71.2336 163.65 71.2336 161.3V142.4C71.2336 140.1 69.8836 137.9 67.7336 137.1C67.7336 137.05 67.6836 137.05 67.6836 137.05V135.7H94.2836V137.05V141.95H92.9336C91.2336 138.4 87.6836 137.1 87.4836 137.05H77.2836C77.0336 137.05 76.8336 137.25 76.8336 137.5V150.1C76.8336 150.35 77.0336 150.6 77.2836 150.6H82.2336C82.7836 150.6 86.5836 150.4 88.2836 146.8H89.6336V155.8H88.2836C86.7336 152.55 83.1336 151.95 82.3336 151.95H77.2836C77.0336 151.95 76.8336 152.15 76.8336 152.4V166.2C76.8336 166.45 77.0336 166.65 77.2836 166.65H88.1336C88.1836 166.65 91.8836 165.4 93.5836 161.75ZM124.497 135.7H133.197V137.05C131.247 137.75 129.197 141.3 128.597 142.75L116.497 168H114.647L101.147 139.65C100.697 138.9 99.6969 137.7 97.9469 137.05V135.7H111.247V137.05C111.147 137.05 111.097 137.1 111.047 137.1C108.797 138 107.847 140.65 108.797 142.85L116.447 159.95C116.847 160.8 118.097 160.85 118.497 159.95L126.847 142.7C127.897 140.55 126.847 137.9 124.547 137.1L124.497 137.05V135.7ZM161.816 161.75H163.166V168.05H135.916V166.65H135.966C138.116 165.85 139.466 163.65 139.466 161.3V142.4C139.466 140.1 138.116 137.9 135.966 137.1C135.966 137.05 135.916 137.05 135.916 137.05V135.7H162.516V137.05V141.95H161.166C159.466 138.4 155.916 137.1 155.716 137.05H145.516C145.266 137.05 145.066 137.25 145.066 137.5V150.1C145.066 150.35 145.266 150.6 145.516 150.6H150.466C151.016 150.6 154.816 150.4 156.516 146.8H157.866V155.8H156.516C154.966 152.55 151.366 151.95 150.566 151.95H145.516C145.266 151.95 145.066 152.15 145.066 152.4V166.2C145.066 166.45 145.266 166.65 145.516 166.65H156.366C156.416 166.65 160.116 165.4 161.816 161.75ZM189.079 155.4L198.929 168H185.729V166.65C186.279 166.45 186.779 166.2 187.179 165.9C188.629 164.9 188.829 162.9 187.779 161.55L184.179 157.05C183.629 156.3 182.729 155.9 181.779 155.9H177.429C176.729 155.9 176.129 156.45 176.129 157.15V161.55C176.129 163.85 177.579 165.9 179.729 166.65V168H167.029V166.65C169.129 165.9 170.579 163.85 170.579 161.55V142.05C170.579 139.85 169.179 137.85 167.079 137.1L167.029 137.05V135.7H183.529C190.979 135.7 195.979 139.75 195.979 145.75C195.979 150.05 193.379 153.35 189.179 154.9C189.029 155 188.929 155.2 189.079 155.4ZM181.029 154.6C185.029 154.6 190.229 151.5 190.229 145.75C190.229 139 185.029 137.05 181.029 137.05H177.429C176.729 137.05 176.129 137.6 176.129 138.3V153.3C176.129 154 176.729 154.6 177.429 154.6H181.029ZM214.651 137.05C214.651 137.05 214.601 137.05 214.551 137.1C212.401 137.9 211.101 140.1 211.101 142.4V161.3C211.101 163.65 212.401 165.85 214.551 166.65C214.601 166.65 214.651 166.65 214.651 166.65V168.05H201.951V166.65H202.001C204.151 165.85 205.501 163.65 205.501 161.3V142.4C205.501 140.1 204.151 137.9 202.001 137.1C202.001 137.05 201.951 137.05 201.951 137.05V135.7H214.651V137.05ZM255.021 137.05C255.021 137.1 254.971 137.1 254.921 137.1C252.771 137.9 251.471 140.1 251.471 142.4V161.85C251.471 163.25 252.021 164.6 253.071 165.5C253.571 165.95 254.221 166.35 255.021 166.65V168H249.421C248.321 168 247.321 167.6 246.621 166.8L223.921 142.35C223.721 142.15 223.321 142.3 223.321 142.6L223.271 161.65C223.271 163.85 224.671 165.85 226.771 166.65H226.871V168H218.221V166.65C220.321 165.9 221.771 163.85 221.771 161.55V140.25C221.571 139.85 220.621 137.9 218.221 137.05V135.7H223.771C224.821 135.7 225.821 136.1 226.521 136.9L249.421 160.8C249.621 161 249.971 160.85 249.971 160.55L250.021 142.4C250.021 140.1 248.671 137.9 246.521 137.1C246.521 137.1 246.471 137.1 246.471 137.05V135.7H250.021H251.471H255.021V137.05Z" fill="#0C2717"/>
<path d="M77.5 288.4C77.5 290.45 78.55 292.4 80.35 293.35C80.55 293.45 80.8 293.55 81.1 293.65V295H68.35V293.65C68.4 293.65 68.45 293.65 68.45 293.6C70.6 292.8 71.95 290.65 71.95 288.35V270.8C71.95 270.55 71.6 270.45 71.45 270.65L61.05 287.5H59.5L45 270.65C44.85 270.45 44.55 270.6 44.55 270.8L44.5 288.35C44.5 290.65 45.85 292.85 48 293.65H48.05V295H39.5V293.65C39.75 293.55 40 293.45 40.25 293.3C42.05 292.4 43.1 290.4 43.1 288.4V267.3C43 267.15 42.1 264.95 39.5 264.05V262.7H45.5H45.95L61.6 281.1C62 281.6 62.75 281.55 63.1 281L74.6 262.7H81.05V264.05C78.7 264.9 77.7 266.8 77.5 267.2V288.4ZM115.377 290.9C115.777 291.6 116.777 293 118.677 293.65V295H106.227V293.65C107.077 293.35 107.677 292.9 108.127 292.45C108.927 291.6 109.127 290.3 108.577 289.2L108.277 288.5C108.177 288.3 107.977 288.15 107.727 288.15H89.727C89.527 288.15 89.327 288.3 89.227 288.5L89.027 289C88.527 290.1 88.727 291.45 89.627 292.3C90.127 292.8 90.827 293.3 91.777 293.65V295H83.827V293.65C85.127 293.2 85.927 292.05 86.377 291.25L86.727 290.45V290.4L97.677 265.95C97.977 265.25 97.977 264.5 97.727 263.8L97.277 262.7H100.877C101.977 262.7 102.927 263.3 103.377 264.3L115.377 290.9ZM107.227 286.8C107.327 286.8 107.377 286.7 107.327 286.6L98.977 266.65C98.977 266.55 98.827 266.55 98.777 266.65L89.977 286.6C89.927 286.7 89.977 286.8 90.077 286.8H107.227ZM152.129 288.2C152.329 288.3 152.379 288.6 152.229 288.75C148.979 293.1 143.579 295.65 137.429 295.65C126.879 295.65 118.629 288.25 118.629 278.85C118.629 269.45 126.879 262.05 137.479 262.05C143.629 262.05 148.929 264.55 152.229 268.95C152.379 269.15 152.329 269.4 152.129 269.5L148.829 271.65C148.629 271.8 148.329 271.7 148.279 271.45C147.229 267.65 142.929 263.35 137.479 263.35C129.179 263.35 124.429 271.75 124.429 278.9C124.429 286 128.679 294.35 137.479 294.35C143.479 294.35 147.829 289.35 148.329 286.35C148.379 286.1 148.679 285.95 148.929 286.1L152.129 288.2ZM192.003 264.05L191.953 264.1C189.853 264.85 188.453 266.85 188.453 269.05V288.65C188.453 290.85 189.853 292.85 191.953 293.65H192.003V295H179.303V293.65C181.453 292.9 182.853 290.85 182.853 288.55V279.55C182.853 279.2 182.603 278.95 182.253 278.95H164.953C164.603 278.95 164.353 279.2 164.353 279.55V288.65C164.353 290.85 165.703 292.85 167.803 293.65H167.903V295H155.203V293.65C157.303 292.9 158.753 290.85 158.753 288.55V269.05C158.753 266.85 157.353 264.85 155.253 264.1L155.203 264.05V262.7H167.903V264.05L167.803 264.1C165.703 264.85 164.353 266.85 164.353 269.05V276.95C164.353 277.3 164.603 277.6 164.953 277.6H182.253C182.603 277.6 182.853 277.3 182.853 276.95V269.15C182.853 266.85 181.453 264.85 179.303 264.05V262.7H192.003V264.05ZM226.295 290.9C226.695 291.6 227.695 293 229.595 293.65V295H217.145V293.65C217.995 293.35 218.595 292.9 219.045 292.45C219.845 291.6 220.045 290.3 219.495 289.2L219.195 288.5C219.095 288.3 218.895 288.15 218.645 288.15H200.645C200.445 288.15 200.245 288.3 200.145 288.5L199.945 289C199.445 290.1 199.645 291.45 200.545 292.3C201.045 292.8 201.745 293.3 202.695 293.65V295H194.745V293.65C196.045 293.2 196.845 292.05 197.295 291.25L197.645 290.45V290.4L208.595 265.95C208.895 265.25 208.895 264.5 208.645 263.8L208.195 262.7H211.795C212.895 262.7 213.845 263.3 214.295 264.3L226.295 290.9ZM218.145 286.8C218.245 286.8 218.295 286.7 218.245 286.6L209.895 266.65C209.895 266.55 209.745 266.55 209.695 266.65L200.895 286.6C200.845 286.7 200.895 286.8 200.995 286.8H218.145ZM257.768 288.75H259.118V295H232.418V292.45L252.618 265.15C252.968 264.7 252.618 264.05 252.068 264.05H240.318C238.318 264.25 236.768 265.65 235.218 268.9H233.868V262.65L258.318 262.7V265.15L238.918 292.55C238.618 293.05 238.918 293.65 239.518 293.65H252.218C254.468 293.65 256.118 292.3 257.768 288.75Z" fill="#0C2717"/>
<path d="M221.5 226.6C221.5 224.55 220.45 222.6 218.65 221.65C218.45 221.55 218.2 221.45 217.9 221.35V220H230.65V221.35C230.6 221.35 230.55 221.35 230.55 221.4C228.4 222.2 227.05 224.35 227.05 226.65V244.2C227.05 244.45 227.4 244.55 227.55 244.35L237.95 227.5H239.5L254 244.35C254.15 244.55 254.45 244.4 254.45 244.2L254.5 226.65C254.5 224.35 253.15 222.15 251 221.35H250.95V220H259.5V221.35C259.25 221.45 259 221.55 258.75 221.7C256.95 222.6 255.9 224.6 255.9 226.6V247.7C256 247.85 256.9 250.05 259.5 250.95V252.3H253.5H253.05L237.4 233.9C237 233.4 236.25 233.45 235.9 234L224.4 252.3H217.95V250.95C220.3 250.1 221.3 248.2 221.5 247.8V226.6ZM183.623 224.1C183.223 223.4 182.223 222 180.323 221.35V220H192.773V221.35C191.923 221.65 191.323 222.1 190.873 222.55C190.073 223.4 189.873 224.7 190.423 225.8L190.723 226.5C190.823 226.7 191.023 226.85 191.273 226.85H209.273C209.473 226.85 209.673 226.7 209.773 226.5L209.973 226C210.473 224.9 210.273 223.55 209.373 222.7C208.873 222.2 208.173 221.7 207.223 221.35V220H215.173V221.35C213.873 221.8 213.073 222.95 212.623 223.75L212.273 224.55V224.6L201.323 249.05C201.023 249.75 201.023 250.5 201.273 251.2L201.723 252.3H198.123C197.023 252.3 196.073 251.7 195.623 250.7L183.623 224.1ZM191.773 228.2C191.673 228.2 191.623 228.3 191.673 228.4L200.023 248.35C200.023 248.45 200.173 248.45 200.223 248.35L209.023 228.4C209.073 228.3 209.023 228.2 208.923 228.2H191.773ZM146.871 226.8C146.671 226.7 146.621 226.4 146.771 226.25C150.021 221.9 155.421 219.35 161.571 219.35C172.121 219.35 180.371 226.75 180.371 236.15C180.371 245.55 172.121 252.95 161.521 252.95C155.371 252.95 150.071 250.45 146.771 246.05C146.621 245.85 146.671 245.6 146.871 245.5L150.171 243.35C150.371 243.2 150.671 243.3 150.721 243.55C151.771 247.35 156.071 251.65 161.521 251.65C169.821 251.65 174.571 243.25 174.571 236.1C174.571 229 170.321 220.65 161.521 220.65C155.521 220.65 151.171 225.65 150.671 228.65C150.621 228.9 150.321 229.05 150.071 228.9L146.871 226.8ZM106.997 250.95L107.047 250.9C109.147 250.15 110.547 248.15 110.547 245.95V226.35C110.547 224.15 109.147 222.15 107.047 221.35H106.997V220H119.697V221.35C117.547 222.1 116.147 224.15 116.147 226.45V235.45C116.147 235.8 116.397 236.05 116.747 236.05H134.047C134.397 236.05 134.647 235.8 134.647 235.45V226.35C134.647 224.15 133.297 222.15 131.197 221.35H131.097V220H143.797V221.35C141.697 222.1 140.247 224.15 140.247 226.45V245.95C140.247 248.15 141.647 250.15 143.747 250.9L143.797 250.95V252.3H131.097V250.95L131.197 250.9C133.297 250.15 134.647 248.15 134.647 245.95V238.05C134.647 237.7 134.397 237.4 134.047 237.4H116.747C116.397 237.4 116.147 237.7 116.147 238.05V245.85C116.147 248.15 117.547 250.15 119.697 250.95V252.3H106.997V250.95ZM72.7051 224.1C72.3051 223.4 71.3051 222 69.4051 221.35V220H81.8551V221.35C81.0051 221.65 80.4051 222.1 79.9551 222.55C79.1551 223.4 78.9551 224.7 79.5051 225.8L79.8051 226.5C79.9051 226.7 80.1051 226.85 80.3551 226.85H98.3551C98.5551 226.85 98.7551 226.7 98.8551 226.5L99.0551 226C99.5551 224.9 99.3551 223.55 98.4551 222.7C97.9551 222.2 97.2551 221.7 96.3051 221.35V220H104.255V221.35C102.955 221.8 102.155 222.95 101.705 223.75L101.355 224.55V224.6L90.4051 249.05C90.1051 249.75 90.1051 250.5 90.3551 251.2L90.8051 252.3H87.2051C86.1051 252.3 85.1551 251.7 84.7051 250.7L72.7051 224.1ZM80.8551 228.2C80.7551 228.2 80.7051 228.3 80.7551 228.4L89.1051 248.35C89.1051 248.45 89.2551 248.45 89.3051 248.35L98.1051 228.4C98.1551 228.3 98.1051 228.2 98.0051 228.2H80.8551ZM41.2324 226.25H39.8824V220H66.5824V222.55L46.3824 249.85C46.0324 250.3 46.3824 250.95 46.9324 250.95H58.6824C60.6824 250.75 62.2324 249.35 63.7824 246.1H65.1324V252.35L40.6824 252.3V249.85L60.0824 222.45C60.3824 221.95 60.0824 221.35 59.4824 221.35H46.7824C44.5324 221.35 42.8824 222.7 41.2324 226.25Z" fill="#FFB247"/>
<path d="M221.5 314.6C221.5 312.55 220.45 310.6 218.65 309.65C218.45 309.55 218.2 309.45 217.9 309.35V308H230.65V309.35C230.6 309.35 230.55 309.35 230.55 309.4C228.4 310.2 227.05 312.35 227.05 314.65V332.2C227.05 332.45 227.4 332.55 227.55 332.35L237.95 315.5H239.5L254 332.35C254.15 332.55 254.45 332.4 254.45 332.2L254.5 314.65C254.5 312.35 253.15 310.15 251 309.35H250.95V308H259.5V309.35C259.25 309.45 259 309.55 258.75 309.7C256.95 310.6 255.9 312.6 255.9 314.6V335.7C256 335.85 256.9 338.05 259.5 338.95V340.3H253.5H253.05L237.4 321.9C237 321.4 236.25 321.45 235.9 322L224.4 340.3H217.95V338.95C220.3 338.1 221.3 336.2 221.5 335.8V314.6ZM183.623 312.1C183.223 311.4 182.223 310 180.323 309.35V308H192.773V309.35C191.923 309.65 191.323 310.1 190.873 310.55C190.073 311.4 189.873 312.7 190.423 313.8L190.723 314.5C190.823 314.7 191.023 314.85 191.273 314.85H209.273C209.473 314.85 209.673 314.7 209.773 314.5L209.973 314C210.473 312.9 210.273 311.55 209.373 310.7C208.873 310.2 208.173 309.7 207.223 309.35V308H215.173V309.35C213.873 309.8 213.073 310.95 212.623 311.75L212.273 312.55V312.6L201.323 337.05C201.023 337.75 201.023 338.5 201.273 339.2L201.723 340.3H198.123C197.023 340.3 196.073 339.7 195.623 338.7L183.623 312.1ZM191.773 316.2C191.673 316.2 191.623 316.3 191.673 316.4L200.023 336.35C200.023 336.45 200.173 336.45 200.223 336.35L209.023 316.4C209.073 316.3 209.023 316.2 208.923 316.2H191.773ZM146.871 314.8C146.671 314.7 146.621 314.4 146.771 314.25C150.021 309.9 155.421 307.35 161.571 307.35C172.121 307.35 180.371 314.75 180.371 324.15C180.371 333.55 172.121 340.95 161.521 340.95C155.371 340.95 150.071 338.45 146.771 334.05C146.621 333.85 146.671 333.6 146.871 333.5L150.171 331.35C150.371 331.2 150.671 331.3 150.721 331.55C151.771 335.35 156.071 339.65 161.521 339.65C169.821 339.65 174.571 331.25 174.571 324.1C174.571 317 170.321 308.65 161.521 308.65C155.521 308.65 151.171 313.65 150.671 316.65C150.621 316.9 150.321 317.05 150.071 316.9L146.871 314.8ZM106.997 338.95L107.047 338.9C109.147 338.15 110.547 336.15 110.547 333.95V314.35C110.547 312.15 109.147 310.15 107.047 309.35H106.997V308H119.697V309.35C117.547 310.1 116.147 312.15 116.147 314.45V323.45C116.147 323.8 116.397 324.05 116.747 324.05H134.047C134.397 324.05 134.647 323.8 134.647 323.45V314.35C134.647 312.15 133.297 310.15 131.197 309.35H131.097V308H143.797V309.35C141.697 310.1 140.247 312.15 140.247 314.45V333.95C140.247 336.15 141.647 338.15 143.747 338.9L143.797 338.95V340.3H131.097V338.95L131.197 338.9C133.297 338.15 134.647 336.15 134.647 333.95V326.05C134.647 325.7 134.397 325.4 134.047 325.4H116.747C116.397 325.4 116.147 325.7 116.147 326.05V333.85C116.147 336.15 117.547 338.15 119.697 338.95V340.3H106.997V338.95ZM72.7051 312.1C72.3051 311.4 71.3051 310 69.4051 309.35V308H81.8551V309.35C81.0051 309.65 80.4051 310.1 79.9551 310.55C79.1551 311.4 78.9551 312.7 79.5051 313.8L79.8051 314.5C79.9051 314.7 80.1051 314.85 80.3551 314.85H98.3551C98.5551 314.85 98.7551 314.7 98.8551 314.5L99.0551 314C99.5551 312.9 99.3551 311.55 98.4551 310.7C97.9551 310.2 97.2551 309.7 96.3051 309.35V308H104.255V309.35C102.955 309.8 102.155 310.95 101.705 311.75L101.355 312.55V312.6L90.4051 337.05C90.1051 337.75 90.1051 338.5 90.3551 339.2L90.8051 340.3H87.2051C86.1051 340.3 85.1551 339.7 84.7051 338.7L72.7051 312.1ZM80.8551 316.2C80.7551 316.2 80.7051 316.3 80.7551 316.4L89.1051 336.35C89.1051 336.45 89.2551 336.45 89.3051 336.35L98.1051 316.4C98.1551 316.3 98.1051 316.2 98.0051 316.2H80.8551ZM41.2324 314.25H39.8824V308H66.5824V310.55L46.3824 337.85C46.0324 338.3 46.3824 338.95 46.9324 338.95H58.6824C60.6824 338.75 62.2324 337.35 63.7824 334.1H65.1324V340.35L40.6824 340.3V337.85L60.0824 310.45C60.3824 309.95 60.0824 309.35 59.4824 309.35H46.7824C44.5324 309.35 42.8824 310.7 41.2324 314.25Z" fill="#FFB247"/>
<path d="M293.06 384.35C294.905 384.35 296.66 383.405 297.515 381.785C297.605 381.605 297.695 381.38 297.785 381.11H299V392.585H297.785C297.785 392.54 297.785 392.495 297.74 392.495C297.02 390.56 295.085 389.345 293.015 389.345H277.22C276.995 389.345 276.905 389.66 277.085 389.795L292.25 399.155V400.55L277.085 413.6C276.905 413.735 277.04 414.005 277.22 414.005L293.015 414.05C295.085 414.05 297.065 412.835 297.785 410.9V410.855H299V418.55H297.785C297.695 418.325 297.605 418.1 297.47 417.875C296.66 416.255 294.86 415.31 293.06 415.31H274.07C273.935 415.4 271.955 416.21 271.145 418.55H269.93V413.15V412.745L286.49 398.66C286.94 398.3 286.895 397.625 286.4 397.31L269.93 386.96V381.155H271.145C271.91 383.27 273.62 384.17 273.98 384.35H293.06ZM295.31 350.261C295.94 349.901 297.2 349.001 297.785 347.291H299V358.496H297.785C297.515 357.731 297.11 357.191 296.705 356.786C295.94 356.066 294.77 355.886 293.78 356.381L293.15 356.651C292.97 356.741 292.835 356.921 292.835 357.146V373.346C292.835 373.526 292.97 373.706 293.15 373.796L293.6 373.976C294.59 374.426 295.805 374.246 296.57 373.436C297.02 372.986 297.47 372.356 297.785 371.501H299V378.656H297.785C297.38 377.486 296.345 376.766 295.625 376.361L294.905 376.046H294.86L272.855 366.191C272.225 365.921 271.55 365.921 270.92 366.146L269.93 366.551V363.311C269.93 362.321 270.47 361.466 271.37 361.061L295.31 350.261ZM291.62 357.596C291.62 357.506 291.53 357.461 291.44 357.506L273.485 365.021C273.395 365.021 273.395 365.156 273.485 365.201L291.44 373.121C291.53 373.166 291.62 373.121 291.62 373.031V357.596ZM292.88 317.184C292.97 317.004 293.24 316.959 293.375 317.094C297.29 320.019 299.585 324.879 299.585 330.414C299.585 339.909 292.925 347.334 284.465 347.334C276.005 347.334 269.345 339.909 269.345 330.369C269.345 324.834 271.595 320.064 275.555 317.094C275.735 316.959 275.96 317.004 276.05 317.184L277.985 320.154C278.12 320.334 278.03 320.604 277.805 320.649C274.385 321.594 270.515 325.464 270.515 330.369C270.515 337.839 278.075 342.114 284.51 342.114C290.9 342.114 298.415 338.289 298.415 330.369C298.415 324.969 293.915 321.054 291.215 320.604C290.99 320.559 290.855 320.289 290.99 320.064L292.88 317.184ZM271.145 281.297L271.19 281.342C271.865 283.232 273.665 284.492 275.645 284.492H293.285C295.265 284.492 297.065 283.232 297.785 281.342V281.297H299V292.727H297.785C297.11 290.792 295.265 289.532 293.195 289.532H285.095C284.78 289.532 284.555 289.757 284.555 290.072V305.642C284.555 305.957 284.78 306.182 285.095 306.182H293.285C295.265 306.182 297.065 304.967 297.785 303.077V302.987H299V314.417H297.785C297.11 312.527 295.265 311.222 293.195 311.222H275.645C273.665 311.222 271.865 312.482 271.19 314.372L271.145 314.417H269.93V302.987H271.145L271.19 303.077C271.865 304.967 273.665 306.182 275.645 306.182H282.755C283.07 306.182 283.34 305.957 283.34 305.642V290.072C283.34 289.757 283.07 289.532 282.755 289.532H275.735C273.665 289.532 271.865 290.792 271.145 292.727H269.93V281.297H271.145ZM295.31 250.435C295.94 250.075 297.2 249.175 297.785 247.465H299V258.67H297.785C297.515 257.905 297.11 257.365 296.705 256.96C295.94 256.24 294.77 256.06 293.78 256.555L293.15 256.825C292.97 256.915 292.835 257.095 292.835 257.32V273.52C292.835 273.7 292.97 273.88 293.15 273.97L293.6 274.15C294.59 274.6 295.805 274.42 296.57 273.61C297.02 273.16 297.47 272.53 297.785 271.675H299V278.83H297.785C297.38 277.66 296.345 276.94 295.625 276.535L294.905 276.22H294.86L272.855 266.365C272.225 266.095 271.55 266.095 270.92 266.32L269.93 266.725V263.485C269.93 262.495 270.47 261.64 271.37 261.235L295.31 250.435ZM291.62 257.77C291.62 257.68 291.53 257.635 291.44 257.68L273.485 265.195C273.395 265.195 273.395 265.33 273.485 265.375L291.44 273.295C291.53 273.34 291.62 273.295 291.62 273.205V257.77ZM293.375 222.109V220.894H299V244.924H296.705L272.135 226.744C271.73 226.429 271.145 226.744 271.145 227.239V237.814C271.325 239.614 272.585 241.009 275.51 242.404V243.619H269.885L269.93 221.614H272.135L296.795 239.074C297.245 239.344 297.785 239.074 297.785 238.534V227.104C297.785 225.079 296.57 223.594 293.375 222.109Z" fill="#FFB247"/>
<path d="M221.5 353.599C221.5 351.549 220.45 349.599 218.65 348.649C218.45 348.549 218.2 348.449 217.9 348.349V346.999H230.65V348.349C230.6 348.349 230.55 348.349 230.55 348.399C228.4 349.199 227.05 351.349 227.05 353.649V371.199C227.05 371.449 227.4 371.549 227.55 371.349L237.95 354.499H239.5L254 371.349C254.15 371.549 254.45 371.399 254.45 371.199L254.5 353.649C254.5 351.349 253.15 349.149 251 348.349H250.95V346.999H259.5V348.349C259.25 348.449 259 348.549 258.75 348.699C256.95 349.599 255.9 351.599 255.9 353.599V374.699C256 374.849 256.9 377.049 259.5 377.949V379.299H253.5H253.05L237.4 360.899C237 360.399 236.25 360.449 235.9 360.999L224.4 379.299H217.95V377.949C220.3 377.099 221.3 375.199 221.5 374.799V353.599ZM183.623 351.099C183.223 350.399 182.223 348.999 180.323 348.349V346.999H192.773V348.349C191.923 348.649 191.323 349.099 190.873 349.549C190.073 350.399 189.873 351.699 190.423 352.799L190.723 353.499C190.823 353.699 191.023 353.849 191.273 353.849H209.273C209.473 353.849 209.673 353.699 209.773 353.499L209.973 352.999C210.473 351.899 210.273 350.549 209.373 349.699C208.873 349.199 208.173 348.699 207.223 348.349V346.999H215.173V348.349C213.873 348.799 213.073 349.949 212.623 350.749L212.273 351.549V351.599L201.323 376.049C201.023 376.749 201.023 377.499 201.273 378.199L201.723 379.299H198.123C197.023 379.299 196.073 378.699 195.623 377.699L183.623 351.099ZM191.773 355.199C191.673 355.199 191.623 355.299 191.673 355.399L200.023 375.349C200.023 375.449 200.173 375.449 200.223 375.349L209.023 355.399C209.073 355.299 209.023 355.199 208.923 355.199H191.773ZM146.871 353.799C146.671 353.699 146.621 353.399 146.771 353.249C150.021 348.899 155.421 346.349 161.571 346.349C172.121 346.349 180.371 353.749 180.371 363.149C180.371 372.549 172.121 379.949 161.521 379.949C155.371 379.949 150.071 377.449 146.771 373.049C146.621 372.849 146.671 372.599 146.871 372.499L150.171 370.349C150.371 370.199 150.671 370.299 150.721 370.549C151.771 374.349 156.071 378.649 161.521 378.649C169.821 378.649 174.571 370.249 174.571 363.099C174.571 355.999 170.321 347.649 161.521 347.649C155.521 347.649 151.171 352.649 150.671 355.649C150.621 355.899 150.321 356.049 150.071 355.899L146.871 353.799ZM106.997 377.949L107.047 377.899C109.147 377.149 110.547 375.149 110.547 372.949V353.349C110.547 351.149 109.147 349.149 107.047 348.349H106.997V346.999H119.697V348.349C117.547 349.099 116.147 351.149 116.147 353.449V362.449C116.147 362.799 116.397 363.049 116.747 363.049H134.047C134.397 363.049 134.647 362.799 134.647 362.449V353.349C134.647 351.149 133.297 349.149 131.197 348.349H131.097V346.999H143.797V348.349C141.697 349.099 140.247 351.149 140.247 353.449V372.949C140.247 375.149 141.647 377.149 143.747 377.899L143.797 377.949V379.299H131.097V377.949L131.197 377.899C133.297 377.149 134.647 375.149 134.647 372.949V365.049C134.647 364.699 134.397 364.399 134.047 364.399H116.747C116.397 364.399 116.147 364.699 116.147 365.049V372.849C116.147 375.149 117.547 377.149 119.697 377.949V379.299H106.997V377.949ZM72.7051 351.099C72.3051 350.399 71.3051 348.999 69.4051 348.349V346.999H81.8551V348.349C81.0051 348.649 80.4051 349.099 79.9551 349.549C79.1551 350.399 78.9551 351.699 79.5051 352.799L79.8051 353.499C79.9051 353.699 80.1051 353.849 80.3551 353.849H98.3551C98.5551 353.849 98.7551 353.699 98.8551 353.499L99.0551 352.999C99.5551 351.899 99.3551 350.549 98.4551 349.699C97.9551 349.199 97.2551 348.699 96.3051 348.349V346.999H104.255V348.349C102.955 348.799 102.155 349.949 101.705 350.749L101.355 351.549V351.599L90.4051 376.049C90.1051 376.749 90.1051 377.499 90.3551 378.199L90.8051 379.299H87.2051C86.1051 379.299 85.1551 378.699 84.7051 377.699L72.7051 351.099ZM80.8551 355.199C80.7551 355.199 80.7051 355.299 80.7551 355.399L89.1051 375.349C89.1051 375.449 89.2551 375.449 89.3051 375.349L98.1051 355.399C98.1551 355.299 98.1051 355.199 98.0051 355.199H80.8551ZM41.2324 353.249H39.8824V346.999H66.5824V349.549L46.3824 376.849C46.0324 377.299 46.3824 377.949 46.9324 377.949H58.6824C60.6824 377.749 62.2324 376.349 63.7824 373.099H65.1324V379.349L40.6824 379.299V376.849L60.0824 349.449C60.3824 348.949 60.0824 348.349 59.4824 348.349H46.7824C44.5324 348.349 42.8824 349.699 41.2324 353.249Z" fill="#FFB247"/>
<path d="M221.5 392.6C221.5 390.55 220.45 388.6 218.65 387.65C218.45 387.55 218.2 387.45 217.9 387.35V386H230.65V387.35C230.6 387.35 230.55 387.35 230.55 387.4C228.4 388.2 227.05 390.35 227.05 392.65V410.2C227.05 410.45 227.4 410.55 227.55 410.35L237.95 393.5H239.5L254 410.35C254.15 410.55 254.45 410.4 254.45 410.2L254.5 392.65C254.5 390.35 253.15 388.15 251 387.35H250.95V386H259.5V387.35C259.25 387.45 259 387.55 258.75 387.7C256.95 388.6 255.9 390.6 255.9 392.6V413.7C256 413.85 256.9 416.05 259.5 416.95V418.3H253.5H253.05L237.4 399.9C237 399.4 236.25 399.45 235.9 400L224.4 418.3H217.95V416.95C220.3 416.1 221.3 414.2 221.5 413.8V392.6ZM183.623 390.1C183.223 389.4 182.223 388 180.323 387.35V386H192.773V387.35C191.923 387.65 191.323 388.1 190.873 388.55C190.073 389.4 189.873 390.7 190.423 391.8L190.723 392.5C190.823 392.7 191.023 392.85 191.273 392.85H209.273C209.473 392.85 209.673 392.7 209.773 392.5L209.973 392C210.473 390.9 210.273 389.55 209.373 388.7C208.873 388.2 208.173 387.7 207.223 387.35V386H215.173V387.35C213.873 387.8 213.073 388.95 212.623 389.75L212.273 390.55V390.6L201.323 415.05C201.023 415.75 201.023 416.5 201.273 417.2L201.723 418.3H198.123C197.023 418.3 196.073 417.7 195.623 416.7L183.623 390.1ZM191.773 394.2C191.673 394.2 191.623 394.3 191.673 394.4L200.023 414.35C200.023 414.45 200.173 414.45 200.223 414.35L209.023 394.4C209.073 394.3 209.023 394.2 208.923 394.2H191.773ZM146.871 392.8C146.671 392.7 146.621 392.4 146.771 392.25C150.021 387.9 155.421 385.35 161.571 385.35C172.121 385.35 180.371 392.75 180.371 402.15C180.371 411.55 172.121 418.95 161.521 418.95C155.371 418.95 150.071 416.45 146.771 412.05C146.621 411.85 146.671 411.6 146.871 411.5L150.171 409.35C150.371 409.2 150.671 409.3 150.721 409.55C151.771 413.35 156.071 417.65 161.521 417.65C169.821 417.65 174.571 409.25 174.571 402.1C174.571 395 170.321 386.65 161.521 386.65C155.521 386.65 151.171 391.65 150.671 394.65C150.621 394.9 150.321 395.05 150.071 394.9L146.871 392.8ZM106.997 416.95L107.047 416.9C109.147 416.15 110.547 414.15 110.547 411.95V392.35C110.547 390.15 109.147 388.15 107.047 387.35H106.997V386H119.697V387.35C117.547 388.1 116.147 390.15 116.147 392.45V401.45C116.147 401.8 116.397 402.05 116.747 402.05H134.047C134.397 402.05 134.647 401.8 134.647 401.45V392.35C134.647 390.15 133.297 388.15 131.197 387.35H131.097V386H143.797V387.35C141.697 388.1 140.247 390.15 140.247 392.45V411.95C140.247 414.15 141.647 416.15 143.747 416.9L143.797 416.95V418.3H131.097V416.95L131.197 416.9C133.297 416.15 134.647 414.15 134.647 411.95V404.05C134.647 403.7 134.397 403.4 134.047 403.4H116.747C116.397 403.4 116.147 403.7 116.147 404.05V411.85C116.147 414.15 117.547 416.15 119.697 416.95V418.3H106.997V416.95ZM72.7051 390.1C72.3051 389.4 71.3051 388 69.4051 387.35V386H81.8551V387.35C81.0051 387.65 80.4051 388.1 79.9551 388.55C79.1551 389.4 78.9551 390.7 79.5051 391.8L79.8051 392.5C79.9051 392.7 80.1051 392.85 80.3551 392.85H98.3551C98.5551 392.85 98.7551 392.7 98.8551 392.5L99.0551 392C99.5551 390.9 99.3551 389.55 98.4551 388.7C97.9551 388.2 97.2551 387.7 96.3051 387.35V386H104.255V387.35C102.955 387.8 102.155 388.95 101.705 389.75L101.355 390.55V390.6L90.4051 415.05C90.1051 415.75 90.1051 416.5 90.3551 417.2L90.8051 418.3H87.2051C86.1051 418.3 85.1551 417.7 84.7051 416.7L72.7051 390.1ZM80.8551 394.2C80.7551 394.2 80.7051 394.3 80.7551 394.4L89.1051 414.35C89.1051 414.45 89.2551 414.45 89.3051 414.35L98.1051 394.4C98.1551 394.3 98.1051 394.2 98.0051 394.2H80.8551ZM41.2324 392.25H39.8824V386H66.5824V388.55L46.3824 415.85C46.0324 416.3 46.3824 416.95 46.9324 416.95H58.6824C60.6824 416.75 62.2324 415.35 63.7824 412.1H65.1324V418.35L40.6824 418.3V415.85L60.0824 388.45C60.3824 387.95 60.0824 387.35 59.4824 387.35H46.7824C44.5324 387.35 42.8824 388.7 41.2324 392.25Z" fill="#FFB247"/>
<path d="M230.65 187.65C230.65 182.1 235.5 178.35 242.7 178.35C247.85 178.35 252.45 180.5 255.3 184.15C255.5 184.4 255.45 184.85 255.15 185.05L252.65 186.75C252.35 186.95 251.9 186.85 251.75 186.5C250.65 183.85 247.6 179.7 242.7 179.7C238.8 179.7 236.35 183.25 236.35 186.2C236.35 189.15 238.7 191.3 241.7 192.6L245.75 194.25C251.65 196.75 254.15 199.45 254.15 203.2C254.15 208.35 249.45 211.95 242.8 211.95C238.35 211.95 234.6 210.25 232.25 207.25C232.05 206.95 232.1 206.55 232.4 206.35L234.9 204.55C235.2 204.35 235.6 204.45 235.8 204.75C237.1 207.25 239.25 210.5 242.8 210.5C246.25 210.5 248.45 207.65 248.45 205C248.45 202.2 245.9 199.5 243.45 198.45L239.2 196.75C233.05 194.25 230.65 191.7 230.65 187.65ZM201.416 185.25H200.066V178.95H227.316V180.35H227.266C225.116 181.15 223.766 183.35 223.766 185.7V204.6C223.766 206.9 225.116 209.1 227.266 209.9C227.266 209.95 227.316 209.95 227.316 209.95V211.3H200.716V209.95V205.05H202.066C203.766 208.6 207.316 209.9 207.516 209.95H217.716C217.966 209.95 218.166 209.75 218.166 209.5V196.9C218.166 196.65 217.966 196.4 217.716 196.4H212.766C212.216 196.4 208.416 196.6 206.716 200.2H205.366V191.2H206.716C208.266 194.45 211.866 195.05 212.666 195.05H217.716C217.966 195.05 218.166 194.85 218.166 194.6V180.8C218.166 180.55 217.966 180.35 217.716 180.35H206.866C206.816 180.35 203.116 181.6 201.416 185.25ZM170.503 211.3H161.803V209.95C163.753 209.25 165.803 205.7 166.403 204.25L178.503 179H180.353L193.853 207.35C194.303 208.1 195.303 209.3 197.053 209.95V211.3L183.753 211.3V209.95C183.853 209.95 183.903 209.9 183.953 209.9C186.203 209 187.153 206.35 186.203 204.15L178.553 187.05C178.153 186.2 176.903 186.15 176.503 187.05L168.153 204.3C167.103 206.45 168.153 209.1 170.453 209.9L170.503 209.95V211.3ZM133.184 185.25H131.834V178.95H159.084V180.35H159.034C156.884 181.15 155.534 183.35 155.534 185.7V204.6C155.534 206.9 156.884 209.1 159.034 209.9C159.034 209.95 159.084 209.95 159.084 209.95V211.3H132.484V209.95V205.05H133.834C135.534 208.6 139.084 209.9 139.284 209.95H149.484C149.734 209.95 149.934 209.75 149.934 209.5V196.9C149.934 196.65 149.734 196.4 149.484 196.4H144.534C143.984 196.4 140.184 196.6 138.484 200.2H137.134V191.2H138.484C140.034 194.45 143.634 195.05 144.434 195.05H149.484C149.734 195.05 149.934 194.85 149.934 194.6V180.8C149.934 180.55 149.734 180.35 149.484 180.35H138.634C138.584 180.35 134.884 181.6 133.184 185.25ZM105.921 191.6L96.0707 179H109.271V180.35C108.721 180.55 108.221 180.8 107.821 181.1C106.371 182.1 106.171 184.1 107.221 185.45L110.821 189.95C111.371 190.7 112.271 191.1 113.221 191.1H117.571C118.271 191.1 118.871 190.55 118.871 189.85V185.45C118.871 183.15 117.421 181.1 115.271 180.35V179H127.971V180.35C125.871 181.1 124.421 183.15 124.421 185.45V204.95C124.421 207.15 125.821 209.15 127.921 209.9L127.971 209.95V211.3H111.471C104.021 211.3 99.0207 207.25 99.0207 201.25C99.0207 196.95 101.621 193.65 105.821 192.1C105.971 192 106.071 191.8 105.921 191.6ZM113.971 192.4C109.971 192.4 104.771 195.5 104.771 201.25C104.771 208 109.971 209.95 113.971 209.95H117.571C118.271 209.95 118.871 209.4 118.871 208.7V193.7C118.871 193 118.271 192.4 117.571 192.4H113.971ZM80.3488 209.95C80.3488 209.95 80.3988 209.95 80.4488 209.9C82.5988 209.1 83.8988 206.9 83.8988 204.6V185.7C83.8988 183.35 82.5988 181.15 80.4488 180.35C80.3988 180.35 80.3488 180.35 80.3488 180.35V178.95H93.0488V180.35H92.9988C90.8488 181.15 89.4988 183.35 89.4988 185.7V204.6C89.4988 206.9 90.8488 209.1 92.9988 209.9C92.9988 209.95 93.0488 209.95 93.0488 209.95V211.3H80.3488V209.95ZM39.9793 209.95C39.9793 209.9 40.0293 209.9 40.0793 209.9C42.2293 209.1 43.5293 206.9 43.5293 204.6V185.15C43.5293 183.75 42.9793 182.4 41.9293 181.5C41.4293 181.05 40.7793 180.65 39.9793 180.35V179H45.5793C46.6793 179 47.6793 179.4 48.3793 180.2L71.0793 204.65C71.2793 204.85 71.6793 204.7 71.6793 204.4L71.7293 185.35C71.7293 183.15 70.3293 181.15 68.2293 180.35H68.1293V179L76.7793 179V180.35C74.6793 181.1 73.2293 183.15 73.2293 185.45V206.75C73.4293 207.15 74.3793 209.1 76.7793 209.95V211.3H71.2293C70.1793 211.3 69.1793 210.9 68.4793 210.1L45.5793 186.2C45.3793 186 45.0293 186.15 45.0293 186.45L44.9793 204.6C44.9793 206.9 46.3293 209.1 48.4793 209.9C48.4793 209.9 48.5293 209.9 48.5293 209.95V211.3H44.9793H43.5293H39.9793V209.95Z" fill="#FFB247"/>
<path d="M230.65 105.65C230.65 100.1 235.5 96.3496 242.7 96.3496C247.85 96.3496 252.45 98.4996 255.3 102.15C255.5 102.4 255.45 102.85 255.15 103.05L252.65 104.75C252.35 104.95 251.9 104.85 251.75 104.5C250.65 101.85 247.6 97.6996 242.7 97.6996C238.8 97.6996 236.35 101.25 236.35 104.2C236.35 107.15 238.7 109.3 241.7 110.6L245.75 112.25C251.65 114.75 254.15 117.45 254.15 121.2C254.15 126.35 249.45 129.95 242.8 129.95C238.35 129.95 234.6 128.25 232.25 125.25C232.05 124.95 232.1 124.55 232.4 124.35L234.9 122.55C235.2 122.35 235.6 122.45 235.8 122.75C237.1 125.25 239.25 128.5 242.8 128.5C246.25 128.5 248.45 125.65 248.45 123C248.45 120.2 245.9 117.5 243.45 116.45L239.2 114.75C233.05 112.25 230.65 109.7 230.65 105.65ZM201.416 103.25H200.066V96.9496L227.316 96.9496V98.3496H227.266C225.116 99.1496 223.766 101.35 223.766 103.7V122.6C223.766 124.9 225.116 127.1 227.266 127.9C227.266 127.95 227.316 127.95 227.316 127.95V129.3H200.716V127.95V123.05H202.066C203.766 126.6 207.316 127.9 207.516 127.95L217.716 127.95C217.966 127.95 218.166 127.75 218.166 127.5V114.9C218.166 114.65 217.966 114.4 217.716 114.4L212.766 114.4C212.216 114.4 208.416 114.6 206.716 118.2H205.366V109.2H206.716C208.266 112.45 211.866 113.05 212.666 113.05L217.716 113.05C217.966 113.05 218.166 112.85 218.166 112.6V98.7996C218.166 98.5496 217.966 98.3496 217.716 98.3496H206.866C206.816 98.3496 203.116 99.5996 201.416 103.25ZM170.503 129.3H161.803V127.95C163.753 127.25 165.803 123.7 166.403 122.25L178.503 96.9996H180.353L193.853 125.35C194.303 126.1 195.303 127.3 197.053 127.95V129.3L183.753 129.3V127.95C183.853 127.95 183.903 127.9 183.953 127.9C186.203 127 187.153 124.35 186.203 122.15L178.553 105.05C178.153 104.2 176.903 104.15 176.503 105.05L168.153 122.3C167.103 124.45 168.153 127.1 170.453 127.9L170.503 127.95V129.3ZM133.184 103.25H131.834V96.9496H159.084V98.3496H159.034C156.884 99.1496 155.534 101.35 155.534 103.7V122.6C155.534 124.9 156.884 127.1 159.034 127.9C159.034 127.95 159.084 127.95 159.084 127.95V129.3H132.484V127.95V123.05H133.834C135.534 126.6 139.084 127.9 139.284 127.95H149.484C149.734 127.95 149.934 127.75 149.934 127.5V114.9C149.934 114.65 149.734 114.4 149.484 114.4H144.534C143.984 114.4 140.184 114.6 138.484 118.2H137.134V109.2H138.484C140.034 112.45 143.634 113.05 144.434 113.05H149.484C149.734 113.05 149.934 112.85 149.934 112.6V98.7996C149.934 98.5496 149.734 98.3496 149.484 98.3496H138.634C138.584 98.3496 134.884 99.5996 133.184 103.25ZM105.921 109.6L96.0707 96.9996H109.271V98.3496C108.721 98.5496 108.221 98.7996 107.821 99.0996C106.371 100.1 106.171 102.1 107.221 103.45L110.821 107.95C111.371 108.7 112.271 109.1 113.221 109.1H117.571C118.271 109.1 118.871 108.55 118.871 107.85V103.45C118.871 101.15 117.421 99.0996 115.271 98.3496V96.9996H127.971V98.3496C125.871 99.0996 124.421 101.15 124.421 103.45V122.95C124.421 125.15 125.821 127.15 127.921 127.9L127.971 127.95V129.3H111.471C104.021 129.3 99.0207 125.25 99.0207 119.25C99.0207 114.95 101.621 111.65 105.821 110.1C105.971 110 106.071 109.8 105.921 109.6ZM113.971 110.4C109.971 110.4 104.771 113.5 104.771 119.25C104.771 126 109.971 127.95 113.971 127.95H117.571C118.271 127.95 118.871 127.4 118.871 126.7V111.7C118.871 111 118.271 110.4 117.571 110.4H113.971ZM80.3488 127.95C80.3488 127.95 80.3988 127.95 80.4488 127.9C82.5988 127.1 83.8988 124.9 83.8988 122.6V103.7C83.8988 101.35 82.5988 99.1496 80.4488 98.3496C80.3988 98.3496 80.3488 98.3496 80.3488 98.3496V96.9496H93.0488V98.3496H92.9988C90.8488 99.1496 89.4988 101.35 89.4988 103.7V122.6C89.4988 124.9 90.8488 127.1 92.9988 127.9C92.9988 127.95 93.0488 127.95 93.0488 127.95V129.3H80.3488V127.95ZM39.9793 127.95C39.9793 127.9 40.0293 127.9 40.0793 127.9C42.2293 127.1 43.5293 124.9 43.5293 122.6V103.15C43.5293 101.75 42.9793 100.4 41.9293 99.4996C41.4293 99.0496 40.7793 98.6496 39.9793 98.3496V96.9996H45.5793C46.6793 96.9996 47.6793 97.3996 48.3793 98.1996L71.0793 122.65C71.2793 122.85 71.6793 122.7 71.6793 122.4L71.7293 103.35C71.7293 101.15 70.3293 99.1496 68.2293 98.3496H68.1293V96.9996L76.7793 96.9996V98.3496C74.6793 99.0996 73.2293 101.15 73.2293 103.45V124.75C73.4293 125.15 74.3793 127.1 76.7793 127.95V129.3H71.2293C70.1793 129.3 69.1793 128.9 68.4793 128.1L45.5793 104.2C45.3793 104 45.0293 104.15 45.0293 104.45L44.9793 122.6C44.9793 124.9 46.3293 127.1 48.4793 127.9C48.4793 127.9 48.5293 127.9 48.5293 127.95V129.3H44.9793H43.5293H39.9793V127.95Z" fill="#FFB247"/>
<path d="M230.65 70.6496C230.65 65.0996 235.5 61.3496 242.7 61.3496C247.85 61.3496 252.45 63.4996 255.3 67.1496C255.5 67.3996 255.45 67.8496 255.15 68.0496L252.65 69.7496C252.35 69.9496 251.9 69.8496 251.75 69.4996C250.65 66.8496 247.6 62.6996 242.7 62.6996C238.8 62.6996 236.35 66.2496 236.35 69.1996C236.35 72.1496 238.7 74.2996 241.7 75.5996L245.75 77.2496C251.65 79.7496 254.15 82.4496 254.15 86.1996C254.15 91.3496 249.45 94.9496 242.8 94.9496C238.35 94.9496 234.6 93.2496 232.25 90.2496C232.05 89.9496 232.1 89.5496 232.4 89.3496L234.9 87.5496C235.2 87.3496 235.6 87.4496 235.8 87.7496C237.1 90.2496 239.25 93.4996 242.8 93.4996C246.25 93.4996 248.45 90.6496 248.45 87.9996C248.45 85.1996 245.9 82.4996 243.45 81.4496L239.2 79.7496C233.05 77.2496 230.65 74.6996 230.65 70.6496ZM201.416 68.2496H200.066V61.9496L227.316 61.9496V63.3496H227.266C225.116 64.1496 223.766 66.3496 223.766 68.6996V87.5996C223.766 89.8996 225.116 92.0996 227.266 92.8996C227.266 92.9496 227.316 92.9496 227.316 92.9496V94.2996L200.716 94.2996V92.9496V88.0496H202.066C203.766 91.5996 207.316 92.8996 207.516 92.9496L217.716 92.9496C217.966 92.9496 218.166 92.7496 218.166 92.4996V79.8996C218.166 79.6496 217.966 79.3996 217.716 79.3996L212.766 79.3996C212.216 79.3996 208.416 79.5996 206.716 83.1996H205.366V74.1996H206.716C208.266 77.4496 211.866 78.0496 212.666 78.0496L217.716 78.0496C217.966 78.0496 218.166 77.8496 218.166 77.5996V63.7996C218.166 63.5496 217.966 63.3496 217.716 63.3496H206.866C206.816 63.3496 203.116 64.5996 201.416 68.2496ZM170.503 94.2996H161.803V92.9496C163.753 92.2496 165.803 88.6996 166.403 87.2496L178.503 61.9996H180.353L193.853 90.3496C194.303 91.0996 195.303 92.2996 197.053 92.9496V94.2996H183.753V92.9496C183.853 92.9496 183.903 92.8996 183.953 92.8996C186.203 91.9996 187.153 89.3496 186.203 87.1496L178.553 70.0496C178.153 69.1996 176.903 69.1496 176.503 70.0496L168.153 87.2996C167.103 89.4496 168.153 92.0996 170.453 92.8996L170.503 92.9496V94.2996ZM133.184 68.2496H131.834V61.9496L159.084 61.9496V63.3496H159.034C156.884 64.1496 155.534 66.3496 155.534 68.6996V87.5996C155.534 89.8996 156.884 92.0996 159.034 92.8996C159.034 92.9496 159.084 92.9496 159.084 92.9496V94.2996L132.484 94.2996V92.9496V88.0496H133.834C135.534 91.5996 139.084 92.8996 139.284 92.9496H149.484C149.734 92.9496 149.934 92.7496 149.934 92.4996V79.8996C149.934 79.6496 149.734 79.3996 149.484 79.3996H144.534C143.984 79.3996 140.184 79.5996 138.484 83.1996H137.134V74.1996H138.484C140.034 77.4496 143.634 78.0496 144.434 78.0496H149.484C149.734 78.0496 149.934 77.8496 149.934 77.5996V63.7996C149.934 63.5496 149.734 63.3496 149.484 63.3496H138.634C138.584 63.3496 134.884 64.5996 133.184 68.2496ZM105.921 74.5996L96.0707 61.9996L109.271 61.9996V63.3496C108.721 63.5496 108.221 63.7996 107.821 64.0996C106.371 65.0996 106.171 67.0996 107.221 68.4496L110.821 72.9496C111.371 73.6996 112.271 74.0996 113.221 74.0996H117.571C118.271 74.0996 118.871 73.5496 118.871 72.8496V68.4496C118.871 66.1496 117.421 64.0996 115.271 63.3496V61.9996H127.971V63.3496C125.871 64.0996 124.421 66.1496 124.421 68.4496V87.9496C124.421 90.1496 125.821 92.1496 127.921 92.8996L127.971 92.9496V94.2996H111.471C104.021 94.2996 99.0207 90.2496 99.0207 84.2496C99.0207 79.9496 101.621 76.6496 105.821 75.0996C105.971 74.9996 106.071 74.7996 105.921 74.5996ZM113.971 75.3996C109.971 75.3996 104.771 78.4996 104.771 84.2496C104.771 90.9996 109.971 92.9496 113.971 92.9496H117.571C118.271 92.9496 118.871 92.3996 118.871 91.6996V76.6996C118.871 75.9996 118.271 75.3996 117.571 75.3996H113.971ZM80.3488 92.9496C80.3488 92.9496 80.3988 92.9496 80.4488 92.8996C82.5988 92.0996 83.8988 89.8996 83.8988 87.5996V68.6996C83.8988 66.3496 82.5988 64.1496 80.4488 63.3496C80.3988 63.3496 80.3488 63.3496 80.3488 63.3496V61.9496H93.0488V63.3496H92.9988C90.8488 64.1496 89.4988 66.3496 89.4988 68.6996V87.5996C89.4988 89.8996 90.8488 92.0996 92.9988 92.8996C92.9988 92.9496 93.0488 92.9496 93.0488 92.9496V94.2996L80.3488 94.2996V92.9496ZM39.9793 92.9496C39.9793 92.8996 40.0293 92.8996 40.0793 92.8996C42.2293 92.0996 43.5293 89.8996 43.5293 87.5996V68.1496C43.5293 66.7496 42.9793 65.3996 41.9293 64.4996C41.4293 64.0496 40.7793 63.6496 39.9793 63.3496V61.9996H45.5793C46.6793 61.9996 47.6793 62.3996 48.3793 63.1996L71.0793 87.6496C71.2793 87.8496 71.6793 87.6996 71.6793 87.3996L71.7293 68.3496C71.7293 66.1496 70.3293 64.1496 68.2293 63.3496H68.1293V61.9996L76.7793 61.9996V63.3496C74.6793 64.0996 73.2293 66.1496 73.2293 68.4496V89.7496C73.4293 90.1496 74.3793 92.0996 76.7793 92.9496V94.2996H71.2293C70.1793 94.2996 69.1793 93.8996 68.4793 93.0996L45.5793 69.1996C45.3793 68.9996 45.0293 69.1496 45.0293 69.4496L44.9793 87.5996C44.9793 89.8996 46.3293 92.0996 48.4793 92.8996C48.4793 92.8996 48.5293 92.8996 48.5293 92.9496V94.2996H44.9793H43.5293H39.9793V92.9496Z" fill="#FFB247"/>
<path d="M230.65 31.6497C230.65 26.0997 235.5 22.3497 242.7 22.3497C247.85 22.3497 252.45 24.4997 255.3 28.1497C255.5 28.3997 255.45 28.8497 255.15 29.0497L252.65 30.7497C252.35 30.9497 251.9 30.8497 251.75 30.4997C250.65 27.8497 247.6 23.6997 242.7 23.6997C238.8 23.6997 236.35 27.2497 236.35 30.1997C236.35 33.1497 238.7 35.2997 241.7 36.5997L245.75 38.2497C251.65 40.7497 254.15 43.4497 254.15 47.1997C254.15 52.3497 249.45 55.9497 242.8 55.9497C238.35 55.9497 234.6 54.2497 232.25 51.2497C232.05 50.9497 232.1 50.5497 232.4 50.3497L234.9 48.5497C235.2 48.3497 235.6 48.4497 235.8 48.7497C237.1 51.2497 239.25 54.4997 242.8 54.4997C246.25 54.4997 248.45 51.6497 248.45 48.9997C248.45 46.1997 245.9 43.4997 243.45 42.4497L239.2 40.7497C233.05 38.2497 230.65 35.6997 230.65 31.6497ZM201.416 29.2497H200.066V22.9497L227.316 22.9497V24.3497H227.266C225.116 25.1497 223.766 27.3497 223.766 29.6997V48.5997C223.766 50.8997 225.116 53.0997 227.266 53.8997C227.266 53.9497 227.316 53.9497 227.316 53.9497V55.2997L200.716 55.2997V53.9497V49.0497H202.066C203.766 52.5997 207.316 53.8997 207.516 53.9497L217.716 53.9497C217.966 53.9497 218.166 53.7497 218.166 53.4997V40.8997C218.166 40.6497 217.966 40.3997 217.716 40.3997L212.766 40.3997C212.216 40.3997 208.416 40.5997 206.716 44.1997H205.366V35.1997H206.716C208.266 38.4497 211.866 39.0497 212.666 39.0497L217.716 39.0497C217.966 39.0497 218.166 38.8497 218.166 38.5997V24.7997C218.166 24.5497 217.966 24.3497 217.716 24.3497H206.866C206.816 24.3497 203.116 25.5997 201.416 29.2497ZM170.503 55.2997L161.803 55.2997V53.9497C163.753 53.2497 165.803 49.6997 166.403 48.2497L178.503 22.9997H180.353L193.853 51.3497C194.303 52.0997 195.303 53.2997 197.053 53.9497V55.2997H183.753V53.9497C183.853 53.9497 183.903 53.8997 183.953 53.8997C186.203 52.9997 187.153 50.3497 186.203 48.1497L178.553 31.0497C178.153 30.1997 176.903 30.1497 176.503 31.0497L168.153 48.2997C167.103 50.4497 168.153 53.0997 170.453 53.8997L170.503 53.9497V55.2997ZM133.184 29.2497H131.834V22.9497L159.084 22.9497V24.3497H159.034C156.884 25.1497 155.534 27.3497 155.534 29.6997V48.5997C155.534 50.8997 156.884 53.0997 159.034 53.8997C159.034 53.9497 159.084 53.9497 159.084 53.9497V55.2997L132.484 55.2997V53.9497V49.0497H133.834C135.534 52.5997 139.084 53.8997 139.284 53.9497L149.484 53.9497C149.734 53.9497 149.934 53.7497 149.934 53.4997V40.8997C149.934 40.6497 149.734 40.3997 149.484 40.3997L144.534 40.3997C143.984 40.3997 140.184 40.5997 138.484 44.1997H137.134V35.1997H138.484C140.034 38.4497 143.634 39.0497 144.434 39.0497L149.484 39.0497C149.734 39.0497 149.934 38.8497 149.934 38.5997V24.7997C149.934 24.5497 149.734 24.3497 149.484 24.3497H138.634C138.584 24.3497 134.884 25.5997 133.184 29.2497ZM105.921 35.5997L96.0707 22.9997L109.271 22.9997V24.3497C108.721 24.5497 108.221 24.7997 107.821 25.0997C106.371 26.0997 106.171 28.0997 107.221 29.4497L110.821 33.9497C111.371 34.6997 112.271 35.0997 113.221 35.0997H117.571C118.271 35.0997 118.871 34.5497 118.871 33.8497V29.4497C118.871 27.1497 117.421 25.0997 115.271 24.3497V22.9997H127.971V24.3497C125.871 25.0997 124.421 27.1497 124.421 29.4497V48.9497C124.421 51.1497 125.821 53.1497 127.921 53.8997L127.971 53.9497V55.2997H111.471C104.021 55.2997 99.0207 51.2497 99.0207 45.2497C99.0207 40.9497 101.621 37.6497 105.821 36.0997C105.971 35.9997 106.071 35.7997 105.921 35.5997ZM113.971 36.3997C109.971 36.3997 104.771 39.4997 104.771 45.2497C104.771 51.9997 109.971 53.9497 113.971 53.9497H117.571C118.271 53.9497 118.871 53.3997 118.871 52.6997V37.6997C118.871 36.9997 118.271 36.3997 117.571 36.3997H113.971ZM80.3488 53.9497C80.3488 53.9497 80.3988 53.9497 80.4488 53.8997C82.5988 53.0997 83.8988 50.8997 83.8988 48.5997V29.6997C83.8988 27.3497 82.5988 25.1497 80.4488 24.3497C80.3988 24.3497 80.3488 24.3497 80.3488 24.3497V22.9497H93.0488V24.3497H92.9988C90.8488 25.1497 89.4988 27.3497 89.4988 29.6997V48.5997C89.4988 50.8997 90.8488 53.0997 92.9988 53.8997C92.9988 53.9497 93.0488 53.9497 93.0488 53.9497V55.2997H80.3488V53.9497ZM39.9793 53.9497C39.9793 53.8997 40.0293 53.8997 40.0793 53.8997C42.2293 53.0997 43.5293 50.8997 43.5293 48.5997V29.1497C43.5293 27.7497 42.9793 26.3997 41.9293 25.4997C41.4293 25.0497 40.7793 24.6497 39.9793 24.3497V22.9997H45.5793C46.6793 22.9997 47.6793 23.3997 48.3793 24.1997L71.0793 48.6497C71.2793 48.8497 71.6793 48.6997 71.6793 48.3997L71.7293 29.3497C71.7293 27.1497 70.3293 25.1497 68.2293 24.3497H68.1293V22.9997L76.7793 22.9997V24.3497C74.6793 25.0997 73.2293 27.1497 73.2293 29.4497V50.7497C73.4293 51.1497 74.3793 53.0997 76.7793 53.9497V55.2997H71.2293C70.1793 55.2997 69.1793 54.8997 68.4793 54.0997L45.5793 30.1997C45.3793 29.9997 45.0293 30.1497 45.0293 30.4497L44.9793 48.5997C44.9793 50.8997 46.3293 53.0997 48.4793 53.8997C48.4793 53.8997 48.5293 53.8997 48.5293 53.9497V55.2997H44.9793H43.5293H39.9793V53.9497Z" fill="#FFB247"/>
<path d="M287.215 195.185C292.21 195.185 295.585 199.55 295.585 206.03C295.585 210.665 293.65 214.805 290.365 217.37C290.14 217.55 289.735 217.505 289.555 217.235L288.025 214.985C287.845 214.715 287.935 214.31 288.25 214.175C290.635 213.185 294.37 210.44 294.37 206.03C294.37 202.52 291.175 200.315 288.52 200.315C285.865 200.315 283.93 202.43 282.76 205.13L281.275 208.775C279.025 214.085 276.595 216.335 273.22 216.335C268.585 216.335 265.345 212.105 265.345 206.12C265.345 202.115 266.875 198.74 269.575 196.625C269.845 196.445 270.205 196.49 270.385 196.76L272.005 199.01C272.185 199.28 272.095 199.64 271.825 199.82C269.575 200.99 266.65 202.925 266.65 206.12C266.65 209.225 269.215 211.205 271.6 211.205C274.12 211.205 276.55 208.91 277.495 206.705L279.025 202.88C281.275 197.345 283.57 195.185 287.215 195.185ZM289.375 168.874V167.659H295.045V192.184H293.785V192.139C293.065 190.204 291.085 188.989 288.97 188.989H271.96C269.89 188.989 267.91 190.204 267.19 192.139C267.145 192.139 267.145 192.184 267.145 192.184H265.93V168.244H267.145H271.555V169.459C268.36 170.989 267.19 174.184 267.145 174.364V183.544C267.145 183.769 267.325 183.949 267.55 183.949H278.89C279.115 183.949 279.34 183.769 279.34 183.544V179.089C279.34 178.594 279.16 175.174 275.92 173.644V172.429H284.02V173.644C281.095 175.039 280.555 178.279 280.555 178.999V183.544C280.555 183.769 280.735 183.949 280.96 183.949H293.38C293.605 183.949 293.785 183.769 293.785 183.544V173.779C293.785 173.734 292.66 170.404 289.375 168.874ZM265.93 141.052V133.222H267.145C267.775 134.977 270.97 136.822 272.275 137.362L295 148.252V149.917L269.485 162.067C268.81 162.472 267.73 163.372 267.145 164.947H265.93V152.977H267.145C267.145 153.067 267.19 153.112 267.19 153.157C268 155.182 270.385 156.037 272.365 155.182L287.755 148.297C288.52 147.937 288.565 146.812 287.755 146.452L272.23 138.937C270.295 137.992 267.91 138.937 267.19 141.007L267.145 141.052H265.93ZM289.375 107.465V106.25H295.045V130.775H293.785V130.73C293.065 128.795 291.085 127.58 288.97 127.58H271.96C269.89 127.58 267.91 128.795 267.19 130.73C267.145 130.73 267.145 130.775 267.145 130.775H265.93V106.835H267.145H271.555V108.05C268.36 109.58 267.19 112.775 267.145 112.955V122.135C267.145 122.36 267.325 122.54 267.55 122.54H278.89C279.115 122.54 279.34 122.36 279.34 122.135V117.68C279.34 117.185 279.16 113.765 275.92 112.235V111.02H284.02V112.235C281.095 113.63 280.555 116.87 280.555 117.59V122.135C280.555 122.36 280.735 122.54 280.96 122.54H293.38C293.605 122.54 293.785 122.36 293.785 122.135V112.37C293.785 112.325 292.66 108.995 289.375 107.465ZM283.66 82.9282L295 74.0632V85.9432H293.785C293.605 85.4482 293.38 84.9982 293.11 84.6382C292.21 83.3332 290.41 83.1532 289.195 84.0982L285.145 87.3382C284.47 87.8332 284.11 88.6432 284.11 89.4982V93.4132C284.11 94.0432 284.605 94.5832 285.235 94.5832H289.195C291.265 94.5832 293.11 93.2782 293.785 91.3432H295V102.773H293.785C293.11 100.883 291.265 99.5782 289.195 99.5782H271.645C269.665 99.5782 267.865 100.838 267.19 102.728L267.145 102.773H265.93V87.9232C265.93 81.2182 269.575 76.7182 274.975 76.7182C278.845 76.7182 281.815 79.0582 283.21 82.8382C283.3 82.9732 283.48 83.0632 283.66 82.9282ZM282.94 90.1732C282.94 86.5732 280.15 81.8932 274.975 81.8932C268.9 81.8932 267.145 86.5732 267.145 90.1732V93.4132C267.145 94.0432 267.64 94.5832 268.27 94.5832H281.77C282.4 94.5832 282.94 94.0432 282.94 93.4132V90.1732ZM267.145 59.9135C267.145 59.9135 267.145 59.9585 267.19 60.0035C267.91 61.9385 269.89 63.1085 271.96 63.1085H288.97C291.085 63.1085 293.065 61.9385 293.785 60.0035C293.785 59.9585 293.785 59.9135 293.785 59.9135H295.045V71.3435H293.785V71.2985C293.065 69.3635 291.085 68.1485 288.97 68.1485H271.96C269.89 68.1485 267.91 69.3635 267.19 71.2985C267.145 71.2985 267.145 71.3435 267.145 71.3435H265.93V59.9135H267.145ZM267.145 23.5809C267.19 23.5809 267.19 23.6259 267.19 23.6709C267.91 25.6059 269.89 26.7759 271.96 26.7759H289.465C290.725 26.7759 291.94 26.2809 292.75 25.3359C293.155 24.8859 293.515 24.3009 293.785 23.5809H295V28.6209C295 29.6109 294.64 30.5109 293.92 31.1409L271.915 51.5709C271.735 51.7509 271.87 52.1109 272.14 52.1109L289.285 52.1559C291.265 52.1559 293.065 50.8959 293.785 49.0059V48.9159H295V56.7009H293.785C293.11 54.8109 291.265 53.5059 289.195 53.5059H270.025C269.665 53.6859 267.91 54.5409 267.145 56.7009H265.93V51.7059C265.93 50.7609 266.29 49.8609 267.01 49.2309L288.52 28.6209C288.7 28.4409 288.565 28.1259 288.295 28.1259L271.96 28.0809C269.89 28.0809 267.91 29.2959 267.19 31.2309C267.19 31.2309 267.19 31.2759 267.145 31.2759H265.93V28.0809V26.7759V23.5809H267.145Z" fill="#FFB247"/>
<path d="M29.06 384.35C30.905 384.35 32.66 383.405 33.515 381.785C33.605 381.605 33.695 381.38 33.785 381.11H35L35 392.585H33.785C33.785 392.54 33.785 392.495 33.74 392.495C33.02 390.56 31.085 389.345 29.015 389.345H13.22C12.995 389.345 12.905 389.66 13.085 389.795L28.25 399.155V400.55L13.085 413.6C12.905 413.735 13.04 414.005 13.22 414.005L29.015 414.05C31.085 414.05 33.065 412.835 33.785 410.9V410.855H35V418.55H33.785C33.695 418.325 33.605 418.1 33.47 417.875C32.66 416.255 30.86 415.31 29.06 415.31H10.07C9.935 415.4 7.955 416.21 7.145 418.55H5.93L5.93 413.15V412.745L22.49 398.66C22.94 398.3 22.895 397.625 22.4 397.31L5.93 386.96L5.93 381.155H7.145C7.91 383.27 9.62 384.17 9.98 384.35H29.06ZM31.31 350.261C31.94 349.901 33.2 349.001 33.785 347.291H35V358.496H33.785C33.515 357.731 33.11 357.191 32.705 356.786C31.94 356.066 30.77 355.886 29.78 356.381L29.15 356.651C28.97 356.741 28.835 356.921 28.835 357.146V373.346C28.835 373.526 28.97 373.706 29.15 373.796L29.6 373.976C30.59 374.426 31.805 374.246 32.57 373.436C33.02 372.986 33.47 372.356 33.785 371.501H35V378.656H33.785C33.38 377.486 32.345 376.766 31.625 376.361L30.905 376.046H30.86L8.855 366.191C8.225 365.921 7.55 365.921 6.92 366.146L5.93 366.551V363.311C5.93 362.321 6.47 361.466 7.37 361.061L31.31 350.261ZM27.62 357.596C27.62 357.506 27.53 357.461 27.44 357.506L9.485 365.021C9.395 365.021 9.395 365.156 9.485 365.201L27.44 373.121C27.53 373.166 27.62 373.121 27.62 373.031V357.596ZM28.88 317.184C28.97 317.004 29.24 316.959 29.375 317.094C33.29 320.019 35.585 324.879 35.585 330.414C35.585 339.909 28.925 347.334 20.465 347.334C12.005 347.334 5.345 339.909 5.345 330.369C5.345 324.834 7.595 320.064 11.555 317.094C11.735 316.959 11.96 317.004 12.05 317.184L13.985 320.154C14.12 320.334 14.03 320.604 13.805 320.649C10.385 321.594 6.515 325.464 6.515 330.369C6.515 337.839 14.075 342.114 20.51 342.114C26.9 342.114 34.415 338.289 34.415 330.369C34.415 324.969 29.915 321.054 27.215 320.604C26.99 320.559 26.855 320.289 26.99 320.064L28.88 317.184ZM7.145 281.297L7.19 281.342C7.865 283.232 9.665 284.492 11.645 284.492H29.285C31.265 284.492 33.065 283.232 33.785 281.342V281.297H35L35 292.727H33.785C33.11 290.792 31.265 289.532 29.195 289.532H21.095C20.78 289.532 20.555 289.757 20.555 290.072L20.555 305.642C20.555 305.957 20.78 306.182 21.095 306.182H29.285C31.265 306.182 33.065 304.967 33.785 303.077V302.987H35V314.417H33.785C33.11 312.527 31.265 311.222 29.195 311.222H11.645C9.665 311.222 7.865 312.482 7.19 314.372L7.145 314.417H5.93L5.93 302.987H7.145L7.19 303.077C7.865 304.967 9.665 306.182 11.645 306.182H18.755C19.07 306.182 19.34 305.957 19.34 305.642L19.34 290.072C19.34 289.757 19.07 289.532 18.755 289.532H11.735C9.665 289.532 7.865 290.792 7.145 292.727H5.93L5.93 281.297H7.145ZM31.31 250.435C31.94 250.075 33.2 249.175 33.785 247.465H35V258.67H33.785C33.515 257.905 33.11 257.365 32.705 256.96C31.94 256.24 30.77 256.06 29.78 256.555L29.15 256.825C28.97 256.915 28.835 257.095 28.835 257.32L28.835 273.52C28.835 273.7 28.97 273.88 29.15 273.97L29.6 274.15C30.59 274.6 31.805 274.42 32.57 273.61C33.02 273.16 33.47 272.53 33.785 271.675H35V278.83H33.785C33.38 277.66 32.345 276.94 31.625 276.535L30.905 276.22H30.86L8.855 266.365C8.225 266.095 7.55 266.095 6.92 266.32L5.93 266.725V263.485C5.93 262.495 6.47 261.64 7.37 261.235L31.31 250.435ZM27.62 257.77C27.62 257.68 27.53 257.635 27.44 257.68L9.485 265.195C9.395 265.195 9.395 265.33 9.485 265.375L27.44 273.295C27.53 273.34 27.62 273.295 27.62 273.205L27.62 257.77ZM29.375 222.109V220.894H35L35 244.924H32.705L8.135 226.744C7.73 226.429 7.145 226.744 7.145 227.239L7.145 237.814C7.325 239.614 8.585 241.009 11.51 242.404V243.619H5.885L5.93 221.614H8.135L32.795 239.074C33.245 239.344 33.785 239.074 33.785 238.534L33.785 227.104C33.785 225.079 32.57 223.594 29.375 222.109Z" fill="#FFB247"/>
<path d="M27.215 195.185C32.21 195.185 35.585 199.55 35.585 206.03C35.585 210.665 33.65 214.805 30.365 217.37C30.14 217.55 29.735 217.505 29.555 217.235L28.025 214.985C27.845 214.715 27.935 214.31 28.25 214.175C30.635 213.185 34.37 210.44 34.37 206.03C34.37 202.52 31.175 200.315 28.52 200.315C25.865 200.315 23.93 202.43 22.76 205.13L21.275 208.775C19.025 214.085 16.595 216.335 13.22 216.335C8.585 216.335 5.345 212.105 5.345 206.12C5.345 202.115 6.875 198.74 9.575 196.625C9.845 196.445 10.205 196.49 10.385 196.76L12.005 199.01C12.185 199.28 12.095 199.64 11.825 199.82C9.575 200.99 6.65 202.925 6.65 206.12C6.65 209.225 9.215 211.205 11.6 211.205C14.12 211.205 16.55 208.91 17.495 206.705L19.025 202.88C21.275 197.345 23.57 195.185 27.215 195.185ZM29.375 168.875V167.66H35.045V192.185H33.785V192.14C33.065 190.205 31.085 188.99 28.97 188.99H11.96C9.89 188.99 7.91 190.205 7.19 192.14C7.145 192.14 7.145 192.185 7.145 192.185H5.93V168.245H7.145H11.555V169.46C8.36 170.99 7.19 174.185 7.145 174.365V183.545C7.145 183.77 7.325 183.95 7.55 183.95H18.89C19.115 183.95 19.34 183.77 19.34 183.545V179.09C19.34 178.595 19.16 175.175 15.92 173.645V172.43H24.02V173.645C21.095 175.04 20.555 178.28 20.555 179V183.545C20.555 183.77 20.735 183.95 20.96 183.95H33.38C33.605 183.95 33.785 183.77 33.785 183.545V173.78C33.785 173.735 32.66 170.405 29.375 168.875ZM5.93 141.053V133.223H7.145C7.775 134.978 10.97 136.823 12.275 137.363L35 148.253V149.918L9.485 162.068C8.81 162.473 7.73 163.373 7.145 164.948H5.93L5.93 152.978H7.145C7.145 153.068 7.19 153.113 7.19 153.158C8 155.183 10.385 156.038 12.365 155.183L27.755 148.298C28.52 147.938 28.565 146.813 27.755 146.453L12.23 138.938C10.295 137.993 7.91 138.938 7.19 141.008L7.145 141.053H5.93ZM29.375 107.466V106.251H35.045V130.776H33.785V130.731C33.065 128.796 31.085 127.581 28.97 127.581H11.96C9.89 127.581 7.91 128.796 7.19 130.731C7.145 130.731 7.145 130.776 7.145 130.776H5.93L5.93 106.836H7.145H11.555V108.051C8.36 109.581 7.19 112.776 7.145 112.956V122.136C7.145 122.361 7.325 122.541 7.55 122.541H18.89C19.115 122.541 19.34 122.361 19.34 122.136V117.681C19.34 117.186 19.16 113.766 15.92 112.236V111.021H24.02V112.236C21.095 113.631 20.555 116.871 20.555 117.591V122.136C20.555 122.361 20.735 122.541 20.96 122.541H33.38C33.605 122.541 33.785 122.361 33.785 122.136V112.371C33.785 112.326 32.66 108.996 29.375 107.466ZM23.66 82.9286L35 74.0636V85.9436H33.785C33.605 85.4486 33.38 84.9986 33.11 84.6386C32.21 83.3336 30.41 83.1536 29.195 84.0986L25.145 87.3386C24.47 87.8336 24.11 88.6436 24.11 89.4986V93.4136C24.11 94.0436 24.605 94.5836 25.235 94.5836H29.195C31.265 94.5836 33.11 93.2786 33.785 91.3436H35V102.774H33.785C33.11 100.884 31.265 99.5786 29.195 99.5786H11.645C9.665 99.5786 7.865 100.839 7.19 102.729L7.145 102.774H5.93L5.93 87.9236C5.93 81.2186 9.575 76.7186 14.975 76.7186C18.845 76.7186 21.815 79.0586 23.21 82.8386C23.3 82.9736 23.48 83.0636 23.66 82.9286ZM22.94 90.1736C22.94 86.5736 20.15 81.8936 14.975 81.8936C8.9 81.8936 7.145 86.5736 7.145 90.1736L7.145 93.4136C7.145 94.0436 7.64 94.5836 8.27 94.5836H21.77C22.4 94.5836 22.94 94.0436 22.94 93.4136V90.1736ZM7.145 59.9139C7.145 59.9139 7.145 59.9589 7.19 60.0039C7.91 61.9389 9.89 63.1089 11.96 63.1089H28.97C31.085 63.1089 33.065 61.9389 33.785 60.0039C33.785 59.9589 33.785 59.9139 33.785 59.9139H35.045V71.3439H33.785V71.2989C33.065 69.3639 31.085 68.1489 28.97 68.1489H11.96C9.89 68.1489 7.91 69.3639 7.19 71.2989C7.145 71.2989 7.145 71.3439 7.145 71.3439H5.93V59.9139H7.145ZM7.145 23.5814C7.19 23.5814 7.19 23.6264 7.19 23.6714C7.91 25.6064 9.89 26.7764 11.96 26.7764H29.465C30.725 26.7764 31.94 26.2814 32.75 25.3364C33.155 24.8864 33.515 24.3014 33.785 23.5814H35V28.6214C35 29.6114 34.64 30.5114 33.92 31.1414L11.915 51.5714C11.735 51.7514 11.87 52.1114 12.14 52.1114L29.285 52.1564C31.265 52.1564 33.065 50.8964 33.785 49.0064V48.9164H35V56.7014H33.785C33.11 54.8114 31.265 53.5064 29.195 53.5064H10.025C9.665 53.6864 7.91 54.5414 7.145 56.7014H5.93L5.93 51.7064C5.93 50.7614 6.29 49.8614 7.01 49.2314L28.52 28.6214C28.7 28.4414 28.565 28.1264 28.295 28.1264L11.96 28.0814C9.89 28.0814 7.91 29.2964 7.19 31.2314C7.19 31.2314 7.19 31.2764 7.145 31.2764H5.93V28.0814V26.7764V23.5814H7.145Z" fill="#FFB247"/>
</svg>
