<svg width="16" height="15" viewBox="0 0 16 15" fill="none" xmlns="http://www.w3.org/2000/svg">
<path d="M3.54167 2.83333C3.54167 2.45761 3.69092 2.09728 3.9566 1.8316C4.22228 1.56592 4.58261 1.41667 4.95833 1.41667C5.14619 1.41667 5.32636 1.34204 5.4592 1.2092C5.59204 1.07636 5.66667 0.896195 5.66667 0.708333C5.66667 0.520472 5.59204 0.340304 5.4592 0.207466C5.32636 0.0746277 5.14619 0 4.95833 0C4.20689 0 3.48622 0.298511 2.95486 0.829864C2.42351 1.36122 2.125 2.08189 2.125 2.83333V4.95833C2.125 5.33406 1.97574 5.69439 1.71007 5.96007C1.44439 6.22574 1.08406 6.375 0.708333 6.375C0.520472 6.375 0.340304 6.44963 0.207466 6.58247C0.0746277 6.7153 0 6.89547 0 7.08333C0 7.2712 0.0746277 7.45136 0.207466 7.5842C0.340304 7.71704 0.520472 7.79167 0.708333 7.79167C1.08406 7.79167 1.44439 7.94092 1.71007 8.2066C1.97574 8.47228 2.125 8.83261 2.125 9.20833V11.3333C2.125 12.0848 2.42351 12.8054 2.95486 13.3368C3.48622 13.8682 4.20689 14.1667 4.95833 14.1667C5.14619 14.1667 5.32636 14.092 5.4592 13.9592C5.59204 13.8264 5.66667 13.6462 5.66667 13.4583C5.66667 13.2705 5.59204 13.0903 5.4592 12.9575C5.32636 12.8246 5.14619 12.75 4.95833 12.75C4.58261 12.75 4.22228 12.6007 3.9566 12.3351C3.69092 12.0694 3.54167 11.7091 3.54167 11.3333V9.20833C3.53939 8.80496 3.45101 8.40672 3.28243 8.04026C3.11386 7.67379 2.86898 7.34754 2.56417 7.08333C2.86898 6.81913 3.11386 6.49288 3.28243 6.12641C3.45101 5.75995 3.53939 5.36171 3.54167 4.95833V2.83333ZM14.875 6.375C14.4993 6.375 14.1389 6.22574 13.8733 5.96007C13.6076 5.69439 13.4583 5.33406 13.4583 4.95833V2.83333C13.4583 2.08189 13.1598 1.36122 12.6285 0.829864C12.0971 0.298511 11.3764 0 10.625 0C10.4371 0 10.257 0.0746277 10.1241 0.207466C9.99129 0.340304 9.91667 0.520472 9.91667 0.708333C9.91667 0.896195 9.99129 1.07636 10.1241 1.2092C10.257 1.34204 10.4371 1.41667 10.625 1.41667C11.0007 1.41667 11.3611 1.56592 11.6267 1.8316C11.8924 2.09728 12.0417 2.45761 12.0417 2.83333V4.95833C12.0439 5.36171 12.1323 5.75995 12.3009 6.12641C12.4695 6.49288 12.7144 6.81913 13.0192 7.08333C12.7144 7.34754 12.4695 7.67379 12.3009 8.04026C12.1323 8.40672 12.0439 8.80496 12.0417 9.20833V11.3333C12.0417 11.7091 11.8924 12.0694 11.6267 12.3351C11.3611 12.6007 11.0007 12.75 10.625 12.75C10.4371 12.75 10.257 12.8246 10.1241 12.9575C9.99129 13.0903 9.91667 13.2705 9.91667 13.4583C9.91667 13.6462 9.99129 13.8264 10.1241 13.9592C10.257 14.092 10.4371 14.1667 10.625 14.1667C11.3764 14.1667 12.0971 13.8682 12.6285 13.3368C13.1598 12.8054 13.4583 12.0848 13.4583 11.3333V9.20833C13.4583 8.83261 13.6076 8.47228 13.8733 8.2066C14.1389 7.94092 14.4993 7.79167 14.875 7.79167C15.0629 7.79167 15.243 7.71704 15.3759 7.5842C15.5087 7.45136 15.5833 7.2712 15.5833 7.08333C15.5833 6.89547 15.5087 6.7153 15.3759 6.58247C15.243 6.44963 15.0629 6.375 14.875 6.375Z" fill="#FFB247"/>
</svg>
