<svg width="17" height="17" viewBox="0 0 17 17" fill="none" xmlns="http://www.w3.org/2000/svg">
<path d="M13.25 6.91667C13.8763 6.91667 14.4886 6.73094 15.0093 6.38299C15.5301 6.03503 15.936 5.54046 16.1757 4.96183C16.4153 4.3832 16.478 3.74649 16.3559 3.13221C16.2337 2.51794 15.9321 1.95369 15.4892 1.51083C15.0463 1.06796 14.4821 0.766367 13.8678 0.64418C13.2536 0.521994 12.6168 0.584704 12.0382 0.824382C11.4596 1.06406 10.965 1.46994 10.6171 1.99069C10.2691 2.51145 10.0834 3.12369 10.0834 3.75C10.0834 4.58985 10.417 5.39531 11.0109 5.98917C11.6047 6.58304 12.4102 6.91667 13.25 6.91667ZM13.25 2.16667C13.5632 2.16667 13.8693 2.25953 14.1297 2.43351C14.3901 2.60749 14.593 2.85477 14.7128 3.14408C14.8327 3.4334 14.864 3.75176 14.8029 4.05889C14.7419 4.36603 14.5911 4.64815 14.3696 4.86959C14.1482 5.09102 13.8661 5.24182 13.5589 5.30291C13.2518 5.364 12.9334 5.33265 12.6441 5.21281C12.3548 5.09297 12.1075 4.89003 11.9335 4.62965C11.7596 4.36927 11.6667 4.06315 11.6667 3.75C11.6667 3.33007 11.8335 2.92735 12.1305 2.63041C12.4274 2.33348 12.8301 2.16667 13.25 2.16667ZM12.3396 8.87208C12.2686 8.75752 12.1696 8.66298 12.0518 8.59742C11.934 8.53186 11.8015 8.49745 11.6667 8.49745C11.5319 8.49745 11.3994 8.53186 11.2816 8.59742C11.1639 8.66298 11.0648 8.75752 10.9938 8.87208L10.2021 10.1625L7.59754 5.72917C7.52744 5.61103 7.42781 5.51317 7.30844 5.4452C7.18907 5.37723 7.05407 5.34148 6.91671 5.34148C6.77934 5.34148 6.64434 5.37723 6.52497 5.4452C6.4056 5.51317 6.30597 5.61103 6.23587 5.72917L0.694206 15.2292C0.624922 15.3492 0.588346 15.4852 0.588136 15.6238C0.587925 15.7624 0.624087 15.8986 0.693007 16.0188C0.761926 16.139 0.86119 16.239 0.980876 16.3088C1.10056 16.3786 1.23648 16.4158 1.37504 16.4167H15.625C15.7665 16.4169 15.9054 16.3793 16.0274 16.3077C16.1494 16.2361 16.25 16.1331 16.3187 16.0095C16.3874 15.8858 16.4217 15.746 16.418 15.6046C16.4144 15.4632 16.3729 15.3254 16.298 15.2054L12.3396 8.87208ZM7.27296 14.8333H2.75254L6.91671 7.70833L9.24421 11.6667L8.25462 13.25L7.27296 14.8333ZM9.13337 14.8333L10.313 12.9571L10.875 12.1179L11.6667 10.7879L14.2 14.8333H9.13337Z" fill="#FFB247"/>
</svg>
